<?xml version="1.0" encoding="UTF-8"?>
<svg version="1.1" xmlns="http://www.w3.org/2000/svg" width="423" height="188">
<path d="M0 0 C139.59 0 279.18 0 423 0 C423 62.04 423 124.08 423 188 C283.41 188 143.82 188 0 188 C0 125.96 0 63.92 0 0 Z " fill="#183F65" transform="translate(0,0)"/>
<path d="M0 0 C4.12494151 -0.05784708 8.24977944 -0.09354407 12.375 -0.125 C13.550625 -0.14175781 14.72625 -0.15851562 15.9375 -0.17578125 C17.61972656 -0.18544922 17.61972656 -0.18544922 19.3359375 -0.1953125 C20.37282715 -0.20578613 21.4097168 -0.21625977 22.47802734 -0.22705078 C25 0 25 0 27 2 C27 2.99 27 3.98 27 5 C27.66 5 28.32 5 29 5 C29.13277344 5.85464844 29.26554687 6.70929687 29.40234375 7.58984375 C29.66724609 9.24693359 29.66724609 9.24693359 29.9375 10.9375 C30.19853516 12.59072266 30.19853516 12.59072266 30.46484375 14.27734375 C30.71845136 16.90426929 30.71845136 16.90426929 32 18 C32.12375 19.03125 32.2475 20.0625 32.375 21.125 C32.84336241 25.02526413 32.84336241 25.02526413 34.5 28.5 C36.04316628 32.10072133 36.50805972 35.13475495 37 39 C37.76554914 42.30164047 37.76554914 42.30164047 39 45 C40.485 45.495 40.485 45.495 42 46 C41.979375 44.865625 41.95875 43.73125 41.9375 42.5625 C42 39 42 39 43 38 C43.103125 36.865625 43.20625 35.73125 43.3125 34.5625 C43.85763548 29.62947071 45.38401512 22.61598488 49 19 C49.23075082 17.65252916 49.41153063 16.29622435 49.5625 14.9375 C49.706875 13.638125 49.85125 12.33875 50 11 C50.66 11 51.32 11 52 11 C51.938125 10.29875 51.87625 9.5975 51.8125 8.875 C52 6 52 6 55 0 C63.91 0 72.82 0 82 0 C82 0.99 82 1.98 82 3 C79.03 3 76.06 3 73 3 C73 24.45 73 45.9 73 68 C75.97 68 78.94 68 82 68 C81.67 69.32 81.34 70.64 81 72 C70.44 72 59.88 72 49 72 C48.67 70.68 48.34 69.36 48 68 C50 67 50 67 58 67 C57.67 48.19 57.34 29.38 57 10 C56.34 13.3 55.68 16.6 55 20 C54.36149212 22.34119555 53.70656285 24.67843634 53 27 C52.34 27 51.68 27 51 27 C51.04125 27.845625 51.0825 28.69125 51.125 29.5625 C50.98464972 33.42213269 50.17219836 36.33688013 49 40 C48.34 40 47.68 40 47 40 C46.81824219 40.6290625 46.63648438 41.258125 46.44921875 41.90625 C45.26030236 45.95466272 44.06346067 49.9539399 42.5 53.875 C40.4691654 59.09714612 39.27950498 64.55529796 38 70 C35.6015625 69.68359375 35.6015625 69.68359375 33 69 C30.40113207 64.30204644 29.09673001 59.193738 27.6484375 54.0390625 C27.1807339 52.0275461 27.1807339 52.0275461 26 51 C25.87625 49.96875 25.7525 48.9375 25.625 47.875 C24.97042926 43.81666141 23.72112076 40.71762084 22 37 C20.78820524 34.14871822 19.8395514 31.42840185 19 28.4375 C18.17215119 25.18128421 18.17215119 25.18128421 17 23.0625 C15.72005138 20.42260597 15.12670375 17.75217068 14.46484375 14.90234375 C14.06000887 13.24558252 13.5393282 11.61798459 13 10 C12.67 29.14 12.34 48.28 12 68 C14.97 68 17.94 68 21 68 C21 68.99 21 69.98 21 71 C16.28605527 71.02485249 11.5721493 71.04293186 6.8581543 71.05493164 C5.25691055 71.05993805 3.65567133 71.06674515 2.05444336 71.07543945 C-0.25668458 71.08766764 -2.56775169 71.09326536 -4.87890625 71.09765625 C-5.58648575 71.10281754 -6.29406525 71.10797882 -7.02308655 71.11329651 C-11.4339878 71.11378632 -15.67167901 70.87687155 -20 70 C-20.33 69.34 -20.66 68.68 -21 68 C-21.639375 67.71125 -22.27875 67.4225 -22.9375 67.125 C-25.62157063 65.66096147 -25.96006484 64.88820419 -27 62 C-27.36397416 58.25531171 -27.36608971 54.49050245 -27.390625 50.73046875 C-27.55104034 45.37437863 -28.44441472 42.2561281 -32 38 C-34.10039331 36.61131484 -34.10039331 36.61131484 -36 36 C-36 35.34 -36 34.68 -36 34 C-39.63 34 -43.26 34 -47 34 C-46.67 44.89 -46.34 55.78 -46 67 C-43.36 67.33 -40.72 67.66 -38 68 C-38 68.99 -38 69.98 -38 71 C-48.56 71 -59.12 71 -70 71 C-70 70.01 -70 69.02 -70 68 C-66.7 68 -63.4 68 -60 68 C-60.33 46.55 -60.66 25.1 -61 3 C-63.64 2.67 -66.28 2.34 -69 2 C-69 1.67 -69 1.34 -69 1 C-62.63213925 0.89791793 -56.26449237 0.82825066 -49.89599609 0.78027344 C-47.73315546 0.7602561 -45.57036827 0.7330337 -43.40771484 0.69824219 C-40.28469594 0.64928753 -37.1623974 0.62693183 -34.0390625 0.609375 C-32.60719101 0.57840729 -32.60719101 0.57840729 -31.14639282 0.54681396 C-24.49065121 0.54462872 -18.86376353 1.73459623 -13 5 C-9.21000339 9.68176052 -9.45853058 15.21044238 -10 21 C-10.33 21.66 -10.66 22.32 -11 23 C-11.66 23 -12.32 23 -13 23 C-13.13341797 23.92232422 -13.13341797 23.92232422 -13.26953125 24.86328125 C-14 27 -14 27 -15.63671875 28.23046875 C-19.76457518 30.15680175 -23.40667977 31.54066798 -28 32 C-27.12988281 32.185625 -27.12988281 32.185625 -26.2421875 32.375 C-20.44812859 33.90478453 -17.37129909 35.93044682 -14.01953125 40.92578125 C-12.6467137 43.71875489 -12.54194462 45.94629746 -13 49 C-12.34 49 -11.68 49 -11 49 C-10.97421875 50.05960938 -10.9484375 51.11921875 -10.921875 52.2109375 C-10.8656022 53.59900001 -10.80825467 54.98701925 -10.75 56.375 C-10.73582031 57.07367188 -10.72164062 57.77234375 -10.70703125 58.4921875 C-10.63964218 60.77717646 -10.63964218 60.77717646 -10 64 C-4.7995099 66.91465912 -4.7995099 66.91465912 7 67 C7 46.21 7 25.42 7 4 C4.36 4 1.72 4 -1 4 C-0.67 2.68 -0.34 1.36 0 0 Z " fill="#FAFAFB" transform="translate(205,36)"/>
<path d="M0 0 C6.54475718 0.0151499 12.88829994 0.25325995 19.375 1.1328125 C19.375 1.7928125 19.375 2.4528125 19.375 3.1328125 C21.293125 3.596875 21.293125 3.596875 23.25 4.0703125 C29.56828103 6.13974948 33.74994647 10.52445592 38.375 15.1328125 C38.91125 15.5865625 39.4475 16.0403125 40 16.5078125 C42.06494879 18.94820653 42.90353004 21.64610906 44 24.6328125 C44.42539063 25.7775 44.85078125 26.9221875 45.2890625 28.1015625 C48.40901517 36.81049512 47.96518042 45.24992382 45.375 54.1328125 C43.875 56.8828125 43.875 56.8828125 42.375 59.1328125 C42.08625 60.1640625 41.7975 61.1953125 41.5 62.2578125 C40.08624702 65.87073679 38.6996236 66.27720863 35.375 68.1328125 C33.01696429 70.55653165 30.89415514 73.09450222 29.375 76.1328125 C26.06402394 78.34012987 23.28090763 78.31035376 19.375 78.1328125 C19.375 78.7928125 19.375 79.4528125 19.375 80.1328125 C12.05114181 81.12587802 4.76614253 81.50676912 -2.625 81.1328125 C-3.12 80.6378125 -3.12 80.6378125 -3.625 80.1328125 C-3.625 77.4928125 -3.625 74.8528125 -3.625 72.1328125 C-9.565 72.1328125 -15.505 72.1328125 -21.625 72.1328125 C-21.625 66.1928125 -21.625 60.2528125 -21.625 54.1328125 C-25.585 54.1328125 -29.545 54.1328125 -33.625 54.1328125 C-33.625 45.5528125 -33.625 36.9728125 -33.625 28.1328125 C-29.335 28.1328125 -25.045 28.1328125 -20.625 28.1328125 C-20.625 22.1928125 -20.625 16.2528125 -20.625 10.1328125 C-15.015 10.1328125 -9.405 10.1328125 -3.625 10.1328125 C-3.645625 8.6684375 -3.66625 7.2040625 -3.6875 5.6953125 C-3.70892007 4.17448732 -3.69679964 2.65209288 -3.625 1.1328125 C-2.625 0.1328125 -2.625 0.1328125 0 0 Z " fill="#E11E2B" transform="translate(70.625,30.8671875)"/>
<path d="M0 0 C8.91 0 17.82 0 27 0 C27 0.99 27 1.98 27 3 C24.03 3 21.06 3 18 3 C18 24.45 18 45.9 18 68 C20.97 68 23.94 68 27 68 C26.505 69.98 26.505 69.98 26 72 C15.44 72 4.88 72 -6 72 C-6.33 70.68 -6.66 69.36 -7 68 C-5 67 -5 67 3 67 C2.67 48.19 2.34 29.38 2 10 C1.34 13.3 0.68 16.6 0 20 C-0.63850788 22.34119555 -1.29343715 24.67843634 -2 27 C-2.66 27 -3.32 27 -4 27 C-3.95875 27.845625 -3.9175 28.69125 -3.875 29.5625 C-4.01535028 33.42213269 -4.82780164 36.33688013 -6 40 C-6.66 40 -7.32 40 -8 40 C-8.18175781 40.6290625 -8.36351562 41.258125 -8.55078125 41.90625 C-9.73969764 45.95466272 -10.93653933 49.9539399 -12.5 53.875 C-14.5308346 59.09714612 -15.72049502 64.55529796 -17 70 C-19.3984375 69.68359375 -19.3984375 69.68359375 -22 69 C-24.59886793 64.30204644 -25.90326999 59.193738 -27.3515625 54.0390625 C-27.8192661 52.0275461 -27.8192661 52.0275461 -29 51 C-29.12375 49.96875 -29.2475 48.9375 -29.375 47.875 C-30.02957074 43.81666141 -31.27887924 40.71762084 -33 37 C-34.21179476 34.14871822 -35.1604486 31.42840185 -36 28.4375 C-36.82784881 25.18128421 -36.82784881 25.18128421 -38 23.0625 C-40.86123539 17.16120201 -41.22935706 11.42199758 -41 5 C-41.99 5 -42.98 5 -44 5 C-44 26.12 -44 47.24 -44 69 C-44.99 69 -45.98 69 -47 69 C-47 46.89 -47 24.78 -47 2 C-41.39 2 -35.78 2 -30 2 C-27.59931281 7.60160345 -26.11809587 12.2920606 -24.84375 18.1328125 C-23.95738024 21.14482826 -22.68270918 23.36464594 -21 26 C-19.31131314 30.31553308 -18.65298273 34.42912087 -18 39 C-17.23445086 42.30164047 -17.23445086 42.30164047 -16 45 C-15.01 45.33 -14.02 45.66 -13 46 C-13.020625 44.865625 -13.04125 43.73125 -13.0625 42.5625 C-13 39 -13 39 -12 38 C-11.896875 36.865625 -11.79375 35.73125 -11.6875 34.5625 C-11.14236452 29.62947071 -9.61598488 22.61598488 -6 19 C-5.76924918 17.65252916 -5.58846937 16.29622435 -5.4375 14.9375 C-5.293125 13.638125 -5.14875 12.33875 -5 11 C-4.34 11 -3.68 11 -3 11 C-3.061875 10.29875 -3.12375 9.5975 -3.1875 8.875 C-3 6 -3 6 0 0 Z " fill="#F4F6F8" transform="translate(260,36)"/>
<path d="M0 0 C1.13787964 -0.00315216 2.27575928 -0.00630432 3.44812012 -0.009552 C4.6866272 -0.00752777 5.92513428 -0.00550354 7.20117188 -0.00341797 C8.46255981 -0.00437469 9.72394775 -0.00533142 11.02355957 -0.00631714 C13.69689325 -0.00699922 16.37013624 -0.00564076 19.04345703 -0.00097656 C22.47698878 0.00472073 25.91044237 0.00144152 29.34397125 -0.00454903 C32.6088743 -0.00902309 35.87376781 -0.0058943 39.13867188 -0.00341797 C40.37717896 -0.0054422 41.61568604 -0.00746643 42.89172363 -0.009552 C44.02960327 -0.00639984 45.16748291 -0.00324768 46.33984375 0 C47.34720581 0.00079559 48.35456787 0.00159119 49.39245605 0.00241089 C51.66992188 0.12939453 51.66992188 0.12939453 52.66992188 1.12939453 C52.75624062 2.47206866 52.77698661 3.81913775 52.76757812 5.16455078 C52.76435547 5.9734375 52.76113281 6.78232422 52.7578125 7.61572266 C52.74524414 8.89092773 52.74524414 8.89092773 52.73242188 10.19189453 C52.72791016 11.04589844 52.72339844 11.89990234 52.71875 12.77978516 C52.70692561 14.89635117 52.68898956 17.01288138 52.66992188 19.12939453 C50.73242188 18.36767578 50.73242188 18.36767578 48.66992188 17.12939453 C48.15056421 15.14934343 47.63665319 13.16691277 47.19335938 11.16845703 C46.32070144 7.7689985 45.4585612 6.32046829 42.66992188 4.12939453 C38.70992188 3.79939453 34.74992187 3.46939453 30.66992188 3.12939453 C30.66992188 24.57939453 30.66992188 46.02939453 30.66992188 68.12939453 C33.63992188 68.12939453 36.60992187 68.12939453 39.66992188 68.12939453 C39.66992188 69.11939453 39.66992188 70.10939453 39.66992188 71.12939453 C28.44992187 71.12939453 17.22992188 71.12939453 5.66992188 71.12939453 C5.99992187 69.80939453 6.32992188 68.48939453 6.66992188 67.12939453 C9.63992188 67.12939453 12.60992187 67.12939453 15.66992188 67.12939453 C15.66992188 46.00939453 15.66992188 24.88939453 15.66992188 3.12939453 C4.92477023 3.3234597 4.92477023 3.3234597 0.60742188 5.56689453 C-2.26797375 9.36983713 -3.25107275 13.53265617 -4.33007812 18.12939453 C-4.99007813 18.12939453 -5.65007812 18.12939453 -6.33007812 18.12939453 C-6.35692125 15.31683172 -6.37684 12.50452212 -6.39257812 9.69189453 C-6.40095703 8.88945313 -6.40933594 8.08701172 -6.41796875 7.26025391 C-6.42659243 5.21644232 -6.38235962 3.17255551 -6.33007812 1.12939453 C-4.61184722 -0.58883637 -2.34410064 0.00185132 0 0 Z " fill="#FDFEFE" transform="translate(335.330078125,35.87060546875)"/>
<path d="M0 0 C6.36786075 -0.10208207 12.73550763 -0.17174934 19.10400391 -0.21972656 C21.26684454 -0.2397439 23.42963173 -0.2669663 25.59228516 -0.30175781 C28.71530406 -0.35071247 31.8376026 -0.37306817 34.9609375 -0.390625 C36.39280899 -0.42159271 36.39280899 -0.42159271 37.85360718 -0.45318604 C44.50934879 -0.45537128 50.13623647 0.73459623 56 4 C59.78999661 8.68176052 59.54146942 14.21044238 59 20 C58.67 20.66 58.34 21.32 58 22 C57.34 22 56.68 22 56 22 C55.67 23.32 55.34 24.64 55 26 C53.23225581 26.53122363 51.46065917 27.04964073 49.6875 27.5625 C48.70136719 27.85253906 47.71523437 28.14257812 46.69921875 28.44140625 C44 29 44 29 41 28 C41.66 27.01 42.32 26.02 43 25 C45.07723484 17.72967806 44.02506192 11.08771672 42 4 C39.26750659 3.24722485 36.71899317 2.83358297 33.890625 2.68359375 C33.21032227 2.64548584 32.53001953 2.60737793 31.82910156 2.56811523 C30.97799805 2.52501221 30.12689453 2.48190918 29.25 2.4375 C26.5275 2.293125 23.805 2.14875 21 2 C21.33 11.24 21.66 20.48 22 30 C25.63 30.33 29.26 30.66 33 31 C33 31.33 33 31.66 33 32 C29.04 32 25.08 32 21 32 C21.33 43.55 21.66 55.1 22 67 C24.97 67.33 27.94 67.66 31 68 C31 68.66 31 69.32 31 70 C20.44 70 9.88 70 -1 70 C-1 69.01 -1 68.02 -1 67 C2.3 67 5.6 67 9 67 C8.67 45.55 8.34 24.1 8 2 C5.36 1.67 2.72 1.34 0 1 C0 0.67 0 0.34 0 0 Z " fill="#F6F8F9" transform="translate(136,37)"/>
<path d="M0 0 C10.56 0 21.12 0 32 0 C32.495 2.475 32.495 2.475 33 5 C30.03 5 27.06 5 24 5 C24 26.12 24 47.24 24 69 C26.97 69 29.94 69 33 69 C32.505 70.98 32.505 70.98 32 73 C21.44 73 10.88 73 0 73 C-0.33 71.68 -0.66 70.36 -1 69 C-0.505 68.505 -0.505 68.505 0 68 C2.97 68 5.94 68 9 68 C9 47.21 9 26.42 9 5 C6.03 5 3.06 5 0 5 C0 3.35 0 1.7 0 0 Z " fill="#F7F8F9" transform="translate(293,35)"/>
<path d="M0 0 C7.26 0 14.52 0 22 0 C22 0.33 22 0.66 22 1 C19.36 1 16.72 1 14 1 C14 22.78 14 44.56 14 67 C16.64 67 19.28 67 22 67 C22 67.66 22 68.32 22 69 C12.1 69 2.2 69 -8 69 C-8 68.34 -8 67.68 -8 67 C-5.36 67 -2.72 67 0 67 C0 66.21961365 0 65.43922729 0 64.63519287 C0 43.09012858 0 21.54506429 0 0 Z " fill="#F4F6F7" transform="translate(264,37)"/>
<path d="M0 0 C14.52 0 29.04 0 44 0 C44 1.32 44 2.64 44 4 C44.66 4 45.32 4 46 4 C47.4606285 6.64738916 48 7.89448334 48 11 C48.99 11 49.98 11 51 11 C51.0825 10.484375 51.165 9.96875 51.25 9.4375 C52.32140225 5.95544268 54.13523605 3.12799115 56 0 C57.98 0 59.96 0 62 0 C62 1.65 62 3.3 62 5 C60.68 5 59.36 5 58 5 C57.9175 5.515625 57.835 6.03125 57.75 6.5625 C57 9 57 9 55 11.9375 C51.87559929 17.09955335 52.17669077 23.12503179 52 29 C50.35 29 48.7 29 47 29 C46.98582031 28.09378906 46.97164063 27.18757813 46.95703125 26.25390625 C46.64408689 18.2611381 45.699241 12.55466088 41 6 C40.40832031 6.09539062 39.81664062 6.19078125 39.20703125 6.2890625 C38.41683594 6.39992187 37.62664062 6.51078125 36.8125 6.625 C36.03519531 6.74101562 35.25789063 6.85703125 34.45703125 6.9765625 C32 7 32 7 27 5 C27 12.92 27 20.84 27 29 C25.35 29 23.7 29 22 29 C22 21.08 22 13.16 22 5 C20.35 5.66 18.7 6.32 17 7 C14.6679198 7.07646165 12.33154122 7.09143299 10 7 C10 6.34 10 5.68 10 5 C9.01 5 8.02 5 7 5 C7 11.6 7 18.2 7 25 C7.66 25 8.32 25 9 25 C9 26.32 9 27.64 9 29 C6.03 29 3.06 29 0 29 C0 27.68 0 26.36 0 25 C0.99 25 1.98 25 3 25 C3 17.74 3 10.48 3 3 C2.01 3 1.02 3 0 3 C0 2.01 0 1.02 0 0 Z " fill="#879BAF" transform="translate(314,124)"/>
<path d="M0 0 C1.13787964 -0.00315216 2.27575928 -0.00630432 3.44812012 -0.009552 C4.6866272 -0.00752777 5.92513428 -0.00550354 7.20117188 -0.00341797 C8.46255981 -0.00437469 9.72394775 -0.00533142 11.02355957 -0.00631714 C13.69689325 -0.00699922 16.37013624 -0.00564076 19.04345703 -0.00097656 C22.47698878 0.00472073 25.91044237 0.00144152 29.34397125 -0.00454903 C32.6088743 -0.00902309 35.87376781 -0.0058943 39.13867188 -0.00341797 C40.37717896 -0.0054422 41.61568604 -0.00746643 42.89172363 -0.009552 C44.02960327 -0.00639984 45.16748291 -0.00324768 46.33984375 0 C47.34720581 0.00079559 48.35456787 0.00159119 49.39245605 0.00241089 C51.66992188 0.12939453 51.66992188 0.12939453 52.66992188 1.12939453 C52.75624062 2.47206866 52.77698661 3.81913775 52.76757812 5.16455078 C52.76435547 5.9734375 52.76113281 6.78232422 52.7578125 7.61572266 C52.74524414 8.89092773 52.74524414 8.89092773 52.73242188 10.19189453 C52.72791016 11.04589844 52.72339844 11.89990234 52.71875 12.77978516 C52.70692561 14.89635117 52.68898956 17.01288138 52.66992188 19.12939453 C50.73242188 18.36767578 50.73242188 18.36767578 48.66992188 17.12939453 C48.15056421 15.14934343 47.63665319 13.16691277 47.19335938 11.16845703 C46.32070144 7.7689985 45.4585612 6.32046829 42.66992188 4.12939453 C38.70992188 3.79939453 34.74992187 3.46939453 30.66992188 3.12939453 C30.66992188 24.57939453 30.66992188 46.02939453 30.66992188 68.12939453 C33.63992188 68.12939453 36.60992187 68.12939453 39.66992188 68.12939453 C39.66992188 69.11939453 39.66992188 70.10939453 39.66992188 71.12939453 C28.44992187 71.12939453 17.22992188 71.12939453 5.66992188 71.12939453 C5.99992187 69.80939453 6.32992188 68.48939453 6.66992188 67.12939453 C9.63992188 67.12939453 12.60992187 67.12939453 15.66992188 67.12939453 C15.66992188 46.00939453 15.66992188 24.88939453 15.66992188 3.12939453 C4.92477023 3.3234597 4.92477023 3.3234597 0.60742188 5.56689453 C-2.26797375 9.36983713 -3.25107275 13.53265617 -4.33007812 18.12939453 C-4.99007813 18.12939453 -5.65007812 18.12939453 -6.33007812 18.12939453 C-6.35692125 15.31683172 -6.37684 12.50452212 -6.39257812 9.69189453 C-6.40095703 8.88945313 -6.40933594 8.08701172 -6.41796875 7.26025391 C-6.42659243 5.21644232 -6.38235962 3.17255551 -6.33007812 1.12939453 C-4.61184722 -0.58883637 -2.34410064 0.00185132 0 0 Z M17.66992188 1.12939453 C16.36629592 2.20818761 16.36629592 2.20818761 16.54966736 4.79322815 C16.55188797 5.98125534 16.55410858 7.16928253 16.55639648 8.39331055 C16.55625046 9.0469458 16.55610443 9.70058105 16.55595398 10.37402344 C16.55665305 12.54381581 16.5644451 14.71352332 16.57226562 16.88330078 C16.57412983 18.38402764 16.57555372 19.8847551 16.57655334 21.38548279 C16.58037835 25.34257679 16.59020848 29.29963431 16.60125732 33.25671387 C16.61147182 37.29174302 16.61605105 41.32677806 16.62109375 45.36181641 C16.63183077 53.28436109 16.64942742 61.20686907 16.66992188 69.12939453 C20.95992188 69.12939453 25.24992187 69.12939453 29.66992188 69.12939453 C29.33992188 46.68939453 29.00992188 24.24939453 28.66992188 1.12939453 C25.03992188 1.12939453 21.40992188 1.12939453 17.66992188 1.12939453 Z " fill="#BAC6D1" transform="translate(335.330078125,35.87060546875)"/>
<path d="M0 0 C8.58 0 17.16 0 26 0 C26 1.98 26 3.96 26 6 C25.505 5.690625 25.01 5.38125 24.5 5.0625 C21.02013219 3.58355618 17.75971491 3.37597149 14 3 C14 6.3 14 9.6 14 13 C17.63 13 21.26 13 25 13 C25 14.32 25 15.64 25 17 C21.7 17 18.4 17 15 17 C15 19.31 15 21.62 15 24 C21.435 23.505 21.435 23.505 28 23 C28 24.98 28 26.96 28 29 C25.37472811 29.05382106 22.75055287 29.09358313 20.125 29.125 C19.37863281 29.14175781 18.63226563 29.15851563 17.86328125 29.17578125 C15.90805539 29.1933959 13.95257979 29.10320189 12 29 C10 27 10 27 9.77294922 24.75341797 C9.78342285 23.84221191 9.79389648 22.93100586 9.8046875 21.9921875 C9.81113281 21.00605469 9.81757813 20.01992187 9.82421875 19.00390625 C9.84097656 17.97136719 9.85773438 16.93882812 9.875 15.875 C9.88402344 14.83472656 9.89304688 13.79445312 9.90234375 12.72265625 C9.92596253 10.14820908 9.95889851 7.57421788 10 5 C7.06846143 5.09888441 7.06846143 5.09888441 4 6 C2.4178888 8.26635139 2.4178888 8.26635139 1.625 11.0625 C1.30789062 11.98160156 0.99078125 12.90070313 0.6640625 13.84765625 C0.44492188 14.55792969 0.22578125 15.26820313 0 16 C-0.66 16 -1.32 16 -2 16 C-1.95875 17.0725 -1.9175 18.145 -1.875 19.25 C-1.9885825 22.65747485 -2.21273364 24.20739631 -4 27 C-5.98 27 -7.96 27 -10 27 C-12.09350689 23.5980513 -12.17942163 20.94727588 -12 17 C-12.66 17 -13.32 17 -14 17 C-16.15294651 11.71169451 -18.27933894 6.44876003 -20 1 C-18.35 1 -16.7 1 -15 1 C-14.67 2.32 -14.34 3.64 -14 5 C-13.34 5 -12.68 5 -12 5 C-11.896875 5.969375 -11.79375 6.93875 -11.6875 7.9375 C-11.14635879 11.83689992 -9.95031136 15.38693349 -8.62109375 19.08203125 C-8 21 -8 21 -8 23 C-7.34 23 -6.68 23 -6 23 C-6.0825 22.21625 -6.165 21.4325 -6.25 20.625 C-5.90508489 15.62373094 -4.01353919 11.5484412 -2 7 C-1.34 7 -0.68 7 0 7 C0 4.69 0 2.38 0 0 Z " fill="#BCC8D3" transform="translate(235,124)"/>
<path d="M0 0 C14 0 14 0 19 1 C22.30817533 5.962263 22.45964101 11.1280861 22 17 C20.66176471 22.55882353 20.66176471 22.55882353 17 25 C15.09887695 25.22705078 15.09887695 25.22705078 12.98828125 25.1953125 C12.30548096 25.19031738 11.62268066 25.18532227 10.91918945 25.18017578 C10.05898193 25.16196777 9.19877441 25.14375977 8.3125 25.125 C4.1978125 25.063125 4.1978125 25.063125 0 25 C0 16.75 0 8.5 0 0 Z " fill="#1F456A" transform="translate(159,40)"/>
<path d="M0 0 C8.91 0 17.82 0 27 0 C27 0.99 27 1.98 27 3 C24.03 3 21.06 3 18 3 C18 2.67 18 2.34 18 2 C13.38 2 8.76 2 4 2 C4.33 3.65 4.66 5.3 5 7 C5.05796998 9.0549407 5.06002792 11.11183492 5.02172852 13.16723633 C4.99158409 14.99856865 4.99158409 14.99856865 4.96083069 16.86689758 C4.92027809 18.82963875 4.92027809 18.82963875 4.87890625 20.83203125 C4.85458366 22.19251177 4.83074119 23.55300094 4.80735779 24.91349792 C4.74472953 28.48263465 4.67560355 32.05161673 4.60510254 35.62060547 C4.53422623 39.26718137 4.46952502 42.91386634 4.40429688 46.56054688 C4.27555889 53.70714967 4.13995296 60.85360731 4 68 C1.36 68 -1.28 68 -4 68 C-4 68.66 -4 69.32 -4 70 C5.9 70 15.8 70 26 70 C26.33 69.34 26.66 68.68 27 68 C26.505 69.98 26.505 69.98 26 72 C15.44 72 4.88 72 -6 72 C-6.33 70.68 -6.66 69.36 -7 68 C-5 67 -5 67 3 67 C2.67 48.19 2.34 29.38 2 10 C1.34 13.3 0.68 16.6 0 20 C-0.63850788 22.34119555 -1.29343715 24.67843634 -2 27 C-2.66 27 -3.32 27 -4 27 C-3.95875 27.845625 -3.9175 28.69125 -3.875 29.5625 C-4.01535028 33.42213269 -4.82780164 36.33688013 -6 40 C-6.66 40 -7.32 40 -8 40 C-8.66 41.32 -9.32 42.64 -10 44 C-10.33 43.34 -10.66 42.68 -11 42 C-11.99 42.495 -11.99 42.495 -13 43 C-12.855625 42.34 -12.71125 41.68 -12.5625 41 C-11.92929066 37.90067407 -11.92929066 37.90067407 -11.6875 34.3125 C-11.12321604 29.46520829 -9.54247207 22.54247207 -6 19 C-5.76924918 17.65252916 -5.58846937 16.29622435 -5.4375 14.9375 C-5.293125 13.638125 -5.14875 12.33875 -5 11 C-4.34 11 -3.68 11 -3 11 C-3.061875 10.29875 -3.12375 9.5975 -3.1875 8.875 C-3 6 -3 6 0 0 Z " fill="#C3CDD7" transform="translate(260,36)"/>
<path d="M0 0 C4.12494151 -0.05784708 8.24977944 -0.09354407 12.375 -0.125 C13.550625 -0.14175781 14.72625 -0.15851562 15.9375 -0.17578125 C17.61972656 -0.18544922 17.61972656 -0.18544922 19.3359375 -0.1953125 C20.37282715 -0.20578613 21.4097168 -0.21625977 22.47802734 -0.22705078 C25 0 25 0 27 2 C27 2.99 27 3.98 27 5 C27.66 5 28.32 5 29 5 C29.19916016 6.21236328 29.19916016 6.21236328 29.40234375 7.44921875 C29.57894531 8.51785156 29.75554687 9.58648437 29.9375 10.6875 C30.11152344 11.74324219 30.28554687 12.79898438 30.46484375 13.88671875 C30.93167121 16.60249604 31.44422616 19.30124235 32 22 C28.85775348 19.45460478 28.25504009 17.00297888 27.375 13.125 C27.13523438 12.09632812 26.89546875 11.06765625 26.6484375 10.0078125 C26.07411295 7.34377694 25.53446357 4.67231787 25 2 C19.39 2 13.78 2 8 2 C8 24.11 8 46.22 8 69 C8.99 69 9.98 69 11 69 C11 47.88 11 26.76 11 5 C11.99 5 12.98 5 14 5 C14 6.65 14 8.3 14 10 C13.67 10 13.34 10 13 10 C12.67 29.14 12.34 48.28 12 68 C14.97 68 17.94 68 21 68 C21 68.99 21 69.98 21 71 C16.28605527 71.02485249 11.5721493 71.04293186 6.8581543 71.05493164 C5.25691055 71.05993805 3.65567133 71.06674515 2.05444336 71.07543945 C-0.25668458 71.08766764 -2.56775169 71.09326536 -4.87890625 71.09765625 C-5.58648575 71.10281754 -6.29406525 71.10797882 -7.02308655 71.11329651 C-11.46408171 71.11378966 -15.63302685 70.72076256 -20 70 C-20 69.67 -20 69.34 -20 69 C-15.71 69 -11.42 69 -7 69 C-7.33 68.01 -7.66 67.02 -8 66 C-3.05 66.33 1.9 66.66 7 67 C7 46.21 7 25.42 7 4 C4.36 4 1.72 4 -1 4 C-0.67 2.68 -0.34 1.36 0 0 Z " fill="#9AABBC" transform="translate(205,36)"/>
<path d="M0 0 C6.15234375 -0.09765625 6.15234375 -0.09765625 8 0 C9.61780157 1.61780157 9.22272147 3.45635518 9.31640625 5.69140625 C9.37924805 7.10776367 9.37924805 7.10776367 9.44335938 8.55273438 C9.48267578 9.54595703 9.52199219 10.53917969 9.5625 11.5625 C9.60568359 12.55958984 9.64886719 13.55667969 9.69335938 14.58398438 C9.79980298 17.0558415 9.90181928 19.5278031 10 22 C13.69541586 22.95024979 16.30458414 22.95024979 20 22 C19.99214478 21.05362671 19.99214478 21.05362671 19.98413086 20.08813477 C19.96342174 17.24626653 19.95035934 14.40441412 19.9375 11.5625 C19.92912109 10.56927734 19.92074219 9.57605469 19.91210938 8.55273438 C19.90727539 7.13637695 19.90727539 7.13637695 19.90234375 5.69140625 C19.89448853 4.37958374 19.89448853 4.37958374 19.88647461 3.04125977 C20 1 20 1 21 0 C22.99958364 -0.04080783 25.00045254 -0.04254356 27 0 C27 1.32 27 2.64 27 4 C26.67 4.33 26.34 4.66 26 5 C25.82975123 8.73790631 25.70274413 12.46949291 25.65820312 16.2109375 C25.47747182 21.37228727 24.91616526 24.26855952 21 28 C17.55067825 29.54624768 13.71592622 29.26076675 10 29 C7.68720389 27.84360194 5.82590172 26.82590172 4 25 C3.87958426 23.53581173 3.82052533 22.06645076 3.7890625 20.59765625 C3.76070312 19.70755859 3.73234375 18.81746094 3.703125 17.90039062 C3.65115461 16.01256604 3.60684962 14.12451445 3.5703125 12.23632812 C3.52390625 10.89924805 3.52390625 10.89924805 3.4765625 9.53515625 C3.45674316 8.714104 3.43692383 7.89305176 3.41650391 7.04711914 C3.16989176 4.60427294 3.16989176 4.60427294 0 3 C0 2.01 0 1.02 0 0 Z " fill="#AAB8C6" transform="translate(141,124)"/>
<path d="M0 0 C5 1 5 1 6.51171875 2.59375 C6.89972656 3.2228125 7.28773438 3.851875 7.6875 4.5 C9.35278187 7.27014951 9.35278187 7.27014951 12 9 C13.11330681 11.01786859 14.0420387 13.09195966 15 15.1875 C15.87144569 17.17201523 15.87144569 17.17201523 18 18 C18 12.06 18 6.12 18 0 C19.98 0 21.96 0 24 0 C23.67 0.99 23.34 1.98 23 3 C22.85110253 4.84466442 22.7520899 6.69357275 22.68359375 8.54296875 C22.64169922 9.61611328 22.59980469 10.68925781 22.55664062 11.79492188 C22.51732422 12.91447266 22.47800781 14.03402344 22.4375 15.1875 C22.39431641 16.31865234 22.35113281 17.44980469 22.30664062 18.61523438 C22.20050901 21.41003354 22.09845615 24.20492162 22 27 C16.45250155 26.5096134 16.45250155 26.5096134 14.390625 24.1875 C14.01421875 23.465625 13.6378125 22.74375 13.25 22 C11.73158294 18.89505604 11.73158294 18.89505604 9 17 C8.1484375 14.93359375 8.1484375 14.93359375 7.375 12.4375 C7.11460937 11.61121094 6.85421875 10.78492188 6.5859375 9.93359375 C6.39257812 9.29550781 6.19921875 8.65742188 6 8 C5.34 8 4.68 8 4 8 C4 14.27 4 20.54 4 27 C2.02 27.33 0.04 27.66 -2 28 C-2.33 26.68 -2.66 25.36 -3 24 C-2.01 24 -1.02 24 0 24 C0 16.08 0 8.16 0 0 Z " fill="#C0CBD5" transform="translate(174,125)"/>
<path d="M0 0 C10.56 0 21.12 0 32 0 C32.495 2.475 32.495 2.475 33 5 C30.03 5 27.06 5 24 5 C24 25.79 24 46.58 24 68 C23.67 68 23.34 68 23 68 C23 46.55 23 25.1 23 3 C18.71 3 14.42 3 10 3 C10 24.78 10 46.56 10 69 C7.03 69 4.06 69 1 69 C1 69.99 1 70.98 1 72 C11.23 72 21.46 72 32 72 C32 72.33 32 72.66 32 73 C21.44 73 10.88 73 0 73 C-0.33 71.68 -0.66 70.36 -1 69 C-0.505 68.505 -0.505 68.505 0 68 C2.97 68 5.94 68 9 68 C9 47.21 9 26.42 9 5 C6.03 5 3.06 5 0 5 C0 3.35 0 1.7 0 0 Z " fill="#788FA5" transform="translate(293,35)"/>
<path d="M0 0 C7.06576669 -0.07595253 14.13142844 -0.12855861 21.19750977 -0.16479492 C23.60217218 -0.17989816 26.00680698 -0.20038208 28.41137695 -0.22631836 C31.86416431 -0.26263351 35.31658804 -0.279711 38.76953125 -0.29296875 C39.84773636 -0.30845261 40.92594147 -0.32393646 42.03681946 -0.33988953 C43.03763046 -0.34011612 44.03844147 -0.34034271 45.06958008 -0.34057617 C45.95116287 -0.34723801 46.83274567 -0.35389984 47.74104309 -0.36076355 C50.44146632 0.07050376 51.31165959 0.90529413 53 3 C52.19353027 2.83701416 51.38706055 2.67402832 50.55615234 2.50610352 C46.3662127 1.90980083 42.32609752 1.87509675 38.1015625 1.90234375 C36.84912247 1.90446617 36.84912247 1.90446617 35.57138062 1.90663147 C32.92254958 1.91219826 30.2738052 1.92474453 27.625 1.9375 C25.82161581 1.9425193 24.01823029 1.94708145 22.21484375 1.95117188 C17.80986279 1.9621568 13.40494606 1.97939837 9 2 C9.33 2.33 9.66 2.66 10 3 C10.09409479 5.02494231 10.11743122 7.0531987 10.11352539 9.08032227 C10.11344986 10.38159561 10.11337433 11.68286896 10.11329651 13.02357483 C10.10818909 14.45451902 10.10297308 15.88546282 10.09765625 17.31640625 C10.09579203 18.7722926 10.09436815 20.22817957 10.09336853 21.68406677 C10.08954365 25.52279379 10.07971364 29.36148319 10.06866455 33.20019531 C10.05844978 37.11457816 10.05387077 41.02896706 10.04882812 44.94335938 C10.03809134 52.62892343 10.02101529 60.31445645 10 68 C6.7 68 3.4 68 0 68 C0 67.34 0 66.68 0 66 C2.31 66 4.62 66 7 66 C7 45.87 7 25.74 7 5 C4.69 5 2.38 5 0 5 C0 3.35 0 1.7 0 0 Z " fill="#335677" transform="translate(135,36)"/>
<path d="M0 0 C1.13787964 -0.00315216 2.27575928 -0.00630432 3.44812012 -0.009552 C4.6866272 -0.00752777 5.92513428 -0.00550354 7.20117188 -0.00341797 C8.46255981 -0.00437469 9.72394775 -0.00533142 11.02355957 -0.00631714 C13.69689325 -0.00699922 16.37013624 -0.00564076 19.04345703 -0.00097656 C22.47698878 0.00472073 25.91044237 0.00144152 29.34397125 -0.00454903 C32.6088743 -0.00902309 35.87376781 -0.0058943 39.13867188 -0.00341797 C40.37717896 -0.0054422 41.61568604 -0.00746643 42.89172363 -0.009552 C44.02960327 -0.00639984 45.16748291 -0.00324768 46.33984375 0 C47.34720581 0.00079559 48.35456787 0.00159119 49.39245605 0.00241089 C51.66992188 0.12939453 51.66992188 0.12939453 52.66992188 1.12939453 C52.75624062 2.47206866 52.77698661 3.81913775 52.76757812 5.16455078 C52.76435547 5.9734375 52.76113281 6.78232422 52.7578125 7.61572266 C52.74524414 8.89092773 52.74524414 8.89092773 52.73242188 10.19189453 C52.72791016 11.04589844 52.72339844 11.89990234 52.71875 12.77978516 C52.70692561 14.89635117 52.68898956 17.01288138 52.66992188 19.12939453 C50.71679688 18.38720703 50.71679688 18.38720703 48.66992188 17.12939453 C47.83106018 14.4514899 47.85225774 11.95560044 47.66992188 9.12939453 C48.32992187 9.45939453 48.98992187 9.78939453 49.66992188 10.12939453 C49.66992188 12.10939453 49.66992188 14.08939453 49.66992188 16.12939453 C50.32992187 16.12939453 50.98992187 16.12939453 51.66992188 16.12939453 C51.17492187 8.70439453 51.17492187 8.70439453 50.66992188 1.12939453 C34.33492188 1.62439453 34.33492188 1.62439453 17.66992188 2.12939453 C17.33992188 23.90939453 17.00992187 45.68939453 16.66992188 68.12939453 C13.36992187 68.12939453 10.06992187 68.12939453 6.66992188 68.12939453 C6.66992188 67.79939453 6.66992188 67.46939453 6.66992188 67.12939453 C9.63992188 67.12939453 12.60992187 67.12939453 15.66992188 67.12939453 C15.66992188 46.00939453 15.66992188 24.88939453 15.66992188 3.12939453 C4.92477023 3.3234597 4.92477023 3.3234597 0.60742188 5.56689453 C-2.26797375 9.36983713 -3.25107275 13.53265617 -4.33007812 18.12939453 C-4.99007813 18.12939453 -5.65007812 18.12939453 -6.33007812 18.12939453 C-6.35692125 15.31683172 -6.37684 12.50452212 -6.39257812 9.69189453 C-6.40095703 8.88945313 -6.40933594 8.08701172 -6.41796875 7.26025391 C-6.42659243 5.21644232 -6.38235962 3.17255551 -6.33007812 1.12939453 C-4.61184722 -0.58883637 -2.34410064 0.00185132 0 0 Z " fill="#99AABB" transform="translate(335.330078125,35.87060546875)"/>
<path d="M0 0 C1.77007714 -0.08114106 3.54122098 -0.13925505 5.3125 -0.1875 C6.29863281 -0.22230469 7.28476562 -0.25710937 8.30078125 -0.29296875 C11 0 11 0 12.85546875 1.26171875 C14 3 14 3 14 7 C10.125 6.125 10.125 6.125 9 5 C6.66702567 4.95907063 4.33294775 4.95758277 2 5 C2.42930551 7.42240798 2.42930551 7.42240798 4 10 C5.98991817 11.16781214 7.98282934 12.05565067 10.125 12.91015625 C12.48645079 14.28274952 13.04752046 15.4728181 14 18 C14.60478752 22.06071623 14.35805411 23.50089427 11.9375 26.875 C8.25541383 29.5386368 6.45883347 29.63697621 2 29 C-0.9375 27.75 -0.9375 27.75 -3 26 C-3 24.68 -3 23.36 -3 22 C0.63 22.33 4.26 22.66 8 23 C7.57548701 18.15860428 7.57548701 18.15860428 5.1875 16.48828125 C4.465625 16.10027344 3.74375 15.71226562 3 15.3125 C-0.91758918 13.16482165 -0.91758918 13.16482165 -2 11 C-2.2426639 6.63204981 -2.12232587 3.80844247 0 0 Z " fill="#C7D0D9" transform="translate(295,124)"/>
<path d="M0 0 C5.61 0 11.22 0 17 0 C17 1.65 17 3.3 17 5 C16.505 4.690625 16.01 4.38125 15.5 4.0625 C12.02013219 2.58355618 8.75971491 2.37597149 5 2 C5 5.3 5 8.6 5 12 C8.63 12 12.26 12 16 12 C16 13.32 16 14.64 16 16 C12.7 16 9.4 16 6 16 C6 18.31 6 20.62 6 23 C12.435 22.505 12.435 22.505 19 22 C19 23.98 19 25.96 19 28 C16.35409986 28.02684679 13.70846904 28.04676357 11.0625 28.0625 C10.30775391 28.07087891 9.55300781 28.07925781 8.77539062 28.08789062 C6.85005687 28.09652441 4.92464419 28.05224333 3 28 C2 27 2 27 1.88647461 24.59155273 C1.89171143 23.54942627 1.89694824 22.5072998 1.90234375 21.43359375 C1.90556641 20.30888672 1.90878906 19.18417969 1.91210938 18.02539062 C1.92048828 16.84138672 1.92886719 15.65738281 1.9375 14.4375 C1.94201172 13.24962891 1.94652344 12.06175781 1.95117188 10.83789062 C1.96300325 7.89187774 1.97948713 4.94596319 2 2 C1.34 2 0.68 2 0 2 C0 1.34 0 0.68 0 0 Z " fill="#F5F7F8" transform="translate(244,125)"/>
<path d="M0 0 C2.79192205 -0.05380578 5.5828141 -0.09357669 8.375 -0.125 C9.1690625 -0.14175781 9.963125 -0.15851562 10.78125 -0.17578125 C12.85492015 -0.19335473 14.92883241 -0.10335168 17 0 C17.66 0.66 18.32 1.32 19 2 C13.39 1.67 7.78 1.34 2 1 C2 9.25 2 17.5 2 26 C6.145625 25.7834375 6.145625 25.7834375 10.375 25.5625 C11.24431152 25.51939697 12.11362305 25.47629395 13.00927734 25.43188477 C17.13733776 25.29004058 17.13733776 25.29004058 21 24 C21 24.66 21 25.32 21 26 C22.6396875 25.7525 22.6396875 25.7525 24.3125 25.5 C28 25 28 25 31 25 C27.33708062 27.47785723 24.3890815 28.48964169 20 29 C20.99 29.66 21.98 30.32 23 31 C21.02 31 19.04 31 17 31 C16.67 32.32 16.34 33.64 16 35 C14.68 34.34 13.36 33.68 12 33 C12 32.34 12 31.68 12 31 C8.37 31 4.74 31 1 31 C1.33 41.89 1.66 52.78 2 64 C5.96 64.495 5.96 64.495 10 65 C10 65.33 10 65.66 10 66 C8.52093108 66.02689216 7.04172517 66.04634621 5.5625 66.0625 C4.32693359 66.07990234 4.32693359 66.07990234 3.06640625 66.09765625 C1 66 1 66 0 65 C-0.08856326 62.429761 -0.1152461 59.88656578 -0.09765625 57.31640625 C-0.0962413 56.54570297 -0.09482635 55.77499969 -0.09336853 54.98094177 C-0.08775378 52.50808902 -0.07520574 50.03532552 -0.0625 47.5625 C-0.05748629 45.89778777 -0.05292316 44.23307412 -0.04882812 42.56835938 C-0.03757155 38.37887511 -0.01941636 34.18945363 0 30 C0 29.34 0 28.68 0 28 C0 18.66666667 0 9.33333333 0 0 Z " fill="#ACBAC7" transform="translate(157,39)"/>
<path d="M0 0 C1.98 0 3.96 0 6 0 C6 1.65 6 3.3 6 5 C4.68 5 3.36 5 2 5 C1.9175 5.515625 1.835 6.03125 1.75 6.5625 C1 9 1 9 -1 11.9375 C-4.12440071 17.09955335 -3.82330923 23.12503179 -4 29 C-5.65 29 -7.3 29 -9 29 C-9.01417969 28.09378906 -9.02835937 27.18757813 -9.04296875 26.25390625 C-9.37821387 17.69156464 -10.28741457 10.56877414 -16.6640625 4.38671875 C-18 3 -18 3 -18 1 C-16.35 1 -14.7 1 -13 1 C-12.67 1.99 -12.34 2.98 -12 4 C-11.34 4 -10.68 4 -10 4 C-8.5393715 6.64738916 -8 7.89448334 -8 11 C-7.01 11 -6.02 11 -5 11 C-4.9175 10.484375 -4.835 9.96875 -4.75 9.4375 C-3.67859775 5.95544268 -1.86476395 3.12799115 0 0 Z " fill="#ABBAC7" transform="translate(370,124)"/>
<path d="M0 0 C2.60444348 -0.05394705 5.20776998 -0.09364469 7.8125 -0.125 C8.55048828 -0.14175781 9.28847656 -0.15851563 10.04882812 -0.17578125 C13.91246426 -0.21074628 15.70903668 -0.19397555 19 2 C19.29296875 4.3828125 19.29296875 4.3828125 19.1875 7.125 C19.16042969 8.03507813 19.13335937 8.94515625 19.10546875 9.8828125 C19.07066406 10.58148438 19.03585937 11.28015625 19 12 C18.01 12 17.02 12 16 12 C15.896875 10.88625 15.79375 9.7725 15.6875 8.625 C15.460625 7.42875 15.23375 6.2325 15 5 C11.55549263 2.70366176 9.06187717 2.45983515 5 2 C5.33 5.3 5.66 8.6 6 12 C8.97 12.33 11.94 12.66 15 13 C14.67 14.65 14.34 16.3 14 18 C9.545 17.01 9.545 17.01 5 16 C5 19.63 5 23.26 5 27 C4.01 27 3.02 27 2 27 C1.97494385 26.32420898 1.9498877 25.64841797 1.92407227 24.95214844 C1.80789258 21.8845832 1.68526563 18.81730842 1.5625 15.75 C1.52318359 14.68652344 1.48386719 13.62304688 1.44335938 12.52734375 C1.40146484 11.50253906 1.35957031 10.47773438 1.31640625 9.421875 C1.27974854 8.47924805 1.24309082 7.53662109 1.20532227 6.56542969 C1.02060772 4.25748623 0.64138388 2.21859476 0 0 Z " fill="#E5E9ED" transform="translate(267,125)"/>
<path d="M0 0 C2.35953094 2.35953094 2.49141413 3.77895617 3 7 C2.67 7 2.34 7 2 7 C1.67 23.83 1.34 40.66 1 58 C3.64 58 6.28 58 9 58 C10 59 10 59 10.0625 62.0625 C10.041875 63.031875 10.02125 64.00125 10 65 C4.84050889 65.04960315 -0.318842 65.08581559 -5.47851562 65.10986328 C-7.23212097 65.11989313 -8.9857097 65.13352029 -10.73925781 65.15087891 C-13.26631785 65.1752603 -15.7931559 65.1865134 -18.3203125 65.1953125 C-19.48785568 65.21079636 -19.48785568 65.21079636 -20.6789856 65.22659302 C-25.15712833 65.22750679 -28.82734462 64.83840355 -33 63 C-34.375 60.875 -34.375 60.875 -35 59 C-34.01 59.33 -33.02 59.66 -32 60 C-32 60.66 -32 61.32 -32 62 C-11.705 62.495 -11.705 62.495 9 63 C9 62.01 9 61.02 9 60 C6.03 60 3.06 60 0 60 C0 40.2 0 20.4 0 0 Z " fill="#426281" transform="translate(217,44)"/>
<path d="M0 0 C6.2746904 -0.36200137 6.2746904 -0.36200137 9.16796875 1.08203125 C11.79585796 3.83319032 11.7182747 6.13204447 12.0625 9.875 C12.53084181 14.83205606 13.31738239 17.82703927 16 22 C16 22.99 16 23.98 16 25 C13.5625 24.25 13.5625 24.25 11 23 C10.1875 20.875 10.1875 20.875 10 19 C9.34 19 8.68 19 8 19 C7.34 17.68 6.68 16.36 6 15 C6.66 15 7.32 15 8 15 C8.33 14.01 8.66 13.02 9 12 C7.700625 11.855625 6.40125 11.71125 5.0625 11.5625 C1.125 11.125 1.125 11.125 0 10 C-0.07205511 8.31391034 -0.08386068 6.62499341 -0.0625 4.9375 C-0.05347656 4.01839844 -0.04445313 3.09929687 -0.03515625 2.15234375 C-0.02355469 1.44207031 -0.01195312 0.73179688 0 0 Z " fill="#C3CDD7" transform="translate(272,127)"/>
<path d="M0 0 C0.99 0 1.98 0 3 0 C3 1.65 3 3.3 3 5 C2.67 5 2.34 5 2 5 C1.67 24.14 1.34 43.28 1 63 C3.97 63 6.94 63 10 63 C10 63.99 10 64.98 10 66 C5.28605527 66.02485249 0.5721493 66.04293186 -4.1418457 66.05493164 C-5.74308945 66.05993805 -7.34432867 66.06674515 -8.94555664 66.07543945 C-11.25668458 66.08766764 -13.56775169 66.09326536 -15.87890625 66.09765625 C-16.58648575 66.10281754 -17.29406525 66.10797882 -18.02308655 66.11329651 C-22.46408171 66.11378966 -26.63302685 65.72076256 -31 65 C-31 64.67 -31 64.34 -31 64 C-6.84362681 61.71879106 -6.84362681 61.71879106 0 64 C0 42.88 0 21.76 0 0 Z " fill="#D1D8E0" transform="translate(216,41)"/>
<path d="M0 0 C3.63 0 7.26 0 11 0 C11 0.66 11 1.32 11 2 C8.03 2 5.06 2 2 2 C2 12.23 2 22.46 2 33 C4.64 33 7.28 33 10 33 C10 34.98 10 36.96 10 39 C-1.22 39 -12.44 39 -24 39 C-24 37.35 -24 35.7 -24 34 C-23.67 34.99 -23.34 35.98 -23 37 C-12.44 37 -1.88 37 9 37 C9 36.01 9 35.02 9 34 C7.700625 34.020625 6.40125 34.04125 5.0625 34.0625 C3.70834367 34.08399454 2.35243917 34.07148199 1 34 C0 33 0 33 -0.11352539 29.85717773 C-0.11336633 28.46597303 -0.10767506 27.07476239 -0.09765625 25.68359375 C-0.0962413 24.95253922 -0.09482635 24.22148468 -0.09336853 23.46827698 C-0.08775408 21.12464368 -0.07519922 18.78110461 -0.0625 16.4375 C-0.05748686 14.85221492 -0.05292363 13.26692834 -0.04882812 11.68164062 C-0.03777997 7.7877239 -0.02050572 3.89387795 0 0 Z " fill="#55728E" transform="translate(158,70)"/>
<path d="M0 0 C6.27 0 12.54 0 19 0 C19 0.33 19 0.66 19 1 C13.39 1 7.78 1 2 1 C2 6.94 2 12.88 2 19 C-2.29 19 -6.58 19 -11 19 C-11 27.25 -11 35.5 -11 44 C-11.99 44 -12.98 44 -14 44 C-14.02886537 39.68751391 -14.04675255 35.37505238 -14.0625 31.0625 C-14.07087891 29.83080078 -14.07925781 28.59910156 -14.08789062 27.33007812 C-14.09111328 26.16025391 -14.09433594 24.99042969 -14.09765625 23.78515625 C-14.10289307 22.70113525 -14.10812988 21.61711426 -14.11352539 20.50024414 C-14 18 -14 18 -13 17 C-8.66469082 16.85606543 -4.33842269 16.95787939 0 17 C0 11.39 0 5.78 0 0 Z " fill="#65314D" transform="translate(48,40)"/>
<path d="M0 0 C10.56 0 21.12 0 32 0 C32 1.32 32 2.64 32 4 C29.03 4 26.06 4 23 4 C23 24.79 23 45.58 23 67 C22.67 67 22.34 67 22 67 C22 45.55 22 24.1 22 2 C11.11 2.495 11.11 2.495 0 3 C0 2.01 0 1.02 0 0 Z " fill="#B0BDCA" transform="translate(294,36)"/>
<path d="M0 0 C7.59 0 15.18 0 23 0 C23 1.65 23 3.3 23 5 C19.7 4.34 16.4 3.68 13 3 C13 10.92 13 18.84 13 27 C12.01 27 11.02 27 10 27 C10 18.75 10 10.5 10 2 C7.69 2.33 5.38 2.66 3 3 C2.67 3.66 2.34 4.32 2 5 C1.34 5 0.68 5 0 5 C0 3.35 0 1.7 0 0 Z " fill="#E0E5EA" transform="translate(327,125)"/>
<path d="M0 0 C0.66 0.33 1.32 0.66 2 1 C2 20.8 2 40.6 2 61 C-0.64 61 -3.28 61 -6 61 C-6 61.66 -6 62.32 -6 63 C3.9 63 13.8 63 24 63 C24.495 62.01 24.495 62.01 25 61 C24.67 62.32 24.34 63.64 24 65 C13.44 65 2.88 65 -8 65 C-8.33 63.68 -8.66 62.36 -9 61 C-7 60 -7 60 1 60 C0.67 40.2 0.34 20.4 0 0 Z " fill="#7990A6" transform="translate(262,43)"/>
<path d="M0 0 C7.06576669 -0.07595253 14.13142844 -0.12855861 21.19750977 -0.16479492 C23.60217218 -0.17989816 26.00680698 -0.20038208 28.41137695 -0.22631836 C31.86416431 -0.26263351 35.31658804 -0.279711 38.76953125 -0.29296875 C39.84773636 -0.30845261 40.92594147 -0.32393646 42.03681946 -0.33988953 C43.03763046 -0.34011612 44.03844147 -0.34034271 45.06958008 -0.34057617 C45.95116287 -0.34723801 46.83274567 -0.35389984 47.74104309 -0.36076355 C50.44146632 0.07050376 51.31165959 0.90529413 53 3 C52.19353027 2.83701416 51.38706055 2.67402832 50.55615234 2.50610352 C46.3662127 1.90980083 42.32609752 1.87509675 38.1015625 1.90234375 C36.84912247 1.90446617 36.84912247 1.90446617 35.57138062 1.90663147 C32.92254958 1.91219826 30.2738052 1.92474453 27.625 1.9375 C25.82161581 1.9425193 24.01823029 1.94708145 22.21484375 1.95117188 C17.80986279 1.9621568 13.40494606 1.97939837 9 2 C9.33 2.33 9.66 2.66 10 3 C10.09409479 5.02494231 10.11743122 7.0531987 10.11352539 9.08032227 C10.11344986 10.38159561 10.11337433 11.68286896 10.11329651 13.02357483 C10.10818909 14.45451902 10.10297308 15.88546282 10.09765625 17.31640625 C10.09579203 18.7722926 10.09436815 20.22817957 10.09336853 21.68406677 C10.08954365 25.52279379 10.07971364 29.36148319 10.06866455 33.20019531 C10.05844978 37.11457816 10.05387077 41.02896706 10.04882812 44.94335938 C10.03809134 52.62892343 10.02101529 60.31445645 10 68 C9.67 68 9.34 68 9 68 C8.67 47.21 8.34 26.42 8 5 C5.36 4.67 2.72 4.34 0 4 C0 2.68 0 1.36 0 0 Z " fill="#7C92A8" transform="translate(135,36)"/>
<path d="M0 0 C7.67536627 -0.02312821 15.35072896 -0.04091753 23.02612209 -0.05181217 C26.58977422 -0.05703995 30.15340257 -0.06413569 33.71704102 -0.07543945 C37.81006097 -0.08834176 41.9030558 -0.09322906 45.99609375 -0.09765625 C47.92418129 -0.10539818 47.92418129 -0.10539818 49.89122009 -0.11329651 C51.66294334 -0.11340981 51.66294334 -0.11340981 53.47045898 -0.11352539 C55.03932106 -0.11685631 55.03932106 -0.11685631 56.63987732 -0.12025452 C59 0 59 0 60 1 C60.08669432 2.4887186 60.10703494 3.981445 60.09765625 5.47265625 C60.09443359 6.37177734 60.09121094 7.27089844 60.08789062 8.19726562 C60.07532227 9.61555664 60.07532227 9.61555664 60.0625 11.0625 C60.05798828 12.01189453 60.05347656 12.96128906 60.04882812 13.93945312 C60.0370011 16.29303065 60.02052025 18.64648477 60 21 C59.67 21 59.34 21 59 21 C58.505 12.09 58.505 12.09 58 3 C38.86 3 19.72 3 0 3 C0 2.01 0 1.02 0 0 Z " fill="#57748F" transform="translate(329,34)"/>
<path d="M0 0 C2.64 0 5.28 0 8 0 C8 0.99 8 1.98 8 3 C7.34 3 6.68 3 6 3 C6.13923538 6.25031784 6.28754185 9.50016061 6.4375 12.75 C6.47681641 13.67039063 6.51613281 14.59078125 6.55664062 15.5390625 C6.59853516 16.42851562 6.64042969 17.31796875 6.68359375 18.234375 C6.72025146 19.05131836 6.75690918 19.86826172 6.79467773 20.70996094 C6.96842533 23.31267611 6.96842533 23.31267611 8 27 C5.03 27 2.06 27 -1 27 C-1 26.01 -1 25.02 -1 24 C-0.01 24 0.98 24 2 24 C2 16.74 2 9.48 2 2 C1.34 2 0.68 2 0 2 C0 1.34 0 0.68 0 0 Z " fill="#BFCAD4" transform="translate(204,125)"/>
<path d="M0 0 C1.98 0 3.96 0 6 0 C5.67 0.99 5.34 1.98 5 3 C4.85110253 4.84466442 4.7520899 6.69357275 4.68359375 8.54296875 C4.64169922 9.61611328 4.59980469 10.68925781 4.55664062 11.79492188 C4.49766602 13.47424805 4.49766602 13.47424805 4.4375 15.1875 C4.39431641 16.31865234 4.35113281 17.44980469 4.30664062 18.61523438 C4.20050901 21.41003354 4.09845615 24.20492162 4 27 C2.68 27 1.36 27 0 27 C-0.99 24.69 -1.98 22.38 -3 20 C-2.01 20 -1.02 20 0 20 C0 13.4 0 6.8 0 0 Z " fill="#D7DEE4" transform="translate(192,125)"/>
<path d="M0 0 C1.65 0 3.3 0 5 0 C5.33 1.32 5.66 2.64 6 4 C6.66 4 7.32 4 8 4 C8.103125 4.969375 8.20625 5.93875 8.3125 6.9375 C8.85364121 10.83689992 10.04968864 14.38693349 11.37890625 18.08203125 C12 20 12 20 12 22 C12.99 22 13.98 22 15 22 C15 23.32 15 24.64 15 26 C13.35 26 11.7 26 10 26 C7.90649311 22.5980513 7.82057837 19.94727588 8 16 C7.34 16 6.68 16 6 16 C3.84705349 10.71169451 1.72066106 5.44876003 0 0 Z " fill="#ECEFF2" transform="translate(215,125)"/>
<path d="M0 0 C2.31 0 4.62 0 7 0 C6.67 0.99 6.34 1.98 6 3 C5.85284801 4.62567079 5.75278133 6.25586857 5.68359375 7.88671875 C5.64169922 8.82451172 5.59980469 9.76230469 5.55664062 10.72851562 C5.49766602 12.19321289 5.49766602 12.19321289 5.4375 13.6875 C5.39431641 14.67556641 5.35113281 15.66363281 5.30664062 16.68164062 C5.20058346 19.12095546 5.09852286 21.56037113 5 24 C5.99 24 6.98 24 8 24 C8 25.32 8 26.64 8 28 C5.03 28 2.06 28 -1 28 C-1 26.68 -1 25.36 -1 24 C-0.01 24 0.98 24 2 24 C2 16.74 2 9.48 2 2 C1.34 2 0.68 2 0 2 C0 1.34 0 0.68 0 0 Z " fill="#E2E7EC" transform="translate(315,125)"/>
<path d="M0 0 C1.65 0 3.3 0 5 0 C5.33 0.99 5.66 1.98 6 3 C6.66 3 7.32 3 8 3 C9.76462683 6.08809695 10 7.23312136 10 11 C11.65 11.33 13.3 11.66 15 12 C14.67 12.66 14.34 13.32 14 14 C13.77049681 16.204364 13.58924067 18.41392173 13.4375 20.625 C13.35371094 21.81351563 13.26992188 23.00203125 13.18359375 24.2265625 C13.12300781 25.14179688 13.06242187 26.05703125 13 27 C12.01 27 11.02 27 10 27 C10 22.38 10 17.76 10 13 C9.34 13 8.68 13 8 13 C6.30859375 10.91796875 6.30859375 10.91796875 4.4375 8.1875 C3.81746094 7.29417969 3.19742187 6.40085938 2.55859375 5.48046875 C1 3 1 3 0 0 Z " fill="#D4DCE2" transform="translate(352,125)"/>
<path d="M0 0 C0.33 1.32 0.66 2.64 1 4 C-2.3 4 -5.6 4 -9 4 C-9 6.31 -9 8.62 -9 11 C-2.565 10.505 -2.565 10.505 4 10 C4 11.98 4 13.96 4 16 C-1.28 16 -6.56 16 -12 16 C-12.33 15.34 -12.66 14.68 -13 14 C-11.68 13.67 -10.36 13.34 -9 13 C-9.33 12.67 -9.66 12.34 -10 12 C-10.14257189 8.66381769 -10.04228157 5.34024394 -10 2 C-6.7 2 -3.4 2 0 2 C0 1.34 0 0.68 0 0 Z " fill="#98AABA" transform="translate(259,137)"/>
<path d="M0 0 C1.65 0 3.3 0 5 0 C6.11471105 2.22942211 6.164408 3.55394312 6.24609375 6.02734375 C6.27896484 6.81947266 6.31183594 7.61160156 6.34570312 8.42773438 C6.40675329 10.09687197 6.46406347 11.76615069 6.51757812 13.43554688 C6.55173828 14.22896484 6.58589844 15.02238281 6.62109375 15.83984375 C6.6461499 16.56550537 6.67120605 17.29116699 6.69702148 18.03881836 C6.90828501 20.31868682 6.90828501 20.31868682 9 23 C11.20725073 23.36362818 11.20725073 23.36362818 13.625 23.1875 C14.44226563 23.16042969 15.25953125 23.13335937 16.1015625 23.10546875 C17.04128906 23.05326172 17.04128906 23.05326172 18 23 C17.67 23.66 17.34 24.32 17 25 C14.85546875 25.5546875 14.85546875 25.5546875 12.1875 25.875 C11.31480469 25.99617188 10.44210938 26.11734375 9.54296875 26.2421875 C7 26 7 26 4.71484375 24.5703125 C2.20906147 20.81449305 2.40327025 17.42429486 2.375 13 C2.3493719 11.39568083 2.31578641 9.79146489 2.2734375 8.1875 C2.26747559 7.47980469 2.26151367 6.77210938 2.25537109 6.04296875 C1.96106571 3.68852565 1.16104093 2.05330636 0 0 Z " fill="#D5DCE3" transform="translate(142,125)"/>
<path d="M0 0 C1.65 0.33 3.3 0.66 5 1 C5.33 2.65 5.66 4.3 6 6 C5.01 6.33 4.02 6.66 3 7 C3 13.27 3 19.54 3 26 C1.35 26 -0.3 26 -2 26 C-2 25.34 -2 24.68 -2 24 C-1.34 24 -0.68 24 0 24 C0 16.08 0 8.16 0 0 Z " fill="#E3E8EC" transform="translate(174,125)"/>
<path d="M0 0 C3.5 0.25 3.5 0.25 5.5 2.25 C5.17 3.9 4.84 5.55 4.5 7.25 C-7.05 7.25 -18.6 7.25 -30.5 7.25 C-30.5 6.59 -30.5 5.93 -30.5 5.25 C-19.28 5.25 -8.06 5.25 3.5 5.25 C3.5 4.26 3.5 3.27 3.5 2.25 C0.53 2.25 -2.44 2.25 -5.5 2.25 C-3.5 0.25 -3.5 0.25 0 0 Z " fill="#476784" transform="translate(371.5,101.75)"/>
<path d="M0 0 C2.97 0 5.94 0 9 0 C8.401875 0.94875 7.80375 1.8975 7.1875 2.875 C4.61734424 7.32932689 3.31333726 12.05508623 2 17 C1.34 17 0.68 17 0 17 C0 11.39 0 5.78 0 0 Z " fill="#ECEFF2" transform="translate(329,37)"/>
<path d="M0 0 C5.28 0 10.56 0 16 0 C16.65984723 3.95908338 17.12125692 6.99704338 17.0625 10.875 C17.05347656 11.65617187 17.04445313 12.43734375 17.03515625 13.2421875 C17.02355469 13.82226562 17.01195312 14.40234375 17 15 C16.34 15 15.68 15 15 15 C14.938125 14.113125 14.87625 13.22625 14.8125 12.3125 C13.80946908 8.22322009 12.12142145 6.7407603 9 4 C8.34 3.34 7.68 2.68 7 2 C4.67724823 1.59952556 2.34260643 1.2602896 0 1 C0 0.67 0 0.34 0 0 Z " fill="#F2F4F6" transform="translate(370,37)"/>
<path d="M0 0 C8.58 0 17.16 0 26 0 C26 0.33 26 0.66 26 1 C20.39 1 14.78 1 9 1 C9 1.66 9 2.32 9 3 C9.66 3 10.32 3 11 3 C11 10.92 11 18.84 11 27 C10.67 27 10.34 27 10 27 C10 19.74 10 12.48 10 5 C8.02 5 6.04 5 4 5 C4.33 3.68 4.66 2.36 5 1 C3.68 1 2.36 1 1 1 C0.67 1.66 0.34 2.32 0 3 C0 2.01 0 1.02 0 0 Z " fill="#8197AB" transform="translate(235,124)"/>
<path d="M0 0 C1 2 1 2 0.51171875 3.8828125 C0.23972656 4.62273438 -0.03226563 5.36265625 -0.3125 6.125 C-1.81539187 10.37859763 -2.96255884 14.61082587 -4 19 C-3.01 19 -2.02 19 -1 19 C-1.061875 17.6696875 -1.061875 17.6696875 -1.125 16.3125 C-1.00102754 13.02722987 -0.38612096 10.94550705 1 8 C1.33 8 1.66 8 2 8 C2.23509196 12.81938524 1.45184478 16.46298506 0 21 C-0.66 21 -1.32 21 -2 21 C-2.66 22.32 -3.32 23.64 -4 25 C-4.33 24.34 -4.66 23.68 -5 23 C-5.66 23.33 -6.32 23.66 -7 24 C-6.855625 23.34 -6.71125 22.68 -6.5625 22 C-5.92929066 18.90067407 -5.92929066 18.90067407 -5.6875 15.3125 C-5.12321604 10.46520829 -3.54247207 3.54247207 0 0 Z " fill="#C7D0DA" transform="translate(254,55)"/>
<path d="M0 0 C0.99 0 1.98 0 3 0 C3 1.65 3 3.3 3 5 C2.67 5 2.34 5 2 5 C1.67 24.14 1.34 43.28 1 63 C0.67 63 0.34 63 0 63 C0 42.21 0 21.42 0 0 Z " fill="#A6B5C3" transform="translate(216,41)"/>
<path d="M0 0 C6.15234375 -0.09765625 6.15234375 -0.09765625 8 0 C9.61780157 1.61780157 9.22272147 3.45635518 9.31640625 5.69140625 C9.37924805 7.10776367 9.37924805 7.10776367 9.44335938 8.55273438 C9.48267578 9.54595703 9.52199219 10.53917969 9.5625 11.5625 C9.60568359 12.55958984 9.64886719 13.55667969 9.69335938 14.58398438 C9.79980298 17.0558415 9.90181928 19.5278031 10 22 C13.73201925 22.84676067 16.26940301 22.95929637 20 22 C18.9375 23.5 18.9375 23.5 17 25 C13.5 25.4375 13.5 25.4375 10 25 C7.26634704 22.19710557 6.61195698 20.09305766 6.48828125 16.234375 C6.45283203 15.34492188 6.41738281 14.45546875 6.38085938 13.5390625 C6.35830078 12.61867187 6.33574219 11.69828125 6.3125 10.75 C6.27833984 9.81414062 6.24417969 8.87828125 6.20898438 7.9140625 C6.12667838 5.60949467 6.0574737 3.30529881 6 1 C4.35 1 2.7 1 1 1 C0.67 1.66 0.34 2.32 0 3 C0 2.01 0 1.02 0 0 Z " fill="#6A839C" transform="translate(141,124)"/>
<path d="M0 0 C7.06576669 -0.07595253 14.13142844 -0.12855861 21.19750977 -0.16479492 C23.60217218 -0.17989816 26.00680698 -0.20038208 28.41137695 -0.22631836 C31.86416431 -0.26263351 35.31658804 -0.279711 38.76953125 -0.29296875 C39.84773636 -0.30845261 40.92594147 -0.32393646 42.03681946 -0.33988953 C43.03763046 -0.34011612 44.03844147 -0.34034271 45.06958008 -0.34057617 C45.95116287 -0.34723801 46.83274567 -0.35389984 47.74104309 -0.36076355 C50.44146632 0.07050376 51.31165959 0.90529413 53 3 C52.19353027 2.83701416 51.38706055 2.67402832 50.55615234 2.50610352 C46.3662127 1.90980083 42.32609752 1.87509675 38.1015625 1.90234375 C36.84912247 1.90446617 36.84912247 1.90446617 35.57138062 1.90663147 C32.92254958 1.91219826 30.2738052 1.92474453 27.625 1.9375 C25.82161581 1.9425193 24.01823029 1.94708145 22.21484375 1.95117188 C17.80986279 1.9621568 13.40494606 1.97939837 9 2 C9 2.33 9 2.66 9 3 C6.03 3 3.06 3 0 3 C0 2.01 0 1.02 0 0 Z " fill="#A6B5C3" transform="translate(135,36)"/>
<path d="M0 0 C1.32 0.66 2.64 1.32 4 2 C3.33333333 5.33333333 2.66666667 8.66666667 2 12 C-2.9053984 12.28855285 -6.1554435 12.26204794 -10 9 C-10 7.68 -10 6.36 -10 5 C-6.37 5.33 -2.74 5.66 1 6 C0.67 4.02 0.34 2.04 0 0 Z " fill="#C3CDD7" transform="translate(302,141)"/>
<path d="M0 0 C2.64 0 5.28 0 8 0 C8 0.66 8 1.32 8 2 C7.01 2 6.02 2 5 2 C5 9.26 5 16.52 5 24 C4.34 23.67 3.68 23.34 3 23 C2.67 16.07 2.34 9.14 2 2 C1.34 2 0.68 2 0 2 C0 1.34 0 0.68 0 0 Z " fill="#F1F3F6" transform="translate(204,125)"/>
<path d="M0 0 C2.62655933 0.35494045 4.57968261 0.72461964 6.8125 2.1875 C8.59006563 4.90062649 8.38851935 6.82709196 8 10 C6.9375 12.375 6.9375 12.375 5 14 C1.3125 14.25 1.3125 14.25 -2 14 C-2.33 13.01 -2.66 12.02 -3 11 C-0.69 10.34 1.62 9.68 4 9 C3.46930939 5.17902761 2.50298434 2.93828597 0 0 Z " fill="#D9E0E6" transform="translate(301,138)"/>
<path d="M0 0 C1.57398723 4.72196168 -0.24935637 9.14546867 -2.0625 13.625 C-3.15446137 16.39130214 -3.59007521 19.06220567 -4 22 C-4.99 22 -5.98 22 -7 22 C-6.60293233 15.24984963 -4.926154 4.926154 0 0 Z " fill="#EFF2F4" transform="translate(257,52)"/>
<path d="M0 0 C2.81256281 -0.02684312 5.62487241 -0.04676188 8.4375 -0.0625 C9.23994141 -0.07087891 10.04238281 -0.07925781 10.86914062 -0.08789062 C12.91295221 -0.0965143 14.95683902 -0.0522815 17 0 C18 1 18 1 18.11352539 2.76586914 C18.10828857 3.51473389 18.10305176 4.26359863 18.09765625 5.03515625 C18.09443359 5.84404297 18.09121094 6.65292969 18.08789062 7.48632812 C18.07951172 8.33646484 18.07113281 9.18660156 18.0625 10.0625 C18.05798828 10.91650391 18.05347656 11.77050781 18.04882812 12.65039062 C18.03700373 14.76695663 18.01906769 16.88348685 18 19 C16.046875 18.2578125 16.046875 18.2578125 14 17 C13.16113831 14.32209537 13.18233586 11.8262059 13 9 C13.66 9.33 14.32 9.66 15 10 C15 11.98 15 13.96 15 16 C15.66 16 16.32 16 17 16 C16.67 11.05 16.34 6.1 16 1 C10.72 1 5.44 1 0 1 C0 0.67 0 0.34 0 0 Z " fill="#B0BECB" transform="translate(370,36)"/>
<path d="M0 0 C1.231394 2.46278801 1.07159196 4.2795055 1 7 C1.66 6.67 2.32 6.34 3 6 C2.52013969 11.56890517 1.70084819 16.67067568 0 22 C-0.66 22 -1.32 22 -2 22 C-1.67 18.7 -1.34 15.4 -1 12 C-1.66 12.66 -2.32 13.32 -3 14 C-3 11.36 -3 8.72 -3 6 C-2.34 6 -1.68 6 -1 6 C-1.0309375 4.7934375 -1.0309375 4.7934375 -1.0625 3.5625 C-1 1 -1 1 0 0 Z " fill="#A6B5C4" transform="translate(258,41)"/>
<path d="M0 0 C2.3872206 3.58083091 3.1257166 5.1425103 3.09765625 9.3515625 C3.09443359 10.20234375 3.09121094 11.053125 3.08789062 11.9296875 C3.07951172 12.81914063 3.07113281 13.70859375 3.0625 14.625 C3.05798828 15.5221875 3.05347656 16.419375 3.04882812 17.34375 C3.03702591 19.56256648 3.02056155 21.78125018 3 24 C2.34 24 1.68 24 1 24 C1 25.65 1 27.3 1 29 C0.34 29 -0.32 29 -1 29 C-1.12375 29.639375 -1.2475 30.27875 -1.375 30.9375 C-1.58125 31.618125 -1.7875 32.29875 -2 33 C-2.99 33.495 -2.99 33.495 -4 34 C-3.566875 32.7315625 -3.566875 32.7315625 -3.125 31.4375 C-1.99306812 27.97881927 -0.97394855 24.50621479 0 21 C0.18175781 20.36964844 0.36351563 19.73929688 0.55078125 19.08984375 C1.88765137 12.87049147 1.07941697 6.20664756 0 0 Z " fill="#6D304B" transform="translate(116,58)"/>
<path d="M0 0 C1.77007714 -0.08114106 3.54122098 -0.13925505 5.3125 -0.1875 C6.29863281 -0.22230469 7.28476562 -0.25710937 8.30078125 -0.29296875 C11 0 11 0 12.85546875 1.26171875 C14 3 14 3 14 7 C10.125 6.125 10.125 6.125 9 5 C6.66702567 4.95907063 4.33294775 4.95758277 2 5 C2.99 4.01 3.98 3.02 5 2 C3.02 2.33 1.04 2.66 -1 3 C-0.67 2.01 -0.34 1.02 0 0 Z " fill="#BCC7D2" transform="translate(295,124)"/>
<path d="M0 0 C1.65 0 3.3 0 5 0 C5.33 1.32 5.66 2.64 6 4 C6.66 4 7.32 4 8 4 C8 5.32 8 6.64 8 8 C7.01 8 6.02 8 5 8 C5.33 9.32 5.66 10.64 6 12 C3.32098068 9.68118495 2.33795597 7.68185532 1.3125 4.3125 C1.06113281 3.50425781 0.80976563 2.69601563 0.55078125 1.86328125 C0.36902344 1.24839844 0.18726563 0.63351563 0 0 Z " fill="#B8C4D0" transform="translate(215,125)"/>
<path d="M0 0 C2.31 0 4.62 0 7 0 C7 2.31 7 4.62 7 7 C4.69 7 2.38 7 0 7 C0 4.69 0 2.38 0 0 Z " fill="#194066" transform="translate(274,129)"/>
<path d="M0 0 C1.5 1.125 1.5 1.125 3 3 C3.1875 6.1875 3.1875 6.1875 3 9 C3.66 9 4.32 9 5 9 C5 13.29 5 17.58 5 22 C4.34 22 3.68 22 3 22 C1.40587716 18.81175432 1.89825265 15.37103338 1.9375 11.875 C1.94201172 11.12089844 1.94652344 10.36679688 1.95117188 9.58984375 C1.96296501 7.72652873 1.98090058 5.86325445 2 4 C1.34 4 0.68 4 0 4 C0 2.68 0 1.36 0 0 Z " fill="#BDC8D3" transform="translate(189,76)"/>
<path d="M0 0 C2.64 0 5.28 0 8 0 C8 1.65 8 3.3 8 5 C7.01 5 6.02 5 5 5 C5 12.92 5 20.84 5 29 C3.35 29 1.7 29 0 29 C1.32 28.67 2.64 28.34 4 28 C3.98952637 27.2886792 3.97905273 26.5773584 3.96826172 25.84448242 C3.92671999 22.62552414 3.90067961 19.40662224 3.875 16.1875 C3.85824219 15.06794922 3.84148437 13.94839844 3.82421875 12.79492188 C3.81777344 11.72177734 3.81132812 10.64863281 3.8046875 9.54296875 C3.79421387 8.55321045 3.78374023 7.56345215 3.77294922 6.54370117 C4 4 4 4 6 1 C4.02 1 2.04 1 0 1 C0 0.67 0 0.34 0 0 Z " fill="#597590" transform="translate(192,124)"/>
<path d="M0 0 C6.625 -0.25 6.625 -0.25 10 2 C10.40843923 4.71203652 10.13336867 7.2437142 10 10 C6.7 10 3.4 10 0 10 C0 6.7 0 3.4 0 0 Z M2 2 C2 4.31 2 6.62 2 9 C4.31 9 6.62 9 9 9 C9 6.69 9 4.38 9 2 C6.69 2 4.38 2 2 2 Z " fill="#7089A0" transform="translate(272,127)"/>
<path d="M0 0 C0.99 0.495 0.99 0.495 2 1 C2.625 3.5625 2.625 3.5625 3 6 C3.99 6.33 4.98 6.66 6 7 C6.185625 6.0409375 6.185625 6.0409375 6.375 5.0625 C6.58125 4.381875 6.7875 3.70125 7 3 C7.66 2.67 8.32 2.34 9 2 C9.36263859 7.8022175 8.25684543 11.63999211 6 17 C5.67 17 5.34 17 5 17 C5.33 14.36 5.66 11.72 6 9 C4.35 8.67 2.7 8.34 1 8 C0.67 5.36 0.34 2.72 0 0 Z " fill="#D7DEE4" transform="translate(241,75)"/>
<path d="M0 0 C0.33 0 0.66 0 1 0 C1.03738281 1.03640625 1.07476562 2.0728125 1.11328125 3.140625 C1.17895788 4.51045184 1.24540464 5.88024191 1.3125 7.25 C1.34633789 8.27287109 1.34633789 8.27287109 1.38085938 9.31640625 C1.54362898 12.36463698 1.86410444 14.73160626 3.25 17.46875 C5.52064638 19.45556559 6.71330973 19.42241683 9.6875 19.25 C10.89986328 19.19585937 10.89986328 19.19585937 12.13671875 19.140625 C12.75160156 19.09421875 13.36648437 19.0478125 14 19 C13.67 19.66 13.34 20.32 13 21 C10.8203125 21.51953125 10.8203125 21.51953125 8.125 21.8125 C7.24070313 21.92207031 6.35640625 22.03164062 5.4453125 22.14453125 C3 22 3 22 1.36547852 20.76904297 C-0.36181036 18.53125731 -0.3493718 17.35213281 -0.29296875 14.55078125 C-0.28330078 13.70322266 -0.27363281 12.85566406 -0.26367188 11.98242188 C-0.23853516 11.10134766 -0.21339844 10.22027344 -0.1875 9.3125 C-0.17396484 8.41982422 -0.16042969 7.52714844 -0.14648438 6.60742188 C-0.11114079 4.40433834 -0.06180493 2.20247418 0 0 Z " fill="#EDF0F3" transform="translate(146,129)"/>
<path d="M0 0 C1.32 0 2.64 0 4 0 C3.67 0.99 3.34 1.98 3 3 C2.34 3 1.68 3 1 3 C1 8.61 1 14.22 1 20 C0.34 19.67 -0.32 19.34 -1 19 C-1.02683987 16.02077407 -1.04676037 13.04178705 -1.0625 10.0625 C-1.07087891 9.21236328 -1.07925781 8.36222656 -1.08789062 7.48632812 C-1.09111328 6.67744141 -1.09433594 5.86855469 -1.09765625 5.03515625 C-1.10289307 4.2862915 -1.10812988 3.53742676 -1.11352539 2.76586914 C-1 1 -1 1 0 0 Z " fill="#FBFBFC" transform="translate(194,125)"/>
<path d="M0 0 C0.66 0 1.32 0 2 0 C2 4.95 2 9.9 2 15 C1.01 15 0.02 15 -1 15 C-1.02685412 12.68756208 -1.04632841 10.3750373 -1.0625 8.0625 C-1.07410156 6.77472656 -1.08570313 5.48695313 -1.09765625 4.16015625 C-1 1 -1 1 0 0 Z " fill="#EEF1F4" transform="translate(363,137)"/>
<path d="M0 0 C0.66 0 1.32 0 2 0 C2 6.27 2 12.54 2 19 C0.35 19 -1.3 19 -3 19 C-3 18.34 -3 17.68 -3 17 C-2.01 17 -1.02 17 0 17 C0 11.39 0 5.78 0 0 Z " fill="#FBFCFC" transform="translate(175,132)"/>
<path d="M0 0 C1.32 0 2.64 0 4 0 C3.67 0.99 3.34 1.98 3 3 C2.77451469 6.24269347 2.60617523 9.47879154 2.48242188 12.7265625 C2.39118356 14.48935555 2.20296439 16.24655504 2 18 C1.34 18.33 0.68 18.66 0 19 C0 12.73 0 6.46 0 0 Z " fill="#F6F7F9" transform="translate(163,125)"/>
<path d="M0 0 C1.32 0 2.64 0 4 0 C3.60246179 1.46366342 3.18118616 2.9208935 2.75 4.375 C2.51796875 5.18710938 2.2859375 5.99921875 2.046875 6.8359375 C0.7785108 9.45785454 -0.32423308 9.99382318 -3 11 C-3 9.35 -3 7.7 -3 6 C-2.34 6 -1.68 6 -1 6 C-0.67 4.02 -0.34 2.04 0 0 Z " fill="#E4E9ED" transform="translate(236,125)"/>
<path d="M0 0 C1.485 0.99 1.485 0.99 3 2 C3.22137393 4.62697064 3.28162025 7.00893964 3.1875 9.625 C3.16719727 10.68460938 3.16719727 10.68460938 3.14648438 11.765625 C3.1111104 13.51074128 3.05730221 15.25546608 3 17 C3.66 17 4.32 17 5 17 C5.33 19.97 5.66 22.94 6 26 C2.64367131 22.64367131 1.90721587 21.48029864 1.71875 16.97265625 C1.68136719 16.18052734 1.64398438 15.38839844 1.60546875 14.57226562 C1.57066406 13.74404297 1.53585938 12.91582031 1.5 12.0625 C1.43099971 10.42821536 1.35823442 8.79408425 1.28125 7.16015625 C1.25095703 6.43449463 1.22066406 5.70883301 1.18945312 4.96118164 C1.05316695 2.78692935 1.05316695 2.78692935 0 0 Z " fill="#C3CED7" transform="translate(176,77)"/>
<path d="M0 0 C1.32 0 2.64 0 4 0 C4 1.98 4 3.96 4 6 C4.5775 5.649375 5.155 5.29875 5.75 4.9375 C8.35801776 3.85082593 9.39417629 4.06934867 12 5 C8.36576791 7.32590854 5.22911669 7.16265833 1 7 C1 6.34 1 5.68 1 5 C0.34 4.67 -0.32 4.34 -1 4 C-0.67 2.68 -0.34 1.36 0 0 Z " fill="#53708C" transform="translate(323,124)"/>
<path d="M0 0 C1.39456452 0.00667256 2.78911118 0.01863093 4.18359375 0.03515625 C4.89451172 0.03966797 5.60542969 0.04417969 6.33789062 0.04882812 C8.09899388 0.06064761 9.86005411 0.07858362 11.62109375 0.09765625 C11.29109375 0.75765625 10.96109375 1.41765625 10.62109375 2.09765625 C7.35333365 2.45770234 4.10522547 2.54221607 0.8203125 2.65625 C-2.53698675 3.11946711 -3.92896708 3.82919405 -6.37890625 6.09765625 C-4.07899618 0.11789006 -4.07899618 0.11789006 0 0 Z " fill="#CFD7DF" transform="translate(341.37890625,36.90234375)"/>
<path d="M0 0 C0.66 0 1.32 0 2 0 C2 1.98 2 3.96 2 6 C2.66 6 3.32 6 4 6 C4 8.31 4 10.62 4 13 C4.66 13 5.32 13 6 13 C5.938125 12.05125 5.87625 11.1025 5.8125 10.125 C5.874375 9.09375 5.93625 8.0625 6 7 C6.99 6.34 7.98 5.68 9 5 C8.34 8.3 7.68 11.6 7 15 C5.68 14.67 4.36 14.34 3 14 C0.9184335 9.5081986 0.50399843 4.87198478 0 0 Z " fill="#56738E" transform="translate(240,67)"/>
<path d="M0 0 C0.33 0.99 0.66 1.98 1 3 C1.66 3 2.32 3 3 3 C3.13277344 3.80824219 3.26554688 4.61648437 3.40234375 5.44921875 C3.57894531 6.51785156 3.75554687 7.58648437 3.9375 8.6875 C4.11152344 9.74324219 4.28554687 10.79898438 4.46484375 11.88671875 C4.93167121 14.60249604 5.44422616 17.30124235 6 20 C2.86949899 17.45701599 2.22301694 14.98867504 1.3125 11.125 C1.06113281 10.09632812 0.80976563 9.06765625 0.55078125 8.0078125 C0.04600405 5.25122779 -0.10818892 2.79230447 0 0 Z " fill="#8096AB" transform="translate(231,38)"/>
<path d="M0 0 C1.65 0 3.3 0 5 0 C6.42944945 2.35438733 7.08661261 3.48032433 6.625 6.25 C6.41875 6.8275 6.2125 7.405 6 8 C1.125 3.375 1.125 3.375 0 0 Z " fill="#DCE2E8" transform="translate(352,125)"/>
<path d="M0 0 C-0.5775 0.268125 -1.155 0.53625 -1.75 0.8125 C-5.76860341 2.93342958 -8.2333727 4.73065069 -10 9 C-10.33 9 -10.66 9 -11 9 C-11.35555556 3.66666667 -11.35555556 3.66666667 -10 1.125 C-6.74686316 -0.70488947 -3.68609891 -0.18128355 0 0 Z " fill="#F1F3F5" transform="translate(304,125)"/>
<path d="M0 0 C1.98 0 3.96 0 6 0 C6 1.65 6 3.3 6 5 C5.236875 4.814375 4.47375 4.62875 3.6875 4.4375 C0.91032625 3.77180827 0.91032625 3.77180827 -2 5 C-1.34 3.35 -0.68 1.7 0 0 Z " fill="#A2B2C1" transform="translate(370,124)"/>
<path d="M0 0 C0.78375 0.804375 1.5675 1.60875 2.375 2.4375 C4.71982856 4.98690417 4.71982856 4.98690417 7 6 C7 5.01 7 4.02 7 3 C7.66 3 8.32 3 9 3 C9 4.65 9 6.3 9 8 C6.1875 8.25 6.1875 8.25 3 8 C1.125 6.25 1.125 6.25 0 4 C0 2.68 0 1.36 0 0 Z " fill="#5C7892" transform="translate(281,146)"/>
<path d="M0 0 C1 2 1 2 0.51171875 3.953125 C0.10373047 5.09007812 0.10373047 5.09007812 -0.3125 6.25 C-0.59351563 7.04792969 -0.87453125 7.84585938 -1.1640625 8.66796875 C-1.43992188 9.43753906 -1.71578125 10.20710938 -2 11 C-2.391875 12.175625 -2.78375 13.35125 -3.1875 14.5625 C-3.455625 15.366875 -3.72375 16.17125 -4 17 C-4.33 17 -4.66 17 -5 17 C-5.6267316 11.04604982 -3.48006962 6.28882316 -1 1 C-0.67 0.67 -0.34 0.34 0 0 Z " fill="#879BAF" transform="translate(254,55)"/>
<path d="M0 0 C0.99 0.33 1.98 0.66 3 1 C3 1.66 3 2.32 3 3 C3.99 3 4.98 3 6 3 C6 4.32 6 5.64 6 7 C4.35 7 2.7 7 1 7 C0.67 4.69 0.34 2.38 0 0 Z " fill="#F4F6F7" transform="translate(224,144)"/>
<path d="M0 0 C3.3 0.33 6.6 0.66 10 1 C9.67 2.65 9.34 4.3 9 6 C4.545 5.01 4.545 5.01 0 4 C0 2.68 0 1.36 0 0 Z " fill="#E7EBEF" transform="translate(272,137)"/>
<path d="M0 0 C0 0.33 0 0.66 0 1 C-0.58007812 0.99097656 -1.16015625 0.98195312 -1.7578125 0.97265625 C-6.73872741 1.15594977 -6.73872741 1.15594977 -10.93359375 3.625 C-12.39519212 5.3634959 -13.74167663 7.11004765 -15 9 C-15.33 7.68 -15.66 6.36 -16 5 C-10.92092974 -0.34638974 -7.21564884 -0.6417079 0 0 Z " fill="#52708C" transform="translate(349,39)"/>
<path d="M0 0 C0.33 0 0.66 0 1 0 C1.33 3.96 1.66 7.92 2 12 C1.34 12 0.68 12 0 12 C0 10.68 0 9.36 0 8 C-2.97 8 -5.94 8 -9 8 C-9 7.67 -9 7.34 -9 7 C-6.03 7 -3.06 7 0 7 C0 4.69 0 2.38 0 0 Z " fill="#A9B8C6" transform="translate(282,130)"/>
<path d="M0 0 C3 4 3 4 3 8 C2.34 8 1.68 8 1 8 C1 9.32 1 10.64 1 12 C0.01 12 -0.98 12 -2 12 C-2 11.34 -2 10.68 -2 10 C-1.34 10 -0.68 10 0 10 C0 6.7 0 3.4 0 0 Z " fill="#516F8B" transform="translate(286,127)"/>
<path d="M0 0 C1.32 0.66 2.64 1.32 4 2 C3.125 6.875 3.125 6.875 2 8 C-0.33297433 8.04092937 -2.66705225 8.04241723 -5 8 C-5.33 7.34 -5.66 6.68 -6 6 C-3.69 6 -1.38 6 1 6 C0.67 4.02 0.34 2.04 0 0 Z " fill="#6E879E" transform="translate(302,141)"/>
<path d="M0 0 C4.75 0.875 4.75 0.875 7 2 C7 3.98 7 5.96 7 8 C4.35247996 5.42215154 2.05567935 3.08351902 0 0 Z " fill="#F5F7F8" transform="translate(301,138)"/>
<path d="M0 0 C1.65 0 3.3 0 5 0 C5.33 1.65 5.66 3.3 6 5 C4.35 4.67 2.7 4.34 1 4 C0.67 2.68 0.34 1.36 0 0 Z " fill="#DAE0E6" transform="translate(215,125)"/>
<path d="M0 0 C0 1.65 0 3.3 0 5 C-0.515625 4.690625 -1.03125 4.38125 -1.5625 4.0625 C-4.66665423 2.70940713 -7.65115007 2.38640576 -11 2 C-11 1.67 -11 1.34 -11 1 C-7.26513121 0.4254048 -3.78706732 0 0 0 Z " fill="#ECEFF2" transform="translate(261,125)"/>
<path d="M0 0 C0.99 0.495 0.99 0.495 2 1 C2.309375 1.969375 2.61875 2.93875 2.9375 3.9375 C3.74744122 7.2680443 3.74744122 7.2680443 7 9 C5.35 9.33 3.7 9.66 2 10 C0.68373308 6.38026598 0 3.90432869 0 0 Z " fill="#6B849C" transform="translate(235,98)"/>
<path d="M0 0 C2.97 0 5.94 0 9 0 C9 1.65 9 3.3 9 5 C8.01 5 7.02 5 6 5 C6 4.01 6 3.02 6 2 C3.03 1.505 3.03 1.505 0 1 C0 0.67 0 0.34 0 0 Z " fill="#E3E7EC" transform="translate(341,125)"/>
<path d="M0 0 C0.33 0.99 0.66 1.98 1 3 C0.67 3.66 0.34 4.32 0 5 C-0.22858114 7.0374763 -0.41024278 9.08040303 -0.5625 11.125 C-0.64628906 12.22070312 -0.73007813 13.31640625 -0.81640625 14.4453125 C-0.87699219 15.28835937 -0.93757812 16.13140625 -1 17 C-1.33 17 -1.66 17 -2 17 C-2.05383848 14.54137599 -2.09359038 12.0839245 -2.125 9.625 C-2.14175781 8.92632812 -2.15851563 8.22765625 -2.17578125 7.5078125 C-2.19344267 5.67102514 -2.10303261 3.83398037 -2 2 C-1.34 1.34 -0.68 0.68 0 0 Z " fill="#3F607F" transform="translate(168,127)"/>
<path d="M0 0 C2.64 0 5.28 0 8 0 C8 1.65 8 3.3 8 5 C7.01 5 6.02 5 5 5 C4.67 5.99 4.34 6.98 4 8 C4.875 3.25 4.875 3.25 6 1 C4.02 1 2.04 1 0 1 C0 0.67 0 0.34 0 0 Z " fill="#617C95" transform="translate(192,124)"/>
<path d="M0 0 C3.3 0 6.6 0 10 0 C10 0.33 10 0.66 10 1 C7.03 1 4.06 1 1 1 C1.66 2.65 2.32 4.3 3 6 C1.68 5.67 0.36 5.34 -1 5 C-0.67 3.35 -0.34 1.7 0 0 Z " fill="#345778" transform="translate(313,123)"/>
<path d="M0 0 C1.26724763 3.80174289 0.4750819 5.3511132 -1 9 C-1.66 9.66 -2.32 10.32 -3 11 C-3 8.69 -3 6.38 -3 4 C-2.34 4 -1.68 4 -1 4 C-0.67 2.68 -0.34 1.36 0 0 Z " fill="#F6F7F9" transform="translate(261,39)"/>
<path d="M0 0 C2.87255066 2.42195448 3.70838919 4.59742703 4.6875 8.1875 C4.93886719 9.08855469 5.19023437 9.98960938 5.44921875 10.91796875 C5.63097656 11.60503906 5.81273437 12.29210938 6 13 C5.01 12.67 4.02 12.34 3 12 C2.05078125 9.27734375 2.05078125 9.27734375 1.3125 5.9375 C1.06113281 4.83277344 0.80976563 3.72804687 0.55078125 2.58984375 C0.36902344 1.73519531 0.18726563 0.88054688 0 0 Z " fill="#476784" transform="translate(380,42)"/>
<path d="M0 0 C0.99 0.495 0.99 0.495 2 1 C2 2.98 2 4.96 2 7 C2.66 7 3.32 7 4 7 C4.33 5.68 4.66 4.36 5 3 C5 5.31 5 7.62 5 10 C3.0625 9.5 3.0625 9.5 1 8 C0.31209578 5.30341548 0.18053536 2.7982981 0 0 Z " fill="#C4CED8" transform="translate(383,45)"/>
<path d="M0 0 C1.9375 0.75 1.9375 0.75 4 2 C4.75 4.125 4.75 4.125 5 6 C2.525 5.01 2.525 5.01 0 4 C0 2.68 0 1.36 0 0 Z " fill="#E5EAEE" transform="translate(283,146)"/>
<path d="M0 0 C2.64 0 5.28 0 8 0 C8 0.66 8 1.32 8 2 C6.02 2.66 4.04 3.32 2 4 C2 3.34 2 2.68 2 2 C1.34 2 0.68 2 0 2 C0 1.34 0 0.68 0 0 Z " fill="#F0F3F5" transform="translate(204,125)"/>
<path d="M0 0 C2.31 0 4.62 0 7 0 C7 1.32 7 2.64 7 4 C4.36 3.34 1.72 2.68 -1 2 C-0.67 1.34 -0.34 0.68 0 0 Z " fill="#3A5C7C" transform="translate(177,67)"/>
<path d="M0 0 C0.33 0 0.66 0 1 0 C1.23509196 4.81938524 0.45184478 8.46298506 -1 13 C-1.66 13 -2.32 13 -3 13 C-2.68991116 11.39536551 -2.37683713 9.79130769 -2.0625 8.1875 C-1.88847656 7.29417969 -1.71445313 6.40085937 -1.53515625 5.48046875 C-1 3 -1 3 0 0 Z " fill="#7B91A7" transform="translate(255,63)"/>
<path d="M0 0 C1.4606285 2.64738916 2 3.89448334 2 7 C1.34 7 0.68 7 0 7 C0.33 8.98 0.66 10.96 1 13 C-1.30143236 9.54785147 -1.13833854 8.76520676 -0.625 4.8125 C-0.51414063 3.91144531 -0.40328125 3.01039063 -0.2890625 2.08203125 C-0.19367188 1.39496094 -0.09828125 0.70789063 0 0 Z " fill="#C5CFD8" transform="translate(224,137)"/>
<path d="M0 0 C1.25541557 3.76624671 0.37061958 5.37188934 -1 9 C-1.66 9 -2.32 9 -3 9 C-2.44271087 5.65626525 -1.64826111 2.96687001 0 0 Z " fill="#EFF2F4" transform="translate(233,137)"/>
<path d="M0 0 C2 1 2 1 3.125 3.6875 C3.98889074 6.9579435 4.16013991 9.63706182 4 13 C3.67 11.68 3.34 10.36 3 9 C2.34 9 1.68 9 1 9 C0.67 6.03 0.34 3.06 0 0 Z " fill="#7089A0" transform="translate(227,73)"/>
<path d="M0 0 C1.53445094 3.06890187 0.54984289 5.70094266 0 9 C-0.99 9.33 -1.98 9.66 -3 10 C-3 8.68 -3 7.36 -3 6 C-2.34 6 -1.68 6 -1 6 C-1.0309375 4.7934375 -1.0309375 4.7934375 -1.0625 3.5625 C-1 1 -1 1 0 0 Z " fill="#879CAF" transform="translate(258,41)"/>
<path d="M0 0 C1.65 0 3.3 0 5 0 C5 1.32 5 2.64 5 4 C3.0625 3.6875 3.0625 3.6875 1 3 C0.67 2.01 0.34 1.02 0 0 Z " fill="#E3E8ED" transform="translate(142,125)"/>
</svg>
