<?xml version="1.0" encoding="UTF-8"?>
<svg version="1.1" xmlns="http://www.w3.org/2000/svg" width="118" height="148">
<path d="M0 0 C38.28 0 76.56 0 116 0 C116 48.18 116 96.36 116 146 C77.72 146 39.44 146 0 146 C0 97.82 0 49.64 0 0 Z " fill="#FCFCFB" transform="translate(0,1)"/>
<path d="M0 0 C2.5625 0.5 2.5625 0.5 4.625 2.25 C8.54389995 8.82363863 10.88304009 15.81848564 10.5625 23.5 C12.5425 23.995 12.5425 23.995 14.5625 24.5 C14.748125 25.7375 14.93375 26.975 15.125 28.25 C16.02436001 31.68446877 16.39533343 32.36702659 19.3125 34.6875 C24.13025284 36.98942842 29.2936113 38.5812448 34.35546875 40.25390625 C37.25977133 41.38237461 39.29762993 42.38125058 41.5625 44.5 C41.5625 45.16 41.5625 45.82 41.5625 46.5 C40.74265625 46.87511719 39.9228125 47.25023437 39.078125 47.63671875 C38.00046875 48.14847656 36.9228125 48.66023438 35.8125 49.1875 C34.74515625 49.68636719 33.6778125 50.18523438 32.578125 50.69921875 C27.8893796 53.49910428 25.4851208 57.33707431 22.9375 62.0625 C22.53273438 62.80628906 22.12796875 63.55007812 21.7109375 64.31640625 C20.63364777 66.36472243 19.58805575 68.42536658 18.5625 70.5 C20.5425 71.82 22.5225 73.14 24.5625 74.5 C23.5625 76.5 23.5625 76.5 21.39453125 77.5859375 C18.28463549 78.58968317 15.50710302 78.91024596 12.25 79.125 C10.64705078 79.23714844 10.64705078 79.23714844 9.01171875 79.3515625 C8.20347656 79.40054688 7.39523438 79.44953125 6.5625 79.5 C6.645 80.593125 6.7275 81.68625 6.8125 82.8125 C6.82476745 89.69454126 4.24867279 97.38570772 -0.4375 102.5 C-3.93901863 103.37537966 -5.11788943 103.6047139 -8.4375 102.5 C-11.38587228 100.16388176 -14.01665997 97.61204739 -16.7109375 94.98828125 C-23.12776351 89.13223802 -29.95359847 87.85423388 -38.4375 87.5 C-38.4375 86.84 -38.4375 86.18 -38.4375 85.5 C-36.86328125 84.203125 -36.86328125 84.203125 -34.75 82.75 C-30.95880737 80.01603161 -28.26279901 77.20820495 -25.4375 73.5 C-26.613125 74.015625 -27.78875 74.53125 -29 75.0625 C-33.04776449 76.8378353 -36.14441852 76.285764 -40.4375 75.5 C-40.44136719 73.85451172 -40.44136719 73.85451172 -40.4453125 72.17578125 C-40.48284714 70.72131393 -40.52199486 69.26688762 -40.5625 67.8125 C-40.55992188 67.09126953 -40.55734375 66.37003906 -40.5546875 65.62695312 C-40.71220936 61.31479215 -41.03954617 59.91632977 -44.14453125 56.66796875 C-47.04744404 54.75679841 -49.89499797 53.05470941 -53 51.5 C-58.19007731 48.7390201 -62.07377395 46.53050232 -64.5625 41 C-64.4375 38.5 -64.4375 38.5 -62.3125 35.8125 C-57.08495616 31.60773648 -52.63078799 31.2034113 -46.0625 31.3125 C-45.33289063 31.31314453 -44.60328125 31.31378906 -43.8515625 31.31445312 C-39.2893755 31.35111356 -34.93859058 31.75773572 -30.4375 32.5 C-30.1075 30.19 -29.7775 27.88 -29.4375 25.5 C-28.70144531 25.48582031 -27.96539062 25.47164062 -27.20703125 25.45703125 C-26.23121094 25.40933594 -25.25539062 25.36164062 -24.25 25.3125 C-23.28707031 25.27769531 -22.32414062 25.24289063 -21.33203125 25.20703125 C-17.36730002 24.23858813 -15.9969554 22.66069778 -13.4375 19.5 C-11.89240867 16.86563829 -10.59008046 14.14729909 -9.3125 11.375 C-8.64892639 9.95305654 -7.97983453 8.53367246 -7.3046875 7.1171875 C-6.87325439 6.18302002 -6.87325439 6.18302002 -6.43310547 5.22998047 C-4.74369143 2.2944268 -3.35892012 0.68900926 0 0 Z " fill="#EA6A55" transform="translate(69.4375,5.5)"/>
<path d="M0 0 C0.60070312 0.1959375 1.20140625 0.391875 1.8203125 0.59375 C2.0059375 1.83125 2.1915625 3.06875 2.3828125 4.34375 C3.28217251 7.77821877 3.65314593 8.46077659 6.5703125 10.78125 C11.38806534 13.08317842 16.5514238 14.6749948 21.61328125 16.34765625 C24.51758383 17.47612461 26.55544243 18.47500058 28.8203125 20.59375 C28.8203125 21.25375 28.8203125 21.91375 28.8203125 22.59375 C28.00046875 22.96886719 27.180625 23.34398438 26.3359375 23.73046875 C25.25828125 24.24222656 24.180625 24.75398438 23.0703125 25.28125 C22.00296875 25.78011719 20.935625 26.27898438 19.8359375 26.79296875 C15.1471921 29.59285428 12.7429333 33.43082431 10.1953125 38.15625 C9.79054688 38.90003906 9.38578125 39.64382812 8.96875 40.41015625 C7.89146027 42.45847243 6.84586825 44.51911658 5.8203125 46.59375 C7.8003125 47.91375 9.7803125 49.23375 11.8203125 50.59375 C10.8203125 52.59375 10.8203125 52.59375 8.68359375 53.7109375 C5.32132287 54.74759946 2.51987357 54.78970073 -0.9921875 54.71875 C-2.15363281 54.70070312 -3.31507812 54.68265625 -4.51171875 54.6640625 C-5.83236328 54.62925781 -5.83236328 54.62925781 -7.1796875 54.59375 C-8.4296875 47.96875 -8.4296875 47.96875 -6.1796875 44.59375 C-7.8296875 44.59375 -9.4796875 44.59375 -11.1796875 44.59375 C-12.3642006 41.04021071 -12.44610644 38.32361522 -12.1796875 34.59375 C-10.9921875 32.59375 -10.9921875 32.59375 -9.1796875 31.59375 C-6.4921875 31.90625 -6.4921875 31.90625 -4.1796875 32.59375 C-3.8496875 33.91375 -3.5196875 35.23375 -3.1796875 36.59375 C0.07014385 35.50590032 0.07014385 35.50590032 2.8203125 33.59375 C3.05852171 31.56104438 3.05852171 31.56104438 3.0703125 29.21875 C3.09609375 28.42726563 3.121875 27.63578125 3.1484375 26.8203125 C2.98763083 24.5396136 2.98763083 24.5396136 1.546875 22.8359375 C-0.89662665 21.0779431 -3.234712 21.06209653 -6.1796875 21.17578125 C-9.62701003 21.89621779 -11.11901119 23.86638429 -13.1796875 26.59375 C-15.00564223 30.15436172 -15.62882628 33.64591127 -16.1796875 37.59375 C-16.8396875 37.59375 -17.4996875 37.59375 -18.1796875 37.59375 C-16.54557359 28.03898985 -16.54557359 28.03898985 -14.5546875 23.90625 C-12.60220843 19.20255043 -12.57664229 15.40288564 -14.1796875 10.59375 C-11.57519492 6.22590447 -5.5346032 -1.03153895 0 0 Z " fill="#80BD44" transform="translate(82.1796875,29.40625)"/>
<path d="M0 0 C3.96963373 2.10886792 6.54252226 5.37628338 9 9.0625 C9.68565744 14.66203576 8.19368339 18.58406405 6.0234375 23.6171875 C4.72576778 26.7177266 3.84749028 29.81378728 3 33.0625 C3.66 33.0625 4.32 33.0625 5 33.0625 C4.9175 32.2375 4.835 31.4125 4.75 30.5625 C5.13085478 25.23053302 7.24166806 21.07202222 10.75 17.0625 C14.18889743 15.53410114 17.30744 15.41176197 21 16.0625 C23.5 17.5 23.5 17.5 25 20.0625 C25.60401713 23.90876997 26.07456236 27.56731384 23.72265625 30.83984375 C22 32.0625 22 32.0625 18 32.0625 C17.34 30.7425 16.68 29.4225 16 28.0625 C14.35 28.3925 12.7 28.7225 11 29.0625 C10.25042843 32.53397842 10.25042843 32.53397842 10 36.0625 C3.07 36.0625 -3.86 36.0625 -11 36.0625 C-11 34.0825 -11 32.1025 -11 30.0625 C-11.66 29.4025 -12.32 28.7425 -13 28.0625 C-15.60280568 28.38291397 -15.60280568 28.38291397 -18 29.0625 C-18.33 30.0525 -18.66 31.0425 -19 32.0625 C-21.94563014 31.7440535 -23.61076606 31.39983608 -25.875 29.4375 C-27.52964873 25.94435268 -26.98611225 23.74398574 -26 20.0625 C-24.4375 17.625 -24.4375 17.625 -22 16.0625 C-16.98816568 15.34652367 -16.98816568 15.34652367 -14 16.0625 C-11 18.5625 -11 18.5625 -9 21.0625 C-9.165 20.5675 -9.33 20.0725 -9.5 19.5625 C-10.44352979 14.84485104 -10.7176855 10.72450853 -8.8125 6.3125 C-3.82368655 0.1194902 -3.82368655 0.1194902 0 0 Z " fill="#FCFCFA" transform="translate(61,33.9375)"/>
<path d="M0 0 C4.78633919 1.21834089 6.68727347 3.92595678 9.4375 7.875 C11.68016631 7.39442865 13.40082641 6.89656407 15.390625 5.7265625 C18.16162858 4.5737404 19.42806649 5.19492248 22.1875 6.25 C23.38632813 6.69472656 23.38632813 6.69472656 24.609375 7.1484375 C25.21265625 7.38820313 25.8159375 7.62796875 26.4375 7.875 C27.02182482 15.61730385 25.14935053 22.52707436 21.01953125 29.1484375 C19.4375 30.875 19.4375 30.875 15.9375 31.75 C10.23809866 31.51993242 7.02175677 27.12001657 3.1640625 23.36328125 C-3.25276351 17.50723802 -10.07859847 16.22923388 -18.5625 15.875 C-18.5625 15.215 -18.5625 14.555 -18.5625 13.875 C-17.05859375 12.61328125 -17.05859375 12.61328125 -15 11.1875 C-11.95227245 9.01438441 -9.48988836 6.78980673 -7 4 C-4.47076093 1.42477477 -3.67260252 0.90204272 0 0 Z " fill="#DE8D2A" transform="translate(49.5625,77.125)"/>
<path d="M0 0 C2.5625 0.5 2.5625 0.5 4.625 2.25 C8.29978209 8.4141506 12.28644527 17.31689471 10.5625 24.5 C8.69488774 26.28134842 6.78624397 27.6645917 4.60546875 29.04296875 C2.39668323 30.61825938 1.17380835 32.34389398 -0.4375 34.5 C-1.0975 34.5 -1.7575 34.5 -2.4375 34.5 C-2.4375 33.84 -2.4375 33.18 -2.4375 32.5 C-6.25325438 30.38791026 -6.25325438 30.38791026 -10.4375 29.5 C-13.80079756 31.71485449 -16.18361912 34.17849133 -18.4375 37.5 C-19.489375 37.025625 -20.54125 36.55125 -21.625 36.0625 C-24.53925851 34.80676259 -27.28496914 33.97765619 -30.4375 33.5 C-30.5625 27.75 -30.5625 27.75 -29.4375 25.5 C-26.71970526 25.22183644 -24.02781335 25.18469469 -21.296875 25.13671875 C-17.32018513 24.25119901 -15.987998 22.6528143 -13.4375 19.5 C-11.89245075 16.86560811 -10.59008331 14.14730528 -9.3125 11.375 C-8.64892639 9.95305654 -7.97983453 8.53367246 -7.3046875 7.1171875 C-7.01706543 6.49440918 -6.72944336 5.87163086 -6.43310547 5.22998047 C-4.74369143 2.2944268 -3.35892012 0.68900926 0 0 Z " fill="#FEC631" transform="translate(69.4375,5.5)"/>
<path d="M0 0 C0.73863281 -0.00773437 1.47726563 -0.01546875 2.23828125 -0.0234375 C7.07560998 -0.00637461 11.10270764 0.77999718 15.75 2.25 C18.54244045 2.41928543 18.54244045 2.41928543 20.75 2.25 C21.28229326 3.51607607 21.80044544 4.78810412 22.3125 6.0625 C22.60253906 6.77019531 22.89257812 7.47789063 23.19140625 8.20703125 C23.75 10.25 23.75 10.25 22.75 13.25 C22.09 12.425 21.43 11.6 20.75 10.75 C17.52692359 8.06405783 17.52692359 8.06405783 13.6875 7.625 C9.72616787 7.91931954 9.72616787 7.91931954 7.1875 10.3125 C5.32894288 14.11042106 5.68318671 16.21134968 6.75 20.25 C8.8885485 22.3885485 9.88275314 22.67655063 12.75 23.25 C13.08 21.93 13.41 20.61 13.75 19.25 C16.0625 18.5625 16.0625 18.5625 18.75 18.25 C20.625 19.3125 20.625 19.3125 21.75 21.25 C21.6875 24.3125 21.6875 24.3125 20.75 27.25 C17.95896678 29.70610924 14.34702965 29.79270491 10.70703125 29.69140625 C7.86780358 29.05102156 6.45859124 27.3274296 4.8046875 25.01953125 C3.8147502 23.35863644 2.96379654 21.6171159 2.125 19.875 C-0.29683834 15.26536653 -4.66693161 13.0128159 -8.984375 10.33984375 C-11.25 8.25 -11.25 8.25 -11.765625 5.12890625 C-11.59546875 4.17886719 -11.4253125 3.22882812 -11.25 2.25 C-7.45437255 -0.2804183 -4.39305886 -0.04505701 0 0 Z " fill="#EC1D26" transform="translate(29.25,42.75)"/>
<path d="M0 0 C0.78375 0.886875 1.5675 1.77375 2.375 2.6875 C3.035 3.3475 3.695 4.0075 4.375 4.6875 C6.71543327 4.37544223 8.25284911 3.76486223 10.25 2.5 C13.3928358 1.29832749 15.36030736 2.45421665 18.375 3.6875 C17.385 4.1825 17.385 4.1825 16.375 4.6875 C16.2925 5.595 16.21 6.5025 16.125 7.4375 C15.29971683 11.01372707 14.13183452 12.58953015 11.17578125 14.76953125 C7.9127683 16.43288926 4.85624224 16.39809064 1.375 15.6875 C-3.22572865 14.03960265 -7.78176886 11.7669186 -10.625 7.6875 C-10.5300248 3.88849188 -9.24425504 1.40376449 -6.625 -1.3125 C-3.37648519 -3.15332506 -2.8370811 -2.49933335 0 0 Z " fill="#BB6227" transform="translate(54.625,80.3125)"/>
<path d="M0 0 C2.375 0.0625 2.375 0.0625 5 1 C8.05463251 5.47285475 9 9.67628703 9 15 C7.61466472 17.58449901 6.19656922 18.95667979 4 21 C3.34 21 2.68 21 2 21 C2 20.34 2 19.68 2 19 C-1.81575438 16.88791026 -1.81575438 16.88791026 -6 16 C-9.36329756 18.21485449 -11.74611912 20.67849133 -14 24 C-15.65 23.01 -17.3 22.02 -19 21 C-18.76953125 19.15234375 -18.76953125 19.15234375 -18 17 C-16.07421875 15.69140625 -16.07421875 15.69140625 -13.6875 14.5625 C-9.76899206 12.52884398 -7.46799162 10.74769098 -5 7 C-4.278125 5.9275 -3.55625 4.855 -2.8125 3.75 C-2.214375 2.8425 -1.61625 1.935 -1 1 C-0.67 0.67 -0.34 0.34 0 0 Z " fill="#FAAA1B" transform="translate(65,19)"/>
<path d="M0 0 C4.59157521 1.12219469 7.75884321 4.35314606 10.1953125 8.29296875 C11.92482024 11.97827497 12.09375 14.35020554 12.09375 18.51171875 C19.02375 19.00671875 19.02375 19.00671875 26.09375 19.51171875 C26.09375 19.84171875 26.09375 20.17171875 26.09375 20.51171875 C19.16375 20.51171875 12.23375 20.51171875 5.09375 20.51171875 C5.09375 18.53171875 5.09375 16.55171875 5.09375 14.51171875 C4.43375 13.85171875 3.77375 13.19171875 3.09375 12.51171875 C0.49094432 12.83213272 0.49094432 12.83213272 -1.90625 13.51171875 C-2.23625 14.50171875 -2.56625 15.49171875 -2.90625 16.51171875 C-5.85188014 16.19327225 -7.51701606 15.84905483 -9.78125 13.88671875 C-11.43589873 10.39357143 -10.89236225 8.19320449 -9.90625 4.51171875 C-7.37244966 0.55899022 -4.68789347 -0.25363603 0 0 Z " fill="#FAEAEA" transform="translate(44.90625,49.48828125)"/>
<path d="M0 0 C1.1446875 0.3403125 1.1446875 0.3403125 2.3125 0.6875 C2.3125 2.3375 2.3125 3.9875 2.3125 5.6875 C3.6325 5.6875 4.9525 5.6875 6.3125 5.6875 C7.55078125 7.26171875 7.55078125 7.26171875 8.625 9.375 C11.17522651 13.86180476 13.96910381 15.9622318 18.3125 18.6875 C17.3125 20.6875 17.3125 20.6875 15.17578125 21.8046875 C11.81351037 22.84134946 9.01206107 22.88345073 5.5 22.8125 C4.33855469 22.79445313 3.17710938 22.77640625 1.98046875 22.7578125 C1.10003906 22.73460938 0.21960938 22.71140625 -0.6875 22.6875 C-1.9375 16.0625 -1.9375 16.0625 0.3125 12.6875 C-1.3375 12.6875 -2.9875 12.6875 -4.6875 12.6875 C-5.8720131 9.13396071 -5.95391894 6.41736522 -5.6875 2.6875 C-3.97907171 -0.18985291 -3.34260852 -0.38867541 0 0 Z " fill="#722D30" transform="translate(75.6875,61.3125)"/>
<path d="M0 0 C1.68401189 0.94359766 3.30400334 1.99954389 4.91015625 3.0703125 C4.91015625 4.0603125 4.91015625 5.0503125 4.91015625 6.0703125 C3.1171875 7.39453125 3.1171875 7.39453125 0.72265625 8.7578125 C-3.58902998 11.44922671 -5.78045308 14.05879057 -8.1171875 18.53125 C-8.43816406 19.03914063 -8.75914063 19.54703125 -9.08984375 20.0703125 C-9.74984375 20.0703125 -10.40984375 20.0703125 -11.08984375 20.0703125 C-11.08984375 19.4103125 -11.08984375 18.7503125 -11.08984375 18.0703125 C-12.40984375 18.0703125 -13.72984375 18.0703125 -15.08984375 18.0703125 C-14.75984375 16.7503125 -14.42984375 15.4303125 -14.08984375 14.0703125 C-14.08984375 15.0603125 -14.08984375 16.0503125 -14.08984375 17.0703125 C-10.8400124 15.98246282 -10.8400124 15.98246282 -8.08984375 14.0703125 C-7.85163454 12.03760688 -7.85163454 12.03760688 -7.83984375 9.6953125 C-7.8140625 8.90382813 -7.78828125 8.11234375 -7.76171875 7.296875 C-7.92252542 5.0161761 -7.92252542 5.0161761 -9.36328125 3.3125 C-11.8067829 1.5545056 -14.14486825 1.53865903 -17.08984375 1.65234375 C-20.53716628 2.37278029 -22.02916744 4.34294679 -24.08984375 7.0703125 C-25.91579848 10.63092422 -26.53898253 14.12247377 -27.08984375 18.0703125 C-27.74984375 18.0703125 -28.40984375 18.0703125 -29.08984375 18.0703125 C-26.71694738 2.83382003 -26.71694738 2.83382003 -20.46484375 -1.9296875 C-12.98658183 -4.14546881 -6.96034986 -3.41069776 0 0 Z " fill="#379D4F" transform="translate(93.08984375,48.9296875)"/>
<path d="M0 0 C0.99 0.33 1.98 0.66 3 1 C2.34 1 1.68 1 1 1 C1.02320312 1.73605469 1.04640625 2.47210937 1.0703125 3.23046875 C1.09738281 4.69419922 1.09738281 4.69419922 1.125 6.1875 C1.14820312 7.15042969 1.17140625 8.11335938 1.1953125 9.10546875 C0.98414413 12.23498402 0.55339384 14.27208887 -1 17 C-3.1640625 18.14453125 -3.1640625 18.14453125 -5.625 18.8125 C-6.44226563 19.04582031 -7.25953125 19.27914062 -8.1015625 19.51953125 C-8.72804688 19.67808594 -9.35453125 19.83664063 -10 20 C-11.13217542 16.99223276 -11.90757169 14.2247212 -12 11 C-9.56855938 6.06053796 -4.76500125 2.541334 0 0 Z " fill="#9FC040" transform="translate(80,29)"/>
<path d="M0 0 C3.4375 0.75 3.4375 0.75 5.4375 2.75 C5.90126812 10.05434783 5.90126812 10.05434783 3.4375 13.75 C-3.50225904 14.52108434 -3.50225904 14.52108434 -6.625 12.25 C-8.07900718 8.37264751 -7.47492396 5.79073466 -6.5625 1.75 C-3.5625 -0.25 -3.5625 -0.25 0 0 Z " fill="#1C1C1C" transform="translate(56.5625,117.25)"/>
<path d="M0 0 C2.64 0 5.28 0 8 0 C11.01921317 5.19304666 11.01921317 5.19304666 10.9375 8.625 C9.77114666 11.57976178 8.54979741 13.10586478 6 15 C3.16049782 15 1.97998543 13.98539477 -0.3125 12.3125 C-2 10 -2 10 -1.8125 7 C-1.544375 6.01 -1.27625 5.02 -1 4 C-0.814375 3.21625 -0.62875 2.4325 -0.4375 1.625 C-0.293125 1.08875 -0.14875 0.5525 0 0 Z " fill="#FBF7F6" transform="translate(56,71)"/>
<path d="M0 0 C1.21236328 0.02707031 1.21236328 0.02707031 2.44921875 0.0546875 C3.37154297 0.08949219 3.37154297 0.08949219 4.3125 0.125 C4.3125 1.445 4.3125 2.765 4.3125 4.125 C1.6725 4.125 -0.9675 4.125 -3.6875 4.125 C-3.3575 4.785 -3.0275 5.445 -2.6875 6.125 C-0.3734378 6.85575648 1.96078869 7.52638258 4.3125 8.125 C4.3125 10.765 4.3125 13.405 4.3125 16.125 C1.78774538 17.38737731 0.00049534 17.22356404 -2.8125 17.1875 C-3.72257812 17.17847656 -4.63265625 17.16945312 -5.5703125 17.16015625 C-6.61832031 17.14275391 -6.61832031 17.14275391 -7.6875 17.125 C-7.6875 16.135 -7.6875 15.145 -7.6875 14.125 C-5.0475 14.125 -2.4075 14.125 0.3125 14.125 C-0.0175 13.135 -0.3475 12.145 -0.6875 11.125 C-3.66253122 9.96664327 -3.66253122 9.96664327 -6.6875 9.125 C-7.6875 8.125 -7.6875 8.125 -7.9375 5.1875 C-7.855 4.176875 -7.7725 3.16625 -7.6875 2.125 C-4.48369983 -0.01086678 -3.66810033 -0.10632175 0 0 Z " fill="#121212" transform="translate(32.6875,113.875)"/>
<path d="M0 0 C3 1 3 1 4.8125 3.3125 C7.23172659 6.28469266 9.75051411 8.00599729 13 10 C12 12 12 12 9.86328125 13.1171875 C6.50101037 14.15384946 3.69956107 14.19595073 0.1875 14.125 C-0.97394531 14.10695313 -2.13539062 14.08890625 -3.33203125 14.0703125 C-4.21246094 14.04710938 -5.09289062 14.02390625 -6 14 C-6.33 12.35 -6.66 10.7 -7 9 C-2.545 8.505 -2.545 8.505 2 8 C2 7.34 2 6.68 2 6 C1.34 6 0.68 6 0 6 C-0.66 4.35 -1.32 2.7 -2 1 C-1.34 0.67 -0.68 0.34 0 0 Z " fill="#A42238" transform="translate(81,70)"/>
<path d="M0 0 C3.96 0 7.92 0 12 0 C12 0.99 12 1.98 12 3 C13.65 3.33 15.3 3.66 17 4 C16.835 4.9075 16.67 5.815 16.5 6.75 C15.89862854 10.11087503 15.89862854 10.11087503 16 14 C18.31 14 20.62 14 23 14 C23 14.33 23 14.66 23 15 C17.62449542 15.21502018 13.01342137 15.25603962 8 13 C6.69882549 10.39765097 6.46748118 7.86332224 6 5 C5.67 4.01 5.34 3.02 5 2 C3.35 1.67 1.7 1.34 0 1 C0 0.67 0 0.34 0 0 Z " fill="#99484E" transform="translate(59,70)"/>
<path d="M0 0 C1.32 0 2.64 0 4 0 C4.33 2.97 4.66 5.94 5 9 C5.99 9.33 6.98 9.66 8 10 C8 6.7 8 3.4 8 0 C9.32 0 10.64 0 12 0 C12 3.96 12 7.92 12 12 C9.78704384 13.10647808 8.45327301 13.19588368 6 13.25 C4.948125 13.28867188 4.948125 13.28867188 3.875 13.328125 C3.25625 13.21984375 2.6375 13.1115625 2 13 C-0.20914 9.68629 -0.22481553 8.6553979 -0.125 4.8125 C-0.10695312 3.91144531 -0.08890625 3.01039062 -0.0703125 2.08203125 C-0.04710937 1.39496094 -0.02390625 0.70789063 0 0 Z " fill="#101010" transform="translate(63,118)"/>
<path d="M0 0 C1.23556641 0.01740234 1.23556641 0.01740234 2.49609375 0.03515625 C3.32238281 0.04417969 4.14867188 0.05320312 5 0.0625 C5.63808594 0.07410156 6.27617188 0.08570312 6.93359375 0.09765625 C6.60359375 1.08765625 6.27359375 2.07765625 5.93359375 3.09765625 C4.28359375 3.09765625 2.63359375 3.09765625 0.93359375 3.09765625 C0.93359375 3.42765625 0.93359375 3.75765625 0.93359375 4.09765625 C2.91359375 4.75765625 4.89359375 5.41765625 6.93359375 6.09765625 C7.05859375 8.47265625 7.05859375 8.47265625 6.93359375 11.09765625 C4.93359375 13.09765625 4.93359375 13.09765625 2.98828125 13.29296875 C0.97005208 13.22786458 -1.04817708 13.16276042 -3.06640625 13.09765625 C-3.06640625 12.10765625 -3.06640625 11.11765625 -3.06640625 10.09765625 C-1.08640625 10.09765625 0.89359375 10.09765625 2.93359375 10.09765625 C2.93359375 9.43765625 2.93359375 8.77765625 2.93359375 8.09765625 C-0.03640625 7.60265625 -0.03640625 7.60265625 -3.06640625 7.09765625 C-3.10894981 5.09810879 -3.10721408 3.09723989 -3.06640625 1.09765625 C-2.06640625 0.09765625 -2.06640625 0.09765625 0 0 Z " fill="#101010" transform="translate(89.06640625,117.90234375)"/>
<path d="M0 0 C2.01822917 0.06510417 4.03645833 0.13020833 6.0546875 0.1953125 C5.7246875 1.1853125 5.3946875 2.1753125 5.0546875 3.1953125 C3.4046875 3.1953125 1.7546875 3.1953125 0.0546875 3.1953125 C0.0546875 5.5053125 0.0546875 7.8153125 0.0546875 10.1953125 C1.7046875 10.1953125 3.3546875 10.1953125 5.0546875 10.1953125 C5.3846875 11.1853125 5.7146875 12.1753125 6.0546875 13.1953125 C0 13.390625 0 13.390625 -1.9453125 13.1953125 C-3.9453125 11.1953125 -3.9453125 11.1953125 -4.2109375 9.1015625 C-4.20320313 7.91046875 -4.20320313 7.91046875 -4.1953125 6.6953125 C-4.20046875 5.90125 -4.205625 5.1071875 -4.2109375 4.2890625 C-3.84652997 1.41667373 -2.92959728 0.29413627 0 0 Z " fill="#0F0F0F" transform="translate(42.9453125,117.8046875)"/>
<path d="M0 0 C0.99 0 1.98 0 3 0 C3 0.99 3 1.98 3 3 C4.32 3 5.64 3 7 3 C7 3.99 7 4.98 7 6 C5.68 6 4.36 6 3 6 C3.33 7.98 3.66 9.96 4 12 C5.32 12.33 6.64 12.66 8 13 C8 13.99 8 14.98 8 16 C5.66705225 16.04241723 3.33297433 16.04092937 1 16 C0 15 0 15 -0.09765625 11.62109375 C-0.09098369 10.22652923 -0.07902532 8.83198257 -0.0625 7.4375 C-0.05798828 6.72658203 -0.05347656 6.01566406 -0.04882812 5.28320312 C-0.03700864 3.52209987 -0.01907263 1.76103964 0 0 Z " fill="#050505" transform="translate(77,115)"/>
<path d="M0 0 C0.66 0 1.32 0 2 0 C2 0.99 2 1.98 2 3 C3.32 3 4.64 3 6 3 C6.33 5.64 6.66 8.28 7 11 C9.97 11.495 9.97 11.495 13 12 C13 12.66 13 13.32 13 14 C11.02 14 9.04 14 7 14 C6.67 14.99 6.34 15.98 6 17 C6 16.01 6 15.02 6 14 C4.35 13.67 2.7 13.34 1 13 C1 11.02 1 9.04 1 7 C2.32 7 3.64 7 5 7 C5 6.01 5 5.02 5 4 C3.68 4 2.36 4 1 4 C0.67 2.68 0.34 1.36 0 0 Z " fill="#D1D1D1" transform="translate(79,114)"/>
<path d="M0 0 C8.57142857 0.85714286 8.57142857 0.85714286 12 3 C12 5.31 12 7.62 12 10 C11.34 9.01 10.68 8.02 10 7 C7.05636102 6.32882152 7.05636102 6.32882152 4 6 C3.01 5.67 2.02 5.34 1 5 C0.67 3.35 0.34 1.7 0 0 Z " fill="#EA824F" transform="translate(39,39)"/>
<path d="M0 0 C2.97 0.33 5.94 0.66 9 1 C12.125 8.625 12.125 8.625 11 12 C10.29875 11.195625 9.5975 10.39125 8.875 9.5625 C5.73708407 6.76566189 4.11241237 6.28691249 0 6 C0 4 0 2 0 0 Z " fill="#D83735" transform="translate(41,44)"/>
<path d="M0 0 C0.804375 0.185625 1.60875 0.37125 2.4375 0.5625 C3.283125 0.706875 4.12875 0.85125 5 1 C5.33 0.67 5.66 0.34 6 0 C6.66 0.66 7.32 1.32 8 2 C8.33 1.34 8.66 0.68 9 0 C9.99 0.33 10.98 0.66 12 1 C12.33 2.65 12.66 4.3 13 6 C9.7 6 6.4 6 3 6 C3 5.34 3 4.68 3 4 C2.34 4 1.68 4 1 4 C0.67 4.66 0.34 5.32 0 6 C0 4.02 0 2.04 0 0 Z " fill="#565656" transform="translate(66,135)"/>
<path d="M0 0 C1.32 0 2.64 0 4 0 C3.45276317 3.37462715 2.9451 5.08235 1 8 C-1.375 7.75 -1.375 7.75 -4 7 C-5.3125 4.9375 -5.3125 4.9375 -6 3 C-5.195625 2.87625 -4.39125 2.7525 -3.5625 2.625 C-2.716875 2.41875 -1.87125 2.2125 -1 2 C-0.67 1.34 -0.34 0.68 0 0 Z " fill="#FAEAE5" transform="translate(51,71)"/>
<path d="M0 0 C3.41021743 0.78697325 6.68885166 1.87119943 10 3 C9.3125 4.9375 9.3125 4.9375 8 7 C5.375 7.75 5.375 7.75 3 8 C0 3.375 0 3.375 0 0 Z " fill="#EEE3E4" transform="translate(66,71)"/>
<path d="M0 0 C0.66 0.66 1.32 1.32 2 2 C1.625 5.625 1.625 5.625 1 9 C-1.97 8.505 -1.97 8.505 -5 8 C-5 5.69 -5 3.38 -5 1 C-2.625 0.375 -2.625 0.375 0 0 Z " fill="#E8E8E8" transform="translate(48,120)"/>
<path d="M0 0 C-0.99 0.33 -1.98 0.66 -3 1 C-3.12375 1.928125 -3.2475 2.85625 -3.375 3.8125 C-4 7 -4 7 -6 10 C-5.51421457 6.87709365 -5.0013988 4.00419641 -4 1 C-5.32 1 -6.64 1 -8 1 C-8.33 1.99 -8.66 2.98 -9 4 C-10.65 4 -12.3 4 -14 4 C-14.33 4.66 -14.66 5.32 -15 6 C-15 5.01 -15 4.02 -15 3 C-15.99 2.67 -16.98 2.34 -18 2 C-11.92972642 -0.1583195 -6.40629424 -0.20852314 0 0 Z " fill="#DF6E50" transform="translate(59,70)"/>
<path d="M0 0 C0.22577402 5.4185766 -0.53329887 9.77487721 -2 15 C-2.66 15 -3.32 15 -4 15 C-5.04560749 12.00303585 -5.84485282 9.18051709 -6 6 C-4.89169983 3.73302237 -2.81146511 0 0 0 Z " fill="#ADA143" transform="translate(74,34)"/>
<path d="M0 0 C0.33 0 0.66 0 1 0 C2.05948517 4.41452154 2.3447529 6.34615829 0.1875 10.4375 C-0.534375 11.283125 -1.25625 12.12875 -2 13 C-2.66 13 -3.32 13 -4 13 C-4 12.34 -4 11.68 -4 11 C-5.32 11 -6.64 11 -8 11 C-7.67 9.68 -7.34 8.36 -7 7 C-7 7.99 -7 8.98 -7 10 C-3.75016865 8.91215032 -3.75016865 8.91215032 -1 7 C-0.63239269 4.67182036 -0.29758419 2.3381615 0 0 Z " fill="#57A967" transform="translate(86,56)"/>
<path d="M0 0 C1.98 0 3.96 0 6 0 C5.67 1.65 5.34 3.3 5 5 C3.35 4.67 1.7 4.34 0 4 C0 2.68 0 1.36 0 0 Z " fill="#B0B0B0" transform="translate(50,136)"/>
<path d="M0 0 C1.32 0 2.64 0 4 0 C4 2.31 4 4.62 4 7 C2.68 7 1.36 7 0 7 C0 4.69 0 2.38 0 0 Z " fill="#F6F6F6" transform="translate(54,121)"/>
<path d="M0 0 C3 1 3 1 4.1875 3.0625 C4.455625 3.701875 4.72375 4.34125 5 5 C3.35 5.33 1.7 5.66 0 6 C-0.66 4.35 -1.32 2.7 -2 1 C-1.34 0.67 -0.68 0.34 0 0 Z " fill="#9D3D3E" transform="translate(81,70)"/>
<path d="M0 0 C1.65 0.33 3.3 0.66 5 1 C5 3.31 5 5.62 5 8 C4.34 7.01 3.68 6.02 3 5 C0.94074861 4.27617533 0.94074861 4.27617533 -1 4 C-0.67 2.68 -0.34 1.36 0 0 Z " fill="#DF6D46" transform="translate(46,41)"/>
<path d="M0 0 C1.65 0.33 3.3 0.66 5 1 C4.01 1.495 4.01 1.495 3 2 C3 2.99 3 3.98 3 5 C3.66 5.33 4.32 5.66 5 6 C2.625 6.1875 2.625 6.1875 0 6 C-0.66 5.01 -1.32 4.02 -2 3 C-1.34 2.01 -0.68 1.02 0 0 Z " fill="#812D34" transform="translate(68,78)"/>
<path d="M0 0 C0 0.66 0 1.32 0 2 C-5.75 5 -5.75 5 -8 5 C-8 4.01 -8 3.02 -8 2 C-4.91190305 0.23537317 -3.76687864 0 0 0 Z " fill="#0C8C4D" transform="translate(78,47)"/>
<path d="M0 0 C0.99 0 1.98 0 3 0 C3 1.98 3 3.96 3 6 C1.68 6 0.36 6 -1 6 C-1.33 5.34 -1.66 4.68 -2 4 C-1.0625 1.875 -1.0625 1.875 0 0 Z " fill="#626262" transform="translate(46,135)"/>
<path d="M0 0 C0.99 0.33 1.98 0.66 3 1 C3.33 2.65 3.66 4.3 4 6 C2.35 5.67 0.7 5.34 -1 5 C-0.67 3.35 -0.34 1.7 0 0 Z " fill="#4A4A4A" transform="translate(75,135)"/>
<path d="M0 0 C0.66 0 1.32 0 2 0 C1.690625 0.5775 1.38125 1.155 1.0625 1.75 C0.07416636 3.84294184 -0.5168613 5.74535275 -1 8 C-1.66 8 -2.32 8 -3 8 C-2.25 2.25 -2.25 2.25 0 0 Z " fill="#EC7864" transform="translate(8,40)"/>
</svg>
