<?xml version="1.0" encoding="UTF-8"?>
<svg version="1.1" xmlns="http://www.w3.org/2000/svg" width="3807" height="1617">
<path d="M0 0 C11.65059313 9.15905063 20.53921876 20.30426989 28 33 C28.54092285 33.91700684 28.54092285 33.91700684 29.09277344 34.85253906 C61.37867499 90.51888684 89.55886229 184.82901307 88 250 C88.69609375 249.84144531 89.3921875 249.68289063 90.109375 249.51953125 C98.89935019 247.93971139 107.34378958 248.09423492 115 253 C123.21211813 259.71900574 126.78903951 268.63532244 128 279 C128.31173464 283.58285752 128.44353129 288.17157517 128.59570312 292.76196289 C129.57829066 318.84296256 140.37173355 340.17544301 158.921875 358.21875 C199.62461988 395.71779496 263.20185364 408.58257087 314.59754944 424.33035278 C340.29433267 432.20874053 365.60486698 440.6672865 389.875 452.3125 C391.6391626 453.15615112 391.6391626 453.15615112 393.43896484 454.0168457 C405.10052662 459.7647285 418.83900867 467.30973288 424.37890625 479.79296875 C425.93530771 485.32357771 425.67784001 490.79701996 424 496.25 C416.21480758 506.95463958 404.54323346 510.20861399 392.46240234 514.28320312 C375.93769345 519.89348775 360.50318955 527.0355025 345 535 C343.72189453 535.6487207 343.72189453 535.6487207 342.41796875 536.31054688 C332.17374881 541.5548196 322.5793309 547.76904892 313 554.125 C312.13927887 554.69486633 312.13927887 554.69486633 311.26116943 555.27624512 C300.08843266 562.70012115 289.79131362 570.83614761 280 580 C279.06285156 580.87140625 278.12570312 581.7428125 277.16015625 582.640625 C249.51175883 608.94166143 233.5938349 645.06806066 217.734375 679.12109375 C214.91350976 685.16421747 211.95300714 691.0636321 208.5625 696.8125 C208.09859863 697.60454834 207.63469727 698.39659668 207.15673828 699.21264648 C200.88345381 709.75438453 193.43293588 719.0939291 185 728 C183.73542969 729.36125 183.73542969 729.36125 182.4453125 730.75 C175.84792295 737.63423257 168.98408744 742.82417952 161 748 C158.99691564 749.32875621 156.99865201 750.66457781 155 752 C162.04570371 759.54896826 169.77208861 765.81949443 178 772 C178.68239746 772.5161084 179.36479492 773.0322168 180.06787109 773.56396484 C190.86078294 781.68646551 202.0519034 788.7877499 213.69042969 795.62744141 C217.12542011 797.66882789 220.50906349 799.7845466 223.875 801.9375 C224.92429687 802.60652344 225.97359375 803.27554688 227.0546875 803.96484375 C235.34751773 809.69503546 235.34751773 809.69503546 237 813 C237.5625 816.1875 237.5625 816.1875 237 820 C230.14596582 828.79632179 218.02697114 832.58614559 207.9375 836.3125 C206.37938599 836.88943604 206.37938599 836.88943604 204.78979492 837.47802734 C156.07996454 855.30842263 104.93898443 865.35900648 53 865.0625 C51.4348973 865.0574649 49.86979299 865.05290562 48.3046875 865.04882812 C44.53641734 865.03800474 40.76822743 865.02085616 37 865 C37.07001221 866.01360596 37.14002441 867.02721191 37.2121582 868.0715332 C42.14442123 941.55590939 29.29439144 1039.44295994 -20.71240234 1097.52929688 C-34.16796394 1112.89833424 -51.49080201 1123.53537535 -72 1126 C-104.60390295 1127.92659427 -129.98531177 1111.49816757 -153.75708008 1090.83935547 C-162.19636259 1083.32945831 -170.0281888 1075.14645034 -177.96459961 1067.11444092 C-181.24954311 1063.79097311 -184.54007823 1060.47307318 -187.83340454 1057.15791321 C-189.57484838 1055.40438849 -191.31361543 1053.64819966 -193.04916382 1051.88883972 C-197.33028806 1047.57254962 -201.67803334 1043.41539829 -206.29858398 1039.46302795 C-208.8121259 1037.30166233 -211.20926623 1035.01953663 -213.625 1032.75 C-219.49768483 1027.32308108 -225.64989202 1022.34267579 -232.01611328 1017.50830078 C-233.38829635 1016.4650634 -234.75619813 1015.41617952 -236.12060547 1014.36279297 C-248.49677467 1004.82402054 -261.35754325 996.60824655 -275 989 C-275.87414551 988.50870605 -276.74829102 988.01741211 -277.64892578 987.51123047 C-303.77442533 972.94265293 -332.42896929 962.70911366 -362 958 C-362.87672363 957.85578613 -363.75344727 957.71157227 -364.65673828 957.56298828 C-382.27287583 954.7857678 -399.93724 954.5316436 -417.73193359 954.2902832 C-448.4446629 953.87360829 -448.4446629 953.87360829 -455 950 C-457 947 -457 947 -457.0625 943.8125 C-454.23663051 933.67261537 -444.66283493 928.802551 -436.29248047 923.46728516 C-419.48343083 912.70877734 -403.70881758 901.51761053 -389 888 C-387.71217819 886.87060071 -386.42064578 885.745415 -385.125 884.625 C-375.08084139 875.84913034 -365.50177931 866.66377327 -356.08911133 857.21948242 C-354.17577806 855.30074495 -352.25709496 853.38747246 -350.33789062 851.47460938 C-344.34388274 845.48384941 -338.48262329 839.46821932 -333 833 C-331.38032183 831.22429779 -329.75588282 829.45291693 -328.125 827.6875 C-323.20418186 822.28497526 -318.57369194 816.69705487 -314 811 C-312.92374069 809.68052966 -311.84688089 808.36154898 -310.76953125 807.04296875 C-309.65853397 805.6747391 -308.54785456 804.30625128 -307.4375 802.9375 C-306.90012207 802.28168945 -306.36274414 801.62587891 -305.80908203 800.95019531 C-302.97847677 797.86362261 -302.97847677 797.86362261 -302 794 C-302.80945068 794.36798706 -302.80945068 794.36798706 -303.63525391 794.7434082 C-409.99904215 842.77902519 -409.99904215 842.77902519 -456.23046875 827.96484375 C-467.34118864 823.58533312 -476.54578736 817.84292215 -482.0625 806.890625 C-489.40486474 788.67591248 -482.99457285 766.85282702 -479.34094238 748.46990967 C-471.99536511 711.46531396 -471.08678048 675.76958163 -490 642 C-490.54398438 641.02546875 -491.08796875 640.0509375 -491.6484375 639.046875 C-518.55337346 594.1615672 -574.15794897 573.16047384 -618.95507812 551.36254883 C-652.84616792 534.85144542 -652.84616792 534.85144542 -668.5 525.25 C-669.45503418 524.66492676 -670.41006836 524.07985352 -671.39404297 523.47705078 C-686.10852577 514.33087018 -699.6112085 504.1039917 -712 492 C-712.7321875 491.3296875 -713.464375 490.659375 -714.21875 489.96875 C-728.92458189 476.19662172 -738.53850966 457.22418485 -740.34765625 437.140625 C-740.81416482 417.58783091 -734.14380085 400.38023202 -721 386 C-720.48308594 385.40316406 -719.96617187 384.80632812 -719.43359375 384.19140625 C-686.33831885 348.27598261 -624.05768776 341.23248911 -578.3671875 337.37890625 C-577.60526596 337.31438137 -576.84334442 337.24985649 -576.05833435 337.18337631 C-558.37445133 335.72254492 -540.73223269 335.52504562 -522.99720764 335.61347961 C-520.45040613 335.62522879 -517.90363397 335.63172095 -515.35681152 335.63708496 C-489.14729504 335.70151765 -463.0913536 336.3319505 -437 339 C-435.86981445 339.11245056 -435.86981445 339.11245056 -434.71679688 339.22717285 C-413.35818656 341.35365403 -392.17422496 344.50761103 -371 348 C-371.23976563 346.09734375 -371.23976563 346.09734375 -371.484375 344.15625 C-373.85716068 322.61606791 -372.9018069 299.28045987 -359.2421875 281.54296875 C-350.4941839 271.62145247 -336.98906758 267.09119257 -324 266 C-319.36242692 265.88664517 -314.72829171 265.93168977 -310.08984375 265.97265625 C-308.71766004 265.97962402 -307.34547228 265.98582922 -305.97328186 265.99131775 C-300.18840822 266.0155083 -294.40364188 266.0504937 -288.61889648 266.09594727 C-240.40896933 266.97505287 -240.40896933 266.97505287 -199.91015625 243.10546875 C-171.27014356 213.48876556 -156.2999997 169.25908891 -141.03662109 131.77587891 C-93.07891222 14.01277147 -93.07891222 14.01277147 -53.609375 -4.55859375 C-35.60097832 -11.75025866 -16.23760901 -10.93650725 0 0 Z " fill="#EA6851" transform="translate(981,250)"/>
<path d="M0 0 C3.43044131 1.46580378 5.51375528 3.361307 8.0625 6.0625 C12.16651942 10.26024907 16.49067675 13.96656671 21.0703125 17.6328125 C23.59925921 19.67620144 26.07684689 21.76677016 28.54077148 23.88769531 C34.10871808 28.67566603 39.82613885 33.2009913 45.6875 37.625 C52.08450169 42.47031655 58.20485102 47.43591757 64 53 C64.7412915 53.69464355 64.7412915 53.69464355 65.49755859 54.40332031 C88.74751607 76.24825454 106.61423332 106.56015672 108.14282227 139.03417969 C109.17702696 175.73654386 98.19701821 204.99028147 82.3425293 237.59375 C67.91017069 267.09237853 67.91017069 267.09237853 57 298 C56.79858398 298.69754395 56.59716797 299.39508789 56.38964844 300.11376953 C49.34292832 324.76666141 46.25744447 349.4540228 45 375 C48.96 375 52.92 375 57 375 C56.95359375 373.94167969 56.9071875 372.88335938 56.859375 371.79296875 C55.47425168 324.90417441 72.36307055 273.000778 100 235 C100.4228125 234.40799805 100.845625 233.81599609 101.28125 233.20605469 C117.56423259 210.63079147 139.86908549 190.98876146 167 183 C167.93714844 182.70222656 168.87429688 182.40445313 169.83984375 182.09765625 C195.08811117 175.32525325 220.48117518 180.54798413 243.02734375 192.62109375 C250.54848502 197.12082963 256.78844367 202.87794737 263 209 C263.64710938 209.63421875 264.29421875 210.2684375 264.9609375 210.921875 C282.49526963 229.52637764 289.29731736 253.44870781 289.4375 278.4375 C289.4475708 279.59765625 289.4576416 280.7578125 289.46801758 281.953125 C289.39004399 289.69518369 288.23782518 296.59661276 286 304 C285.78641846 304.71921631 285.57283691 305.43843262 285.3527832 306.17944336 C278.00923754 329.53989746 262.87851967 347.51147062 241.75 359.8125 C228.4378671 366.61894131 215.68851334 367.61202139 201 367 C200.13173283 363.52693133 200.05766079 361.41279607 201 358 C202.01069232 342.91736075 199.04138706 329.30288705 189.5625 317.3125 C183.5432046 310.83283784 173.83073419 305.59280372 164.96044922 304.82299805 C150.19552562 304.40329297 140.28556377 305.71805261 129 316 C114.1285244 330.16599764 107.71754183 349.82522213 103.76171875 369.4296875 C103 373 103 373 102 375 C103.051875 375.061875 104.10375 375.12375 105.1875 375.1875 C109.66337256 376.14137448 111.12282867 377.53046987 114 381 C115.86581821 384.73163642 115.55464677 388.93674501 115 393 C113.38042644 396.30634934 111.13025494 398.39949981 107.85517788 400.1395359 C104.06195113 401.28269951 100.42844445 401.28272069 96.50465393 401.26742554 C95.22440217 401.27422221 95.22440217 401.27422221 93.91828674 401.28115618 C91.05948307 401.29381251 88.2008696 401.29217902 85.34204102 401.29052734 C83.291949 401.29651175 81.24185925 401.30331709 79.19177246 401.31088257 C73.6236494 401.32855688 68.0555878 401.3332385 62.48743939 401.33451414 C57.84018362 401.33641299 53.19294217 401.34377022 48.54569191 401.35085833 C37.58310688 401.36714468 26.62055471 401.37202699 15.65795898 401.37060547 C4.34543296 401.36940337 -6.96690248 401.39051832 -18.27938026 401.4220928 C-27.98990701 401.44823126 -37.70037141 401.45897381 -47.41093308 401.45769465 C-53.21152289 401.45718438 -59.01194329 401.46290369 -64.81249809 401.48405075 C-70.26674516 401.50339257 -75.72066046 401.50358529 -81.17491913 401.48901749 C-83.17681677 401.48692338 -85.17873497 401.49166595 -87.18059731 401.5037384 C-89.91334657 401.51915149 -92.64494617 401.50990897 -95.37767029 401.49447632 C-96.56615111 401.50990701 -96.56615111 401.50990701 -97.77864164 401.52564943 C-102.95481027 401.4610426 -105.89061965 400.41236033 -110 397 C-112.59178304 393.19871822 -113.6733701 389.68306606 -113.4765625 385.03125 C-112.56913101 381.16350922 -110.26460768 378.20408933 -107 376 C-103.28515625 375.30859375 -103.28515625 375.30859375 -100 375 C-104.78414918 353.30672934 -110.55768242 331.87636825 -127 316 C-127.6084375 315.40574219 -128.216875 314.81148437 -128.84375 314.19921875 C-138.47574031 305.37719126 -148.36567512 304.44268145 -160.9296875 304.66796875 C-172.37674406 305.18099618 -180.39530203 310.74347077 -188 319 C-198.0965989 330.83739181 -199.01725019 345.12313839 -198 360 C-197.72958 362.35011712 -197.38301548 364.66453977 -197 367 C-221.64856821 367.90086138 -239.68758751 362.12771439 -258.625 345.7265625 C-276.567733 328.84917928 -286.30726941 305.305181 -287.23828125 280.90625 C-287.81243419 252.90148992 -278.63367088 227.93734306 -259.45581055 207.28930664 C-243.82139384 191.33521203 -222.07238974 180.34135821 -199.57421875 179.69921875 C-197.27868791 179.68478145 -194.98306715 179.68104089 -192.6875 179.6875 C-190.9869043 179.66333008 -190.9869043 179.66333008 -189.25195312 179.63867188 C-161.1170631 179.6226406 -137.12279149 193.49910831 -117 212 C-116.32710937 212.60199219 -115.65421875 213.20398438 -114.9609375 213.82421875 C-94.39391686 233.172814 -79.23762143 261.75023723 -70 288 C-69.75733398 288.66950684 -69.51466797 289.33901367 -69.26464844 290.02880859 C-63.43570789 306.17077355 -59.61400025 322.65565981 -56.75 339.5625 C-56.58677246 340.52494629 -56.42354492 341.48739258 -56.25537109 342.47900391 C-54.50144037 353.33320139 -53.8692048 364.01320282 -54 375 C-50.37 375 -46.74 375 -43 375 C-43.38334329 369.52256978 -43.77428539 364.04575053 -44.171875 358.56933594 C-44.30573336 356.71140762 -44.4376171 354.85333583 -44.56738281 352.99511719 C-45.27307708 342.90911765 -45.9916622 332.92886103 -48 323 C-48.2371875 321.80632812 -48.474375 320.61265625 -48.71875 319.3828125 C-54.54658807 295.08072773 -63.23987934 271.07487972 -74.57861328 248.81542969 C-96.82805577 204.99624129 -115.60082989 160.29982291 -100.33544922 110.84716797 C-89.69523649 78.59178151 -65.53995957 54.02123517 -39.0390625 34.05859375 C-33.90160454 30.18583251 -28.92482317 26.1390964 -24 22 C-23.4524707 21.54270508 -22.90494141 21.08541016 -22.34082031 20.61425781 C-14.52079242 14.07096917 -7.06835749 7.36151517 0 0 Z " fill="#FEFEFE" transform="translate(849,546)"/>
<path d="M0 0 C0.933815 0.00060425 1.86763 0.0012085 2.82974243 0.00183105 C48.02902524 0.08057963 107.88795902 1.0813637 149.3125 22.1875 C148.73282441 28.24886751 147.8026911 34.00907145 146.36303711 39.92016602 C146.16781967 40.74078018 145.97260223 41.56139435 145.77146912 42.40687561 C145.13272059 45.08630777 144.48635761 47.76383821 143.83984375 50.44140625 C143.3923942 52.31173058 142.94542591 54.18217009 142.49891663 56.05271912 C141.3282692 60.95120121 140.15113158 65.84810078 138.97259521 70.74468994 C137.76879099 75.7513726 136.57118708 80.7595376 135.37304688 85.76757812 C133.02556719 95.57567215 130.6712223 105.38210408 128.3125 115.1875 C126.48654549 114.7783712 126.48654549 114.7783712 124.623703 114.36097717 C123.0006927 113.99849546 121.37767063 113.63606642 119.75463867 113.27368164 C118.95539726 113.09445412 118.15615585 112.91522659 117.33269501 112.73056793 C110.45829296 111.19750205 103.56153615 109.84792418 96.625 108.625 C95.43293945 108.41447998 94.24087891 108.20395996 93.01269531 107.98706055 C8.54402117 92.75197461 8.54402117 92.75197461 -72 112.4375 C-72.65613281 112.93765625 -73.31226563 113.4378125 -73.98828125 113.953125 C-75.6875 115.1875 -75.6875 115.1875 -78.6875 116.1875 C-79.71401373 117.90269747 -79.71401373 117.90269747 -80.6875 120.1875 C-82.6875 123.4375 -82.6875 123.4375 -83.6875 125.015625 C-86.52443706 131.17709767 -87.04937005 137.38466398 -87 144.0625 C-86.99508545 144.85116455 -86.9901709 145.6398291 -86.98510742 146.45239258 C-86.80564338 155.39338301 -85.13949159 163.60582014 -78.6875 170.1875 C-57.70955382 188.00558818 -22.45865331 188.07161549 3.64208984 191.49285889 C51.31702604 197.75441228 103.13984966 207.23236946 134.7578125 247.28515625 C153.24928301 273.07919053 158.54648976 302.58294975 158.5 333.625 C158.49906342 334.42940521 158.49812683 335.23381042 158.49716187 336.06259155 C158.46733172 347.86842319 158.34233201 359.52655093 156.3125 371.1875 C156.16184082 372.07083008 156.01118164 372.95416016 155.85595703 373.86425781 C151.16087911 400.30282341 141.57284233 423.24513502 122.3125 442.1875 C121.4771875 443.02152344 120.641875 443.85554688 119.78125 444.71484375 C83.53220718 479.13966526 22.72501807 484.26496338 -24.609375 484.390625 C-25.34844337 484.39345238 -26.08751175 484.39627975 -26.84897614 484.39919281 C-30.77855259 484.41407347 -34.70809355 484.42336677 -38.63769531 484.42773438 C-41.80187832 484.43206931 -44.96578098 484.44578101 -48.12988281 484.46875 C-76.14229515 484.66770174 -103.92260193 483.3270701 -131.625 478.875 C-132.61432022 478.72017654 -132.61432022 478.72017654 -133.62362671 478.56222534 C-155.42423605 475.14228835 -176.74925241 470.16691586 -197.6875 463.1875 C-197.06851108 457.52186445 -196.07976902 452.10369414 -194.73803711 446.56835938 C-194.44521095 445.33765717 -194.44521095 445.33765717 -194.14646912 444.08209229 C-193.50665288 441.39749022 -192.86080132 438.71438034 -192.21484375 436.03125 C-191.76749325 434.15947267 -191.32052325 432.28760437 -190.87391663 430.41564941 C-189.70226852 425.50917741 -188.52548126 420.60395226 -187.34759521 415.69897461 C-186.14462077 410.68548032 -184.9465443 405.67081606 -183.74804688 400.65625 C-181.39930539 390.83218647 -179.04512939 381.00943406 -176.6875 371.1875 C-173.12607207 370.17845479 -170.95845427 370.3612824 -167.33203125 371.2265625 C-166.25244141 371.47494873 -165.17285156 371.72333496 -164.06054688 371.97924805 C-162.29807617 372.39170776 -162.29807617 372.39170776 -160.5 372.8125 C-123.20767392 381.11397368 -85.86074746 384.44110824 -47.6875 384.5 C-46.54213776 384.50367584 -45.39677551 384.50735168 -44.21670532 384.51113892 C-2.58727718 385.33919792 -2.58727718 385.33919792 33.28515625 367.56640625 C40.6607382 358.91182165 41.65274659 347.48372594 41.125 336.5 C40.06358694 325.04607009 37.34665993 317.79586054 28.3125 310.1875 C3.51393455 293.85815223 -30.23760772 292.57104426 -58.97412109 289.0015564 C-98.5627336 284.07928678 -139.65652899 277.36563232 -170.6875 250.1875 C-171.43515625 249.53523437 -172.1828125 248.88296875 -172.953125 248.2109375 C-186.13979799 235.90030222 -193.78391379 219.88216508 -198.4375 202.6875 C-198.73587769 201.58583496 -198.73587769 201.58583496 -199.0402832 200.46191406 C-202.56492001 186.56900844 -203.05769064 172.93187204 -203 158.6875 C-202.99817719 157.7568573 -202.99635437 156.8262146 -202.99447632 155.86737061 C-202.9490782 142.11277734 -202.54233683 128.6889675 -199.6875 115.1875 C-199.52121094 114.35782715 -199.35492187 113.5281543 -199.18359375 112.67333984 C-192.36502956 79.47072032 -175.19269251 50.68708003 -146.63745117 31.85546875 C-139.60848526 27.36758928 -132.2689339 23.64357223 -124.6875 20.1875 C-123.55570313 19.66542969 -122.42390625 19.14335938 -121.2578125 18.60546875 C-83.60265163 2.42484974 -40.49156062 -0.04895705 0 0 Z " fill="#231F20" transform="translate(1777.6875,625.8125)"/>
<path d="M0 0 C8.21211813 6.71900574 11.78903951 15.63532244 13 26 C13.31173464 30.58285752 13.44353129 35.17157517 13.59570312 39.76196289 C14.57829066 65.84296256 25.37173355 87.17544301 43.921875 105.21875 C84.62461988 142.71779496 148.20185364 155.58257087 199.59754944 171.33035278 C225.29433267 179.20874053 250.60486698 187.6672865 274.875 199.3125 C276.0511084 199.87493408 277.2272168 200.43736816 278.43896484 201.0168457 C290.10052662 206.7647285 303.83900867 214.30973288 309.37890625 226.79296875 C310.93530771 232.32357771 310.67784001 237.79701996 309 243.25 C301.21480758 253.95463958 289.54323346 257.20861399 277.46240234 261.28320312 C260.93769345 266.89348775 245.50318955 274.0355025 230 282 C229.14792969 282.43248047 228.29585937 282.86496094 227.41796875 283.31054688 C217.17374881 288.5548196 207.5793309 294.76904892 198 301.125 C197.13927887 301.69486633 197.13927887 301.69486633 196.26116943 302.27624512 C185.08843266 309.70012115 174.79131362 317.83614761 165 327 C163.59427734 328.30710937 163.59427734 328.30710937 162.16015625 329.640625 C134.51175883 355.94166143 118.5938349 392.06806066 102.734375 426.12109375 C99.91350976 432.16421747 96.95300714 438.0636321 93.5625 443.8125 C93.09859863 444.60454834 92.63469727 445.39659668 92.15673828 446.21264648 C85.88345381 456.75438453 78.43293588 466.0939291 70 475 C69.15695312 475.9075 68.31390625 476.815 67.4453125 477.75 C60.86448807 484.61694723 54.01391502 489.89830343 46 495 C45.15179687 495.598125 44.30359375 496.19625 43.4296875 496.8125 C41 498 41 498 38.53515625 498.0625 C34.91551398 496.54548506 32.85901841 493.97217501 30.4375 491 C29.91937744 490.37697998 29.40125488 489.75395996 28.86743164 489.11206055 C18.10443239 475.96739233 9.19306947 461.8556346 1 447 C0.40276123 445.92516357 0.40276123 445.92516357 -0.20654297 444.82861328 C-4.86416211 436.40584123 -9.09366401 427.8311323 -13.0625 419.0625 C-13.45711426 418.19117432 -13.85172852 417.31984863 -14.25830078 416.42211914 C-17 410.25728986 -17 410.25728986 -17 408 C-17.99 407.67 -18.98 407.34 -20 407 C-18.7625 406.62875 -17.525 406.2575 -16.25 405.875 C-6.36565375 402.54913507 2.05740946 397.70879006 10 391 C10.59167969 390.55269531 11.18335938 390.10539062 11.79296875 389.64453125 C17.66372209 385.06346285 21.77247576 379.06591552 26 373 C26.54785156 372.21882813 27.09570312 371.43765625 27.66015625 370.6328125 C31.06812048 365.38000363 33.44853289 359.79960167 35.75 354 C36.04406738 353.26442871 36.33813477 352.52885742 36.64111328 351.77099609 C44.97178684 329.95302476 43.02479288 303.22361191 34.75 281.625 C22.89349189 255.66396085 3.56456945 238.31952145 -22.59765625 227.97265625 C-46.19367637 219.60792954 -72.90213066 222.49614723 -95.21484375 233.0859375 C-136.35823523 253.47465755 -161.80662967 295.71114276 -176.21240234 337.87963867 C-184.65522093 363.9427293 -189.08502294 390.67689201 -190 418 C-193.96 418 -197.92 418 -202 418 C-203.64587487 374.78054496 -191.01643845 330.92090017 -171.37329102 292.67114258 C-162.4517154 275.25447774 -153.87684946 257.44072336 -147.63769531 238.875 C-147.05666009 237.16659628 -146.43288941 235.47287867 -145.8046875 233.78125 C-137.83730572 211.82668687 -136.88664119 185.51185346 -143 163 C-143.29003906 161.89398437 -143.58007812 160.78796875 -143.87890625 159.6484375 C-147.72852274 146.15061901 -153.82715497 133.9790153 -161 122 C-149.22703443 106.13919916 -136.80487893 90.94820683 -123.36181641 76.47509766 C-122.01615564 75.01749953 -120.68569478 73.54591638 -119.35546875 72.07421875 C-110.41285078 62.18889435 -101.222866 52.36927655 -91.03125 43.75390625 C-88.93267375 41.94186637 -86.91033423 40.05830869 -84.88745117 38.16259766 C-78.46263339 32.16195267 -71.72442285 26.68927301 -64.74804688 21.34521484 C-63.0253644 20.01951925 -61.31595664 18.67836758 -59.609375 17.33203125 C-43.66598254 4.80306858 -20.57851219 -13.18581138 0 0 Z " fill="#7DBB42" transform="translate(1096,503)"/>
<path d="M0 0 C0.99580078 0.87205078 0.99580078 0.87205078 2.01171875 1.76171875 C25.11220395 23.13909083 35.12643057 57.07254025 40.25 87.0625 C40.40114258 87.94583008 40.55228516 88.82916016 40.70800781 89.73925781 C41.19574892 92.82094487 41.60951719 95.9043834 42 99 C42.08720306 99.68140045 42.17440613 100.3628009 42.26425171 101.06484985 C44.16779467 116.47804218 44.3436451 131.88080217 44.31567383 147.38989258 C44.31105942 150.1592643 44.3179199 152.92819497 44.33618164 155.69750977 C44.65238868 204.15998462 39.66508005 259.46900768 7 298 C6.2678125 298.90492188 5.535625 299.80984375 4.78125 300.7421875 C-22.47136186 332.80942745 -65.0922162 342.16896879 -105.06665039 345.57885742 C-114.39270514 346.29664215 -123.71348169 346.34932742 -133.0625 346.3125 C-134.52011246 346.30976578 -134.52011246 346.30976578 -136.00717163 346.30697632 C-184.405755 346.15510775 -232.51592906 338.53191726 -268.47265625 303.59765625 C-301.52133629 268.56722115 -310.0357852 214.72051293 -310.203125 168.40625 C-310.20882507 167.13946411 -310.21452515 165.87267822 -310.22039795 164.56750488 C-310.2297886 161.89506475 -310.23671417 159.2227351 -310.24023438 156.55029297 C-310.24670388 152.56591381 -310.28088282 148.58191452 -310.3125 144.59765625 C-310.40662201 121.98298334 -309.17165678 99.27663851 -304.3125 77.125 C-304.05758789 75.93922363 -303.80267578 74.75344727 -303.54003906 73.53173828 C-298.28857621 50.13857309 -289.61041548 27.48670643 -274 9 C-273.15824219 7.99582031 -272.31648438 6.99164062 -271.44921875 5.95703125 C-244.29221827 -25.49734074 -202.32735539 -35.13310603 -162.5625 -38.1875 C-106.94444942 -42.00063841 -43.30789633 -39.43138533 0 0 Z M-184.484375 62.68359375 C-199.24181137 82.19535885 -199.14677842 112.82622307 -199.16796875 136.05859375 C-199.17129715 137.3641774 -199.17462555 138.66976105 -199.17805481 140.01490784 C-199.18399026 142.76377183 -199.18590075 145.51260468 -199.18530273 148.26147461 C-199.18522189 151.02944532 -199.19210748 153.79724907 -199.20581055 156.56518555 C-200.47155354 205.08510581 -200.47155354 205.08510581 -180.44921875 247.7109375 C-166.11512562 261.18977447 -143.967391 260.48992599 -125.609375 260.09326172 C-109.63747739 259.52240984 -94.62117399 256.296345 -83.25 244.3125 C-57.73671407 213.08376664 -64.87619167 146.97416131 -68.59375 109.6953125 C-70.58550898 91.55427043 -73.04513905 69.49499597 -88 57 C-101.15829994 48.39121658 -115.72748095 47.49474197 -130.94970703 47.60888672 C-133.49696375 47.62498082 -136.04263455 47.60894415 -138.58984375 47.58984375 C-155.34300078 47.56770713 -172.70518079 49.32350769 -184.484375 62.68359375 Z " fill="#231F20" transform="translate(2572,764)"/>
<path d="M0 0 C35.97 0 71.94 0 109 0 C109.06058594 14.0146875 109.12117188 28.029375 109.18359375 42.46875 C109.22412055 51.38281511 109.26487383 60.29687825 109.30664062 69.2109375 C109.37279529 83.33885695 109.43806342 97.46677625 109.49731445 111.59472656 C109.54048596 121.88761833 109.58684166 132.18049024 109.63687855 142.473351 C109.66321722 147.91345593 109.68805831 153.3535576 109.70907402 158.79368591 C106.06420349 213.99404063 106.06420349 213.99404063 125 263 C125.48855469 263.54011719 125.97710938 264.08023437 126.48046875 264.63671875 C138.32730364 276.24954208 157.11004574 276.40890012 172.625 276.375 C173.77086578 276.37617828 173.77086578 276.37617828 174.93988037 276.37738037 C192.10520492 276.35634498 208.26501544 273.71888546 225 270 C225.33 180.9 225.66 91.8 226 0 C261.97 0 297.94 0 335 0 C335 113.19 335 226.38 335 343 C329.00547881 345.39780848 323.53548957 347.56520469 317.421875 349.33203125 C316.74109894 349.52937363 316.06032288 349.726716 315.35891724 349.93003845 C313.15791032 350.56465376 310.95440439 351.18979498 308.75 351.8125 C307.60050873 352.13873352 307.60050873 352.13873352 306.42779541 352.47155762 C233.28919507 373.16841445 131.15295462 396.59327562 60.92333984 357.84008789 C32.09247897 340.95084704 16.95793368 313.34432001 8.3125 281.9375 C-1.67730684 243.67297202 -0.15154243 203.45478624 -0.10139394 164.26197124 C-0.09506915 158.47116258 -0.09454948 152.6803532 -0.09336853 146.88954163 C-0.09028177 135.9645434 -0.08210482 125.03955538 -0.07201904 114.11456162 C-0.05866501 99.32283207 -0.05333651 84.53109965 -0.04751682 69.73936558 C-0.03816263 46.49290276 -0.01822617 23.24646148 0 0 Z " fill="#231F20" transform="translate(2647,735)"/>
<path d="M0 0 C11.65059313 9.15905063 20.53921876 20.30426989 28 33 C28.36061523 33.61133789 28.72123047 34.22267578 29.09277344 34.85253906 C61.74680523 91.15360556 89.27502945 185.17891443 88 251 C86.23849609 251.85658203 86.23849609 251.85658203 84.44140625 252.73046875 C72.54492458 258.66502117 62.27851101 265.60308187 52 274 C51.00613281 274.7940625 50.01226563 275.588125 48.98828125 276.40625 C46.29843734 278.57383225 43.64365182 280.77633258 41 283 C40.43651855 283.47324707 39.87303711 283.94649414 39.29248047 284.43408203 C30.13522564 292.13979855 30.13522564 292.13979855 21.5390625 300.45703125 C19.92874511 302.07143574 18.24177054 303.52875978 16.5 305 C7.67582416 312.61538463 -0.75473292 321.08541438 -8.2734375 329.9921875 C-10.11132307 332.12945714 -12.01753909 334.19636123 -13.93579102 336.26147461 C-23.00012724 346.03004595 -31.170982 356.43610897 -39.30395508 366.98291016 C-39.88298584 367.73233887 -40.4620166 368.48176758 -41.05859375 369.25390625 C-41.57736084 369.92752197 -42.09612793 370.6011377 -42.63061523 371.29516602 C-44 373 -44 373 -46 375 C-47.12921875 373.5459375 -47.12921875 373.5459375 -48.28125 372.0625 C-60.56687603 356.46179862 -73.9279824 343.36489457 -89.89306641 331.58105469 C-103.8904303 321.07735497 -117.95465796 309.71868414 -130 297 C-134.04177928 298.59569064 -136.62731096 301.48398002 -139.5625 304.5625 C-145.04793661 310.17245368 -150.84621091 315.12759115 -157 320 C-158.2647706 321.02910326 -159.52767352 322.06050462 -160.7890625 323.09375 C-166.51369258 327.78061803 -172.23423814 332.45670488 -178.1418457 336.91210938 C-200.43565971 353.72639023 -218.33238326 375.03542341 -229 401 C-233.55639957 399.3575769 -237.5680542 397.02752388 -241.75 394.625 C-257.84275374 385.54470288 -274.63620094 377.35055105 -292 371 C-292.76231934 370.71237793 -293.52463867 370.42475586 -294.31005859 370.12841797 C-316.78367273 361.68280846 -340.45182814 354.98030554 -364.17431641 351.13964844 C-366.12643869 350.81640874 -368.06575877 350.41710453 -370 350 C-376.96916669 336.06166662 -372.21821553 311.47363796 -368.19140625 297.1171875 C-364.421668 286.42788527 -357.17574245 277.12121245 -347 272 C-334.6840763 267.07743663 -323.26774319 265.85626988 -310.08984375 265.97265625 C-308.71766004 265.97962402 -307.34547228 265.98582922 -305.97328186 265.99131775 C-300.18840822 266.0155083 -294.40364188 266.0504937 -288.61889648 266.09594727 C-240.40896933 266.97505287 -240.40896933 266.97505287 -199.91015625 243.10546875 C-171.27014356 213.48876556 -156.2999997 169.25908891 -141.03662109 131.77587891 C-93.07891222 14.01277147 -93.07891222 14.01277147 -53.609375 -4.55859375 C-35.60097832 -11.75025866 -16.23760901 -10.93650725 0 0 Z " fill="#FEC52E" transform="translate(981,250)"/>
<path d="M0 0 C29.37 0 58.74 0 89 0 C89.33 3.63 89.66 7.26 90 11 C91.40778555 20.56078816 93.9691642 29.59564448 97.01831055 38.7421875 C97.27394775 39.51304687 97.52958496 40.28390625 97.79296875 41.078125 C98.0252417 41.76293945 98.25751465 42.44775391 98.49682617 43.15332031 C99 45 99 45 99 48 C99.59095459 48.27779297 100.18190918 48.55558594 100.79077148 48.84179688 C102.85760098 49.92534634 104.53120357 51.07658821 106.34765625 52.53125 C107.25547852 53.25248047 107.25547852 53.25248047 108.18164062 53.98828125 C108.80232422 54.48714844 109.42300781 54.98601563 110.0625 55.5 C111.30261128 56.49055328 112.54347004 57.48017165 113.78515625 58.46875 C114.33051025 58.90638672 114.87586426 59.34402344 115.43774414 59.79492188 C116.9093247 60.93005575 118.45362199 61.96908133 120 63 C118.69191721 59.49407253 117.09454283 56.23822775 115.3347168 52.9387207 C106.90449045 36.95008267 100 18.17647873 100 0 C113.53 0 127.06 0 141 0 C141.99 4.62 142.98 9.24 144 14 C150.10124745 27.17314789 157.59090275 33.62785639 171 39 C177.10356741 40.82089176 182.96828382 41.32312465 189.3125 41.25 C190.13339111 41.24613281 190.95428223 41.24226562 191.80004883 41.23828125 C198.32981373 41.14605112 204.61845581 40.42661267 211 39 C209.66562456 53.67812981 203.61941571 65.77453035 193 76 C190.63488235 77.96246725 188.24106127 79.8259002 185.75 81.625 C183.87284003 82.89848134 183.87284003 82.89848134 183 85 C185.64 85 188.28 85 191 85 C205.11920272 110.9893289 212.43271947 143.5470556 213 173 C213.02046387 173.88896973 213.04092773 174.77793945 213.06201172 175.69384766 C214.48799145 247.66457698 200.15105805 341.1779229 148.625 395.8125 C132.92427565 410.86837317 113.69894862 418.44124601 92.0234375 418.20703125 C52.88013522 416.67107596 22.75418982 385.1430279 -2.96459961 359.11444092 C-6.24954311 355.79097311 -9.54007823 352.47307318 -12.83340454 349.15791321 C-14.57484838 347.40438849 -16.31361543 345.64819966 -18.04916382 343.88883972 C-22.33028806 339.57254962 -26.67803334 335.41539829 -31.29858398 331.46302795 C-33.8121259 329.30166233 -36.20926623 327.01953663 -38.625 324.75 C-44.49768483 319.32308108 -50.64989202 314.34267579 -57.01611328 309.50830078 C-58.38829635 308.4650634 -59.75619813 307.41617952 -61.12060547 306.36279297 C-73.49677467 296.82402054 -86.35754325 288.60824655 -100 281 C-100.87414551 280.50870605 -101.74829102 280.01741211 -102.64892578 279.51123047 C-128.77442533 264.94265293 -157.42896929 254.70911366 -187 250 C-187.87672363 249.85578613 -188.75344727 249.71157227 -189.65673828 249.56298828 C-207.27287583 246.7857678 -224.93724 246.5316436 -242.73193359 246.2902832 C-273.4446629 245.87360829 -273.4446629 245.87360829 -280 242 C-282 239 -282 239 -282.0625 235.8125 C-279.23663051 225.67261537 -269.66283493 220.802551 -261.29248047 215.46728516 C-244.48343083 204.70877734 -228.70881758 193.51761053 -214 180 C-212.71217819 178.87060071 -211.42064578 177.745415 -210.125 176.625 C-200.08084139 167.84913034 -190.50177931 158.66377327 -181.08911133 149.21948242 C-179.17577806 147.30074495 -177.25709496 145.38747246 -175.33789062 143.47460938 C-169.34388274 137.48384941 -163.48262329 131.46821932 -158 125 C-156.38032183 123.22429779 -154.75588282 121.45291693 -153.125 119.6875 C-148.20468025 114.28552244 -143.56546064 108.70315582 -139 103 C-138.51176758 102.3901123 -138.02353516 101.78022461 -137.52050781 101.15185547 C-134.38126186 97.2294096 -134.38126186 97.2294096 -131.24853516 93.30175781 C-130.29136923 92.10087355 -129.3302664 90.9031152 -128.36499023 89.70874023 C-127.48386274 88.60571549 -126.61986872 87.48867902 -125.77758789 86.35571289 C-122.65091687 82.27897316 -119.47506868 80.21339417 -114.9375 78.0625 C-114.32583984 77.74732422 -113.71417969 77.43214844 -113.08398438 77.10742188 C-110.61738207 75.89945339 -108.6222133 74.96956565 -105.84375 75.10546875 C-103.50922531 76.23810891 -101.61336283 77.65911146 -99.5625 79.25 C-93.81499032 83.41672973 -87.68346001 85.72678554 -81 88 C-85.09977824 96.56196781 -91.01186488 103.7168698 -97 111 C-97.710354 111.86915039 -97.710354 111.86915039 -98.43505859 112.75585938 C-104.18329038 119.75095753 -110.21539652 126.29334875 -116.6875 132.625 C-127.89238908 143.65167449 -138.0330154 155.16133806 -138.5625 171.625 C-137.94862192 187.0821352 -128.79687396 197.81851394 -118.04296875 208.24609375 C-112.66255985 213.20706691 -106.85868256 217.62495736 -101 222 C-100.45005371 222.41604492 -99.90010742 222.83208984 -99.33349609 223.26074219 C-76.16567108 240.71794407 -49.86781547 254.24972278 -23 265 C-22.20142578 265.32339355 -21.40285156 265.64678711 -20.58007812 265.97998047 C-9.0390943 270.61012455 2.56801302 273.84325177 14.71240234 276.48291016 C16.84165132 276.96420678 18.94243646 277.50953001 21.05078125 278.07421875 C29.9885862 280.30507184 39.08614222 280.2121719 48.25 280.25 C49.48363281 280.270625 50.71726562 280.29125 51.98828125 280.3125 C79.83828637 280.42963987 104.61172725 265.90973021 124.5625 247.4296875 C133.06658844 238.95285576 139.57399659 229.66209671 145 219 C145.33773438 218.35385742 145.67546875 217.70771484 146.0234375 217.04199219 C155.49766535 198.6367018 160.15430405 176.83974334 161.625 156.25 C161.69976563 155.24453125 161.77453125 154.2390625 161.8515625 153.203125 C161.90054687 152.47609375 161.94953125 151.7490625 162 151 C160.77410156 150.70609375 159.54820312 150.4121875 158.28515625 150.109375 C138.92432589 145.17825585 115.0773695 136.94017601 101 122 C100.28457031 122.87140625 99.56914063 123.7428125 98.83203125 124.640625 C85.01486613 141.25647101 68.90273014 154.81686589 50.69921875 166.5078125 C49.91764404 167.01199707 49.13606934 167.51618164 48.33081055 168.03564453 C45.4105128 169.24389593 43.97893292 168.94525 41 168 C38.76406991 166.77209459 36.68128791 165.52816685 34.5625 164.125 C33.95486816 163.72716309 33.34723633 163.32932617 32.72119141 162.91943359 C21.28340626 155.30307576 10.93565667 146.46319188 1 137 C-0.24330078 135.85337891 -0.24330078 135.85337891 -1.51171875 134.68359375 C-11.59660627 125.08589886 -19.99742799 113.70624565 -27.1875 101.8125 C-27.54980713 101.21348877 -27.91211426 100.61447754 -28.28540039 99.99731445 C-30.3576354 96.44383562 -32.16703293 93.04266684 -33 89 C-31.98046875 86.82421875 -31.98046875 86.82421875 -30.1875 84.6875 C-11.75017289 60.39361016 -5.09500705 29.29629055 0 0 Z " fill="#DD8B28" transform="translate(806,958)"/>
<path d="M0 0 C-0.57930008 5.31626788 -1.46978116 10.30294195 -2.84179688 15.48583984 C-3.02565445 16.18605255 -3.20951202 16.88626526 -3.39894104 17.60769653 C-4.00051457 19.89347216 -4.6094654 22.17720637 -5.21875 24.4609375 C-5.64130075 26.05886681 -6.06345427 27.65690121 -6.48522949 29.2550354 C-7.36635446 32.58933651 -8.25090339 35.92270276 -9.13818359 39.25537109 C-10.27651537 43.53134545 -11.40829335 47.80901974 -12.53780365 52.08733177 C-13.40754639 55.38026393 -14.27965646 58.67256509 -15.15260315 61.9646492 C-15.57093539 63.54261997 -15.98877376 65.12072176 -16.40611267 66.69895554 C-16.98788965 68.89675255 -17.57259336 71.09374894 -18.15820312 73.29052734 C-18.49049927 74.54102875 -18.82279541 75.79153015 -19.16516113 77.07992554 C-20 80 -20 80 -21 82 C-25.55588955 81.39800766 -29.98237658 80.60626248 -34.453125 79.546875 C-49.1730628 76.1429908 -63.84375381 73.21390469 -78.8125 71.125 C-79.54658081 71.02199585 -80.28066162 70.9189917 -81.0369873 70.81286621 C-92.80101804 69.17722911 -104.46991618 67.86178995 -116.35546875 67.76171875 C-117.30077957 67.753647 -118.24609039 67.74557526 -119.220047 67.73725891 C-121.20568067 67.72353991 -123.19133672 67.71276435 -125.17700195 67.70483398 C-127.17512095 67.69332912 -129.17320957 67.67290108 -131.17114258 67.64331055 C-152.28962401 66.9590324 -152.28962401 66.9590324 -171.3125 74.875 C-177.35518375 81.1227879 -178.19287954 88.06397334 -178.25 96.375 C-178.270625 97.1175 -178.29125 97.86 -178.3125 98.625 C-178.34688926 103.49108031 -177.76396081 106.83002434 -175 111 C-167.10840649 118.00386379 -156.99398176 120.63756993 -146.8125 122.4375 C-145.73444092 122.63794922 -144.65638184 122.83839844 -143.5456543 123.04492188 C-132.84295038 124.9727793 -122.07707169 126.46629337 -111.3125 128 C-80.33664686 132.4169687 -46.94357694 137.48904578 -22 158 C-21.21238281 158.62519531 -20.42476562 159.25039063 -19.61328125 159.89453125 C-1.6887713 174.83669489 6.0675194 197.5955991 8.53540039 220.16333008 C11.61965953 255.17590421 7.38770157 292.67658848 -15.83984375 320.55859375 C-22.54340209 328.13494811 -29.43196391 334.59534943 -38 340 C-38.91394531 340.58523438 -39.82789062 341.17046875 -40.76953125 341.7734375 C-102.6646635 379.72252796 -193.92495481 368.23989718 -261.05078125 352.4921875 C-268.48413876 350.6756986 -275.7687063 348.50271421 -283 346 C-284.3617185 341.45524138 -283.49733581 337.84656319 -282.29345703 333.39575195 C-282.10013794 332.64720947 -281.90681885 331.89866699 -281.7076416 331.12744141 C-281.06800181 328.66157017 -280.41311458 326.20003223 -279.7578125 323.73828125 C-279.30949844 322.02408839 -278.86207226 320.3096631 -278.41549683 318.59501648 C-277.47860759 315.00651738 -276.53484213 311.41992787 -275.58544922 307.8347168 C-274.36699668 303.23341769 -273.15980398 298.62926648 -271.95697212 294.02386189 C-270.81069477 289.63609745 -269.65976458 285.2495588 -268.5078125 280.86328125 C-268.28750492 280.02357599 -268.06719734 279.18387074 -267.84021378 278.31871986 C-267.21777413 275.95049372 -266.5921386 273.58313803 -265.96533203 271.21606445 C-265.78034149 270.51110336 -265.59535095 269.80614227 -265.40475464 269.07981873 C-264.11509074 264.23018148 -264.11509074 264.23018148 -263 262 C-257.42779336 262.5565581 -252.16375218 263.62189544 -246.73095703 264.96777344 C-207.28332188 274.70657934 -147.06560293 287.81812526 -109.03125 269.02734375 C-103.30811915 265.56260522 -100.94140956 261.434351 -99.25 255.125 C-97.42362287 246.8962679 -97.33782596 239.73540844 -101 232 C-110.3930271 219.54821793 -130.60536683 217.59996975 -144.9786377 215.58175659 C-153.47105949 214.50625571 -161.9855455 213.61600758 -170.49853516 212.72094727 C-206.08328793 208.94258128 -243.35493975 203.10169554 -267.97265625 174.546875 C-280.92088981 158.28050066 -286.07599133 136.26250892 -286.203125 115.79296875 C-286.21013931 115.0340332 -286.21715363 114.27509766 -286.22438049 113.49316406 C-286.24178648 111.05788169 -286.24823228 108.62284228 -286.25 106.1875 C-286.25067474 105.35674957 -286.25134949 104.52599915 -286.25204468 103.67007446 C-286.23640129 91.56750029 -285.99128899 79.7943934 -283 68 C-282.75056641 66.98534668 -282.75056641 66.98534668 -282.49609375 65.95019531 C-276.20425464 41.2838557 -261.618033 18.82048378 -240 5 C-214.46563281 -10.08983461 -186.37172467 -16.57056052 -157 -19 C-156.30438965 -19.05784668 -155.6087793 -19.11569336 -154.89208984 -19.17529297 C-108.19315134 -22.83603786 -43.07445732 -21.53722866 0 0 Z " fill="#231F20" transform="translate(3557,745)"/>
<path d="M0 0 C0 35.64 0 71.28 0 108 C37.62 108 75.24 108 114 108 C114 139.35 114 170.7 114 203 C76.38 203 38.76 203 0 203 C0.09073042 228.93855682 0.09073042 228.93855682 0.20898438 254.87695312 C0.2633526 265.46328143 0.31477046 276.04956251 0.34643555 286.63598633 C0.36951698 294.34799755 0.4030268 302.05988353 0.44870156 309.77179521 C0.47249798 313.8495661 0.49131517 317.927214 0.49761391 322.00505257 C0.50372697 325.85550249 0.52394632 329.70563828 0.55427551 333.55597115 C0.56295737 334.95741074 0.5667992 336.35889156 0.56500816 337.7603569 C0.55303286 351.47386569 1.45682244 367.09939413 10.71484375 378.0234375 C20.70519676 387.70733796 35.39041233 389.00203566 48.6875 389.25 C66.60563292 388.93003334 85.1570392 386.47198417 102.08984375 380.41796875 C104.3729051 379.91840318 105.77631585 380.37789961 108 381 C110.22131415 391.36060078 112.43824628 401.72212849 114.64957428 412.08486557 C115.67649698 416.89656028 116.7049317 421.70792145 117.73681641 426.51855469 C118.73240741 431.16025776 119.72403375 435.80279155 120.71290588 440.44593048 C121.09105573 442.21806309 121.47063811 443.98989063 121.85166931 445.76140594 C122.38471542 448.24086338 122.91267826 450.72135223 123.43945312 453.20214844 C123.67789696 454.30266541 123.67789696 454.30266541 123.92115784 455.42541504 C124.61732864 458.72827461 125 461.60253336 125 465 C116.39374323 468.50200232 107.83493777 471.34935175 98.8125 473.5625 C97.0032605 474.00855591 97.0032605 474.00855591 95.1574707 474.46362305 C82.86934454 477.40402185 70.53257099 479.44281841 58 481 C57.10200684 481.11714355 56.20401367 481.23428711 55.27880859 481.35498047 C41.80326464 483.05107942 28.3120606 483.20171301 14.75 483.25 C13.91281433 483.25535767 13.07562866 483.26071533 12.21307373 483.26623535 C-3.15468303 483.34085258 -18.63391167 482.57319742 -33.6875 479.25 C-34.4623877 479.08081055 -35.23727539 478.91162109 -36.03564453 478.73730469 C-57.78183501 473.7350145 -77.37753849 462.80539463 -90.1328125 444.04296875 C-105.26060229 419.38910213 -110.18622972 390.79256078 -110.12025452 362.19345093 C-110.12069132 360.81538645 -110.12156823 359.43732206 -110.12284368 358.0592581 C-110.12506724 354.29651833 -110.12109682 350.53380731 -110.11606562 346.7710712 C-110.11173043 342.704406 -110.11320972 338.6377423 -110.1139679 334.57107544 C-110.11449119 327.53326409 -110.11136472 320.49546205 -110.10573006 313.45765305 C-110.09758868 303.28227466 -110.09499713 293.10690075 -110.09374207 282.93151946 C-110.09155569 266.42097788 -110.08490684 249.91044124 -110.07543945 233.39990234 C-110.06625462 217.36539739 -110.05917902 201.33089378 -110.05493164 185.29638672 C-110.05466892 184.30733142 -110.05440619 183.31827612 -110.05413551 182.29924946 C-110.05283043 177.33724415 -110.05156673 172.37523884 -110.05032361 167.41323352 C-110.0399639 126.27548557 -110.02235685 85.13774307 -110 44 C-108.73849846 43.36256733 -107.47621128 42.72668935 -106.21360207 42.09145355 C-105.51075195 41.73717962 -104.80790183 41.38290568 -104.08375323 41.01789618 C-101.15777712 39.5885811 -98.16662666 38.3710976 -95.14208984 37.16601562 C-94.18849579 36.78440277 -94.18849579 36.78440277 -93.21563721 36.39508057 C-91.13202956 35.56219013 -89.04651119 34.73420366 -86.9609375 33.90625 C-85.47470067 33.31325409 -83.9885888 32.71994491 -82.50259399 32.12634277 C-78.58627643 30.56285949 -74.6683286 29.00350361 -70.75 27.44506836 C-66.87535409 25.90325562 -63.00216304 24.35779834 -59.12890625 22.8125 C-54.55808078 20.98901324 -49.98699152 19.16620376 -45.41448975 17.34692383 C-37.97243568 14.38542954 -30.53478414 11.41371657 -23.10644531 8.41796875 C-21.01938048 7.57767433 -18.93223602 6.73757793 -16.84508133 5.89750671 C-15.52594753 5.36565187 -14.20731225 4.83255877 -12.88920212 4.298172 C-11.08701245 3.56753507 -9.28305535 2.84126215 -7.47900391 2.11523438 C-6.46415924 1.70478882 -5.44931458 1.29434326 -4.40371704 0.87145996 C-2 0 -2 0 0 0 Z " fill="#231F20" transform="translate(3130,627)"/>
<path d="M0 0 C1.56539313 4.94023796 0.34172939 8.88375427 -0.90600586 13.73754883 C-1.22765465 15.0407457 -1.22765465 15.0407457 -1.55580139 16.37026978 C-2.26551845 19.23510712 -2.99008174 22.09596653 -3.71484375 24.95703125 C-4.2104373 26.94505823 -4.70509954 28.93331759 -5.1988678 30.92179871 C-6.499846 36.15033938 -7.81345065 41.37562771 -9.12969971 46.6003418 C-10.47105208 51.93413042 -11.80045295 57.27089458 -13.13085938 62.60742188 C-15.74221028 73.07456331 -18.3669084 83.53830813 -21 94 C-28.63999635 92.94704722 -28.63999635 92.94704722 -32.35546875 91.73046875 C-33.13245117 91.48329102 -33.90943359 91.23611328 -34.70996094 90.98144531 C-35.52754883 90.71944336 -36.34513672 90.45744141 -37.1875 90.1875 C-71.31432823 79.63137378 -118.39437645 72.0240593 -152.125 87.125 C-161.54255836 92.19715764 -168.36345312 99.42058783 -173 109 C-173.43957031 109.9075 -173.87914063 110.815 -174.33203125 111.75 C-182.98549115 131.82811844 -183.23675791 154.69380028 -183.25 176.1875 C-183.25067474 177.16876862 -183.25134949 178.15003723 -183.25204468 179.16104126 C-183.22332522 205.44632325 -182.99637625 237.8542829 -163.78125 258.44921875 C-142.23190316 277.21038255 -111.45368646 275.48345425 -84.66503906 273.7890625 C-65.09200643 272.07178745 -45.45452441 267.10353553 -27.1328125 260.1015625 C-24 259 -24 259 -21 259 C-18.27221329 269.79504728 -15.5508706 280.59169677 -12.83763218 291.39041042 C-11.57742631 296.40519513 -10.31504816 301.41941156 -9.04760742 306.43237305 C-7.82343197 311.27455509 -6.60509122 316.11817163 -5.39069939 320.96281624 C-4.92750391 322.80639439 -4.46224556 324.64945558 -3.99484444 326.49197197 C-3.33809957 329.08240039 -2.68886462 331.67460773 -2.04125977 334.26733398 C-1.84848953 335.02043854 -1.6557193 335.77354309 -1.45710754 336.54946899 C-0.18455643 341.68879209 0.50342361 346.72756606 1 352 C-60.6757749 376.54000903 -146.81516978 380.40668958 -208.17480469 354.06640625 C-243.80378881 338.08393036 -267.66954833 309.1644046 -281.5625 273.1484375 C-285.93194808 260.89837769 -288.96691002 248.2280675 -291.25 235.4375 C-291.40098145 234.6021875 -291.55196289 233.766875 -291.70751953 232.90625 C-294.66745945 215.15328456 -295.34930771 197.3683556 -295.31567383 179.40039062 C-295.31252198 175.89941973 -295.33605554 172.39930445 -295.36132812 168.8984375 C-295.46819361 130.79747433 -290.19231861 90.57350748 -271 57 C-270.62649414 56.33564941 -270.25298828 55.67129883 -269.86816406 54.98681641 C-264.05065325 44.76378845 -257.25823706 36.34093758 -249 28 C-248.09701172 27.00613281 -248.09701172 27.00613281 -247.17578125 25.9921875 C-221.73403519 -1.56436365 -179.57908933 -10.69552214 -144 -14 C-143.25411621 -14.07057617 -142.50823242 -14.14115234 -141.73974609 -14.21386719 C-95.38614223 -18.34341285 -44.47771169 -14.01674365 0 0 Z " fill="#231F20" transform="translate(2253,740)"/>
<path d="M0 0 C2.3608491 0.00540034 4.72168827 0.00779601 7.08254242 0.00987244 C30.03207552 0.04135348 52.79052872 0.4933702 75.59139252 3.31785583 C77.41960541 3.53466003 77.41960541 3.53466003 79.28475189 3.75584412 C121.64592826 8.89449837 162.90945137 18.31658158 201.52889252 36.75535583 C202.15469208 37.05410614 202.78049164 37.35285645 203.42525482 37.66065979 C214.69224241 43.0804792 225.26385108 49.2817025 235.35921478 56.69480896 C236.89367985 57.81053944 238.46227648 58.88032868 240.05599213 59.90965271 C246.58813327 64.3710768 248.21473831 68.30994654 249.65389252 75.94285583 C250.12806906 78.0243296 250.61134005 80.1037499 251.10311127 82.18113708 C251.34593842 83.21963806 251.58876556 84.25813904 251.83895111 85.32810974 C257.40538938 107.44576159 269.31703184 128.49068592 279.31014252 148.88035583 C293.46716611 177.88184119 303.56898123 209.12122191 306.59139252 241.31785583 C306.70354095 242.43676208 306.81568939 243.55566833 306.93123627 244.70848083 C307.69909699 253.2496166 307.69036023 261.75165058 307.59139252 270.31785583 C303.96139252 270.31785583 300.33139252 270.31785583 296.59139252 270.31785583 C296.53193451 269.50558533 296.4724765 268.69331482 296.41121674 267.85643005 C294.43015233 241.82531678 291.13519515 216.08023592 282.31502533 191.34715271 C281.62128615 189.4016871 280.96001166 187.44762181 280.30233002 185.48973083 C271.54715692 160.16109993 258.54083412 136.23944947 240.59139252 116.31785583 C239.40340499 114.90159798 238.21584151 113.48498419 237.02889252 112.06785583 C220.01073919 92.92743868 194.26215806 77.91237634 168.45345306 76.09715271 C149.92466778 75.43914453 133.18588255 76.40923487 116.59139252 85.31785583 C115.64135345 85.80898865 114.69131439 86.30012146 113.71248627 86.80613708 C89.17478358 100.21069696 74.6211905 122.49764041 66.56014252 148.66551208 C60.06336952 173.90066276 65.55750666 201.14214726 78.59139252 223.31785583 C91.36302152 242.45111065 108.38979598 256.01858612 131.13826752 260.90281677 C135.45613485 261.63334767 139.78339637 261.78894254 144.15389252 261.94285583 C145.0671933 261.98152771 145.98049408 262.02019958 146.92147064 262.06004333 C149.14459176 262.15315836 151.36772864 262.23897749 153.59139252 262.31785583 C153.26912689 261.35105896 152.94686127 260.38426208 152.61483002 259.38816833 C149.3824651 247.99765762 150.66253644 233.94388967 155.59139252 223.31785583 C157.64545143 219.71308413 159.94295206 216.50725435 162.59139252 213.31785583 C163.11475189 212.67074646 163.63811127 212.02363708 164.17733002 211.35691833 C169.50674652 205.40357014 178.51566898 199.85081404 186.60921478 199.14085388 C201.05145532 198.75582973 211.33339651 199.51392585 222.59139252 209.31785583 C223.32229095 209.94305115 224.05318939 210.56824646 224.80623627 211.21238708 C231.4391473 217.32373588 235.52778829 224.39606035 239.59139252 232.31785583 C240.06447845 233.22406677 240.53756439 234.13027771 241.02498627 235.06394958 C246.35492598 245.97289162 250.01322451 258.17632776 250.59139252 270.31785583 C249.35389252 270.70973083 248.11639252 271.10160583 246.84139252 271.50535583 C242.84911697 273.03431243 240.66408075 274.4315654 238.59139252 278.31785583 C237.96341035 282.80474291 238.65191535 286.918353 239.59139252 291.31785583 C219.59676766 309.30297066 193.69073269 318.17776758 167.59139252 322.31785583 C166.80506439 322.50348083 166.01873627 322.68910583 165.20858002 322.88035583 C139.47651922 327.18183466 112.03278645 319.48679889 90.59139252 305.31785583 C86.72605814 302.5119094 83.11978836 299.53492264 79.59139252 296.31785583 C78.50084564 295.33172302 78.50084564 295.33172302 77.38826752 294.32566833 C64.31758601 281.90353209 57.75060021 265.41562089 51.15389252 249.00535583 C39.91053986 221.04265348 26.45942342 197.169358 5.59139252 175.31785583 C4.82955658 174.5147699 4.06772064 173.71168396 3.28279877 172.88426208 C-1.75807293 167.69962221 -7.11476728 163.0485173 -12.80069733 158.58396912 C-13.89673344 157.72091973 -14.98803669 156.85183381 -16.07511139 155.9775238 C-34.43803056 141.22297177 -54.47551047 128.5365809 -74.47110748 116.13035583 C-116.99243146 89.74260277 -116.99243146 89.74260277 -123.02579498 65.87644958 C-124.75332552 54.33019956 -123.03615271 43.5327839 -117.40860748 33.31785583 C-100.89874506 11.47351844 -74.05070093 6.09802181 -48.40860748 2.31785583 C-47.30807037 2.13617859 -46.20753326 1.95450134 -45.07364655 1.76731873 C-30.15106006 -0.38686295 -15.0434392 -0.03570034 0 0 Z " fill="#ED1C24" transform="translate(498.40860748291016,650.6821441650391)"/>
<path d="M0 0 C10.8329221 6.63018309 16.95009342 16.36850263 20.3984375 28.4296875 C22.54587439 37.84443906 21.86922901 47.19988891 20.5859375 56.6796875 C23.35684045 56.70712218 26.12746138 56.72673186 28.8984375 56.7421875 C29.66478516 56.75056641 30.43113281 56.75894531 31.22070312 56.76757812 C37.38934259 56.79317414 43.45287034 56.32264112 49.5859375 55.6796875 C50.0077832 56.59967529 50.42962891 57.51966309 50.86425781 58.4675293 C64.09559111 87.2549385 77.98861579 114.36459196 98.5859375 138.6796875 C99.04226563 139.25847656 99.49859375 139.83726562 99.96875 140.43359375 C102.77302664 143.99001081 105.94345857 146.86207553 109.37890625 149.78125 C111.67182875 151.75356917 113.87250955 153.80628148 116.0859375 155.8671875 C129.30504732 167.77045944 144.30223005 177.7120315 159.5078125 186.87109375 C160.12662292 187.24429245 160.74543335 187.61749115 161.38299561 188.0019989 C164.50767833 189.88440063 167.63741796 191.75745016 170.77636719 193.6159668 C186.12791062 202.76363374 186.12791062 202.76363374 188.5859375 207.6796875 C189.1484375 210.8671875 189.1484375 210.8671875 188.5859375 214.6796875 C181.73190332 223.47600929 169.61290864 227.26583309 159.5234375 230.9921875 C158.48469482 231.37681152 157.44595215 231.76143555 156.37573242 232.15771484 C108.4776653 249.69096149 58.0526876 259.78562102 6.96240234 259.91992188 C4.66340302 259.92989368 2.36520742 259.9611946 0.06640625 259.9921875 C-1.40364065 259.99869664 -2.87369375 260.00395523 -4.34375 260.0078125 C-5.65585449 260.0171582 -6.96795898 260.02650391 -8.31982422 260.03613281 C-9.85147217 259.85969238 -9.85147217 259.85969238 -11.4140625 259.6796875 C-13.85037392 256.02522036 -14.10588805 252.73812986 -14.6640625 248.4921875 C-17.78017148 227.4488092 -24.0253149 208.19534958 -32.4140625 188.6796875 C-35.0540625 188.3496875 -37.6940625 188.0196875 -40.4140625 187.6796875 C-39.23921618 184.15514853 -38.31121435 183.65639567 -35.3515625 181.5546875 C-22.02145222 171.39338315 -15.27675336 158.09244844 -12.4140625 141.6796875 C-13.05988281 141.89625 -13.70570313 142.1128125 -14.37109375 142.3359375 C-29.7657075 146.88482474 -46.65438723 146.22845729 -61.1015625 139.0546875 C-71.81057803 132.7807188 -77.63112312 124.49842194 -81.7265625 112.9921875 C-82.4140625 109.6796875 -82.4140625 109.6796875 -82.4140625 102.6796875 C-95.9440625 102.6796875 -109.4740625 102.6796875 -123.4140625 102.6796875 C-121.13169556 116.33824343 -121.13169556 116.33824343 -117.7265625 129.6171875 C-117.35072021 130.84816162 -117.35072021 130.84816162 -116.96728516 132.10400391 C-113.84860336 141.95058606 -110.16496286 152.54296872 -104.109375 161 C-103.54992187 161.88429688 -102.99046875 162.76859375 -102.4140625 163.6796875 C-102.7440625 164.6696875 -103.0740625 165.6596875 -103.4140625 166.6796875 C-108.56340376 162.83728564 -108.56340376 162.83728564 -110.50024414 161.35791016 C-112.96829035 159.47690766 -115.39932463 157.68883287 -118.0390625 156.05078125 C-125.69827371 151.09558211 -127.26479491 144.05588452 -129.4140625 135.6796875 C-129.85685547 134.05160156 -129.85685547 134.05160156 -130.30859375 132.390625 C-131.06747333 129.49716294 -131.75472542 126.59725407 -132.4140625 123.6796875 C-132.6203125 122.82890625 -132.8265625 121.978125 -133.0390625 121.1015625 C-134.51016397 114.60419767 -134.4140625 109.66375921 -134.4140625 102.6796875 C-152.8940625 102.6796875 -171.3740625 102.6796875 -190.4140625 102.6796875 C-190.4140625 99.0496875 -190.4140625 95.4196875 -190.4140625 91.6796875 C-188.98665741 91.67382126 -187.55925232 91.66795502 -186.08859253 91.66191101 C-172.63979693 91.60471004 -159.19114878 91.53213888 -145.74252129 91.44397259 C-138.82836304 91.39903863 -131.91425603 91.35961852 -125 91.33325195 C-118.32795467 91.30779345 -111.65616814 91.26687269 -104.98425674 91.21650124 C-102.43819133 91.19981018 -99.89208645 91.18830989 -97.34597397 91.18207359 C-93.78102428 91.17245722 -90.2166611 91.14442586 -86.65185547 91.11206055 C-85.07121056 91.11421318 -85.07121056 91.11421318 -83.45863342 91.1164093 C-77.10598648 91.03478987 -72.24906381 90.54453093 -67.55859375 85.8046875 C-66.18104602 83.24705623 -66.04423928 81.57230537 -66.1015625 78.6796875 C-66.10542969 77.8340625 -66.10929688 76.9884375 -66.11328125 76.1171875 C-66.43422666 73.51627921 -67.02629753 71.89143793 -68.4140625 69.6796875 C-71.69774009 67.28349034 -74.45838524 66.38866148 -78.4140625 65.6796875 C-74.77158266 42.6266243 -67.25049155 18.02141728 -48.4140625 2.6796875 C-33.57942672 -7.63303753 -15.95030263 -8.7236283 0 0 Z " fill="#79252F" transform="translate(1029.4140625,855.3203125)"/>
<path d="M0 0 C1.59220993 0.06532891 3.18467945 0.12462378 4.77734375 0.17773438 C8.6497276 0.31987632 12.50945558 0.54330723 16.375 0.8125 C16.375 4.4425 16.375 8.0725 16.375 11.8125 C5.485 11.8125 -5.405 11.8125 -16.625 11.8125 C-16.955 15.4425 -17.285 19.0725 -17.625 22.8125 C-21.59393623 49.24965147 -30.79032911 74.98718016 -45.875 97.125 C-47.74356875 99.74708497 -47.74356875 99.74708497 -48.625 102.8125 C-47.49507789 105.33122126 -46.31554269 107.62062123 -44.9375 110 C-44.53321777 110.70543945 -44.12893555 111.41087891 -43.71240234 112.13769531 C-36.21011414 124.9009242 -26.87963177 136.18383911 -16.625 146.8125 C-15.90054688 147.58851563 -15.17609375 148.36453125 -14.4296875 149.1640625 C-4.20033782 159.84637231 8.20652962 168.48261478 20.375 176.8125 C21.20902344 177.4209375 22.04304687 178.029375 22.90234375 178.65625 C26.22199694 180.20856808 27.88973197 179.84866077 31.375 178.8125 C43.18881815 172.39449666 54.28735021 162.9641707 64.109375 153.88671875 C66.17015371 152.00004031 68.2869155 150.21977574 70.4375 148.4375 C74.68223078 144.7719891 78.04604616 140.47705073 81.4921875 136.0703125 C83.375 133.8125 83.375 133.8125 85.375 132.8125 C86.0865625 133.56144531 86.798125 134.31039063 87.53125 135.08203125 C102.52052776 149.47420866 127.09695273 158.77235999 147.375 161.8125 C146.715 162.1425 146.055 162.4725 145.375 162.8125 C145.42140625 163.42351562 145.4678125 164.03453125 145.515625 164.6640625 C145.94785379 175.62414966 143.61860171 186.13748077 141.375 196.8125 C141.1260498 198.04178223 141.1260498 198.04178223 140.87207031 199.29589844 C136.99127913 217.95622971 128.97454063 236.38399379 116.375 250.8125 C115.63507813 251.68777344 114.89515625 252.56304688 114.1328125 253.46484375 C97.28730418 272.84592166 72.22503906 289.50002776 46.375 292.8125 C41.55859559 293.08195402 36.76034698 293.0926585 31.9375 293.0625 C30.08801758 293.07410156 30.08801758 293.07410156 28.20117188 293.0859375 C20.38476494 293.06942106 13.02966674 292.37324382 5.375 290.8125 C4.48208252 290.63557617 3.58916504 290.45865234 2.66918945 290.27636719 C-49.74074655 279.53999569 -99.45445006 253.09396992 -138.625 216.8125 C-139.26308594 216.24015625 -139.90117188 215.6678125 -140.55859375 215.078125 C-149.72529826 206.50347935 -155.62824985 196.09588833 -156.125 183.5625 C-155.85787739 171.87878932 -151.1958819 163.42342224 -143.625 154.8125 C-142.95597656 154.03519531 -142.28695312 153.25789063 -141.59765625 152.45703125 C-137.44958669 147.73888342 -133.10130835 143.27645606 -128.625 138.875 C-119.52976794 129.88527777 -111.9569442 119.7414076 -104.32421875 109.51171875 C-103.85733643 108.89071289 -103.3904541 108.26970703 -102.90942383 107.62988281 C-101.42338835 105.59433832 -101.42338835 105.59433832 -99.6796875 102.33984375 C-97.625 99.8125 -97.625 99.8125 -94.55859375 99.3671875 C-93.40488281 99.47289062 -92.25117187 99.57859375 -91.0625 99.6875 C-78.85007514 100.18054821 -68.56564616 95.01042018 -59.5078125 86.921875 C-45.08222076 71.74313991 -35.51776486 50.09411908 -31.58984375 29.69921875 C-31.41904297 28.84263672 -31.24824219 27.98605469 -31.07226562 27.10351562 C-30.73560812 25.38411157 -30.42258819 23.65989025 -30.13476562 21.93164062 C-26.3760356 3.94631952 -17.03380097 -1.22227545 0 0 Z " fill="#BB6328" transform="translate(822.625,946.1875)"/>
<path d="M0 0 C15.87486481 13.50331489 24.44370544 34.92111002 30.0625 54.5625 C30.60801569 56.39194415 31.15359387 58.22136966 31.69921875 60.05078125 C40.74626341 90.89410684 47.91590227 123.42761161 50.0625 155.5625 C50.26359375 156.85542969 50.4646875 158.14835938 50.671875 159.48046875 C50.62704621 163.50569994 48.85681496 165.34913826 46.15234375 168.21875 C44.45468172 169.85412467 42.73630929 171.46821748 41 173.0625 C39.29852031 174.67470053 37.59926938 176.28925677 35.90234375 177.90625 C35.07669922 178.68718018 34.25105469 179.46811035 33.40039062 180.27270508 C30.64095712 182.97537079 28.11050885 185.81528122 25.60668945 188.75341797 C23.37580308 191.36699394 21.02959237 193.86059152 18.6875 196.375 C10.14229673 205.64798215 2.45382674 215.56620493 -5.24145508 225.54541016 C-5.82048584 226.29483887 -6.3995166 227.04426758 -6.99609375 227.81640625 C-7.51486084 228.49002197 -8.03362793 229.1636377 -8.56811523 229.85766602 C-9.9375 231.5625 -9.9375 231.5625 -11.9375 233.5625 C-12.6903125 232.593125 -13.443125 231.62375 -14.21875 230.625 C-26.50437603 215.02429862 -39.8654824 201.92739457 -55.83056641 190.14355469 C-69.8279303 179.63985497 -83.89215796 168.28118414 -95.9375 155.5625 C-99.97927928 157.15819064 -102.56481096 160.04648002 -105.5 163.125 C-110.98543661 168.73495368 -116.78371091 173.69009115 -122.9375 178.5625 C-124.2022706 179.59160326 -125.46517352 180.62300462 -126.7265625 181.65625 C-132.45119258 186.34311803 -138.17173814 191.01920488 -144.0793457 195.47460938 C-166.37315971 212.28889023 -184.26988326 233.59792341 -194.9375 259.5625 C-199.49389957 257.9200769 -203.5055542 255.59002388 -207.6875 253.1875 C-223.79714656 244.09767115 -240.58555668 235.99541557 -257.9375 229.5625 C-258.67958574 212.52201272 -254.32228958 198.03117861 -243.18359375 184.87109375 C-230.24661072 171.5741251 -211.81074184 165.25983833 -194.33496094 160.43676758 C-171.05355208 153.99977264 -152.14736613 144.73912105 -134.9375 127.5625 C-134.36741211 127.01142578 -133.79732422 126.46035156 -133.20996094 125.89257812 C-115.80821382 108.91757685 -104.36829583 86.36123909 -92.82275391 65.24707031 C-81.68192767 44.88962065 -70.30650231 25.1795175 -53.9375 8.5625 C-53.27234375 7.88445312 -52.6071875 7.20640625 -51.921875 6.5078125 C-37.6262049 -7.00700167 -16.54013316 -12.14626573 0 0 Z " fill="#FAA919" transform="translate(946.9375,391.4375)"/>
<path d="M0 0 C0.88156769 0.00343414 1.76313538 0.00686829 2.67141724 0.01040649 C58.49781791 0.26525804 120.22136707 15.49515217 164.3125 51.25 C165.13363281 51.90613281 165.95476562 52.56226563 166.80078125 53.23828125 C172.38746054 57.92358035 176.44981286 63.08435575 180.3125 69.25 C180.951875 70.219375 181.59125 71.18875 182.25 72.1875 C184.31050364 78.12659872 184.38200934 84.60697828 181.875 90.4375 C176.15160126 99.76447323 166.60921838 104.59297138 157.15560913 109.3762207 C153.57742589 111.19048435 150.02511657 113.05396282 146.47265625 114.91796875 C145.76929642 115.28646942 145.06593658 115.65497009 144.34126282 116.03463745 C130.80859335 123.16544839 117.74261265 131.02942308 106.3125 141.25 C105.23162109 142.15298828 105.23162109 142.15298828 104.12890625 143.07421875 C82.26727241 161.46444003 68.70434422 188.43497353 55.5390625 213.19140625 C53.39809026 217.21497972 51.2564637 221.23806259 49.09375 225.25 C48.63291016 226.10722656 48.17207031 226.96445312 47.69726562 227.84765625 C41.1907819 239.13535017 30.02010681 251.2649454 18.3125 257.25 C17.6525 257.25 16.9925 257.25 16.3125 257.25 C14.36591555 253.27521613 12.43191627 249.29443124 10.5 245.3125 C9.67918945 243.63704102 9.67918945 243.63704102 8.84179688 241.92773438 C6.46196439 237.00941391 4.20334023 232.23094546 2.61328125 226.99609375 C1.96939453 225.14177734 1.96939453 225.14177734 1.3125 223.25 C0.3225 222.92 -0.6675 222.59 -1.6875 222.25 C0.16875 221.693125 0.16875 221.693125 2.0625 221.125 C11.94684625 217.79913507 20.36990946 212.95879006 28.3125 206.25 C28.90417969 205.80269531 29.49585938 205.35539063 30.10546875 204.89453125 C35.97622209 200.31346285 40.08497576 194.31591552 44.3125 188.25 C44.86035156 187.46882812 45.40820312 186.68765625 45.97265625 185.8828125 C49.38062048 180.63000363 51.76103289 175.04960167 54.0625 169.25 C54.35656738 168.51442871 54.65063477 167.77885742 54.95361328 167.02099609 C63.28428684 145.20302476 61.33729288 118.47361191 53.0625 96.875 C41.20599189 70.91396085 21.87706945 53.56952145 -4.28515625 43.22265625 C-27.88117637 34.85792954 -54.58963066 37.74614723 -76.90234375 48.3359375 C-118.04573523 68.72465755 -143.49412967 110.96114276 -157.89990234 153.12963867 C-166.34272093 179.1927293 -170.77252294 205.92689201 -171.6875 233.25 C-175.6475 233.25 -179.6075 233.25 -183.6875 233.25 C-185.33337487 190.03054496 -172.70393845 146.17090017 -153.06079102 107.92114258 C-145.17998265 92.53625947 -137.42688811 76.77147142 -131.5625 60.5 C-131.28575439 59.74017822 -131.00900879 58.98035645 -130.72387695 58.19750977 C-129.676648 55.26480428 -128.71512163 52.3644763 -127.984375 49.3359375 C-124.84424217 37.83428819 -110.67037307 30.84137435 -101.02758789 25.1862793 C-83.22381493 15.14921342 -64.4697084 8.64883261 -44.625 4.0625 C-43.9662085 3.90749023 -43.30741699 3.75248047 -42.62866211 3.59277344 C-28.47191178 0.48035653 -14.4295533 -0.09211621 0 0 Z " fill="#2E9E49" transform="translate(1077.6875,687.75)"/>
<path d="M0 0 C3.444527 5.1667905 3.10769666 11.48192702 3.625 17.5625 C3.6897049 18.3144162 3.75440979 19.0663324 3.82107544 19.84103394 C7.99810231 70.15186005 6.19145622 123.1902796 -11.00854492 171.1730957 C-11.75182029 173.29237309 -12.39470102 175.44730225 -12.9855957 177.61401367 C-14.78049424 183.15226046 -16.03488078 186.97663713 -21.36279297 189.7512207 C-24.81546137 190.84942507 -28.32370244 191.50839656 -31.89822388 192.07421875 C-35.00056604 192.56652404 -38.0707512 193.19359536 -41.14933777 193.81521606 C-42.67292963 194.12188058 -44.19785918 194.42197647 -45.72407532 194.71530151 C-54.56938328 196.43091282 -62.7563595 199.4095234 -71 203 C-71.72380859 203.30905273 -72.44761719 203.61810547 -73.19335938 203.93652344 C-88.17176448 210.40178594 -101.14141467 219.03812895 -114 229 C-115.2877811 226.42443781 -114.63817784 224.97019212 -114.02001953 222.25366211 C-109.96404075 203.93682728 -110.07497579 183.13592605 -115 165 C-115.29003906 163.89398437 -115.58007812 162.78796875 -115.87890625 161.6484375 C-119.72852274 148.15061901 -125.82715497 135.9790153 -133 124 C-121.22703443 108.13919916 -108.80487893 92.94820683 -95.36181641 78.47509766 C-94.01615564 77.01749953 -92.68569478 75.54591638 -91.35546875 74.07421875 C-82.41285078 64.18889435 -73.222866 54.36927655 -63.03125 45.75390625 C-60.93267375 43.94186637 -58.91033423 42.05830869 -56.88745117 40.16259766 C-50.46263339 34.16195267 -43.72442285 28.68927301 -36.74804688 23.34521484 C-35.0253644 22.01951925 -33.31595664 20.67836758 -31.609375 19.33203125 C-21.66679389 11.5184355 -11.70235653 4.91182083 0 0 Z " fill="#9EC03F" transform="translate(1068,501)"/>
<path d="M0 0 C2.23758886 1.44007867 2.95414375 2.46260881 4.14477539 4.81494141 C4.52126221 5.53351318 4.89774902 6.25208496 5.28564453 6.99243164 C5.68259521 7.7678833 6.0795459 8.54333496 6.48852539 9.34228516 C13.82594964 23.09148085 22.93050361 35.40631131 32.98852539 47.27978516 C33.67301758 48.14796875 33.67301758 48.14796875 34.37133789 49.03369141 C37.17561453 52.59010847 40.34604646 55.46217319 43.78149414 58.38134766 C46.07441664 60.35366683 48.27509744 62.40637914 50.48852539 64.46728516 C63.70763521 76.3705571 78.70481794 86.31212916 93.91040039 95.47119141 C94.52921082 95.84439011 95.14802124 96.21758881 95.7855835 96.60209656 C98.91026622 98.48449829 102.04000586 100.35754782 105.17895508 102.21606445 C120.53049851 111.36373139 120.53049851 111.36373139 122.98852539 116.27978516 C123.55102539 119.46728516 123.55102539 119.46728516 122.98852539 123.27978516 C116.13449121 132.07610695 104.01549653 135.86593074 93.92602539 139.59228516 C92.88728271 139.97690918 91.84854004 140.3615332 90.77832031 140.7578125 C42.8802532 158.29105915 -7.54472451 168.38571867 -58.63500977 168.52001953 C-60.93400909 168.52999133 -63.23220469 168.56129226 -65.53100586 168.59228516 C-67.00105276 168.59879429 -68.47110586 168.60405288 -69.94116211 168.60791016 C-71.2532666 168.61725586 -72.56537109 168.62660156 -73.91723633 168.63623047 C-74.93833496 168.51860352 -75.95943359 168.40097656 -77.01147461 168.27978516 C-79.44770089 164.62544574 -79.70362297 161.33820417 -80.26147461 157.09228516 C-83.14032111 137.57046104 -88.59416508 119.39142397 -96.28051758 101.23730469 C-97.01147461 99.27978516 -97.01147461 99.27978516 -97.01147461 97.27978516 C-95.45759033 97.25005615 -95.45759033 97.25005615 -93.87231445 97.21972656 C-68.93009994 96.72599598 -44.66284644 95.85582579 -20.07397461 91.34228516 C-19.37403381 91.21504059 -18.67409302 91.08779602 -17.95294189 90.95669556 C-15.94037807 90.58647236 -13.93077155 90.20327188 -11.92163086 89.81494141 C-10.17571655 89.48055054 -10.17571655 89.48055054 -8.39453125 89.1394043 C-4.67887481 88.19527308 -1.49196425 86.8725516 1.98852539 85.27978516 C1.39408446 81.84269722 0.19418355 80.03309941 -2.13647461 77.46728516 C-2.77327148 76.76087891 -3.41006836 76.05447266 -4.06616211 75.32666016 C-5.74914094 73.55581496 -7.4799553 71.88692161 -9.26147461 70.21728516 C-23.70404752 55.83904442 -35.24940552 35.40932272 -42.01147461 16.27978516 C-42.01147461 15.61978516 -42.01147461 14.95978516 -42.01147461 14.27978516 C-41.00729492 14.04904297 -40.00311523 13.81830078 -38.96850586 13.58056641 C-26.60409027 10.66467447 -15.21411926 7.00023257 -4.35131836 0.22119141 C-2.01147461 -0.72021484 -2.01147461 -0.72021484 0 0 Z " fill="#A32035" transform="translate(1095.011474609375,946.72021484375)"/>
<path d="M0 0 C29.37 0 58.74 0 89 0 C89.495 5.445 89.495 5.445 90 11 C91.57524463 21.22152953 94.31066821 30.96903864 97.625 40.75 C97.95164139 41.72030151 97.95164139 41.72030151 98.28488159 42.71020508 C103.55645002 58.30008396 109.84025888 72.69598463 119.4453125 86.1171875 C121 89 121 89 121.0234375 91.375 C119.53853693 95.18359994 117.59430802 98.62035868 115.5 102.125 C114.82396729 103.26159058 114.82396729 103.26159058 114.13427734 104.42114258 C110.27689292 110.77682948 105.90182309 116.41160234 101 122 C100.07250062 123.11729137 99.14818683 124.23723254 98.2265625 125.359375 C84.69509644 141.72321781 68.56564515 155.03335394 50.69921875 166.5078125 C49.52685669 167.26408936 49.52685669 167.26408936 48.33081055 168.03564453 C45.4105128 169.24389593 43.97893292 168.94525 41 168 C38.76406991 166.77209459 36.68128791 165.52816685 34.5625 164.125 C33.95486816 163.72716309 33.34723633 163.32932617 32.72119141 162.91943359 C21.28340626 155.30307576 10.93565667 146.46319188 1 137 C0.17113281 136.23558594 -0.65773438 135.47117187 -1.51171875 134.68359375 C-11.59660627 125.08589886 -19.99742799 113.70624565 -27.1875 101.8125 C-27.54980713 101.21348877 -27.91211426 100.61447754 -28.28540039 99.99731445 C-30.3576354 96.44383562 -32.16703293 93.04266684 -33 89 C-31.98046875 86.82421875 -31.98046875 86.82421875 -30.1875 84.6875 C-11.75017289 60.39361016 -5.09500705 29.29629055 0 0 Z " fill="#FEFEFE" transform="translate(806,958)"/>
<path d="M0 0 C0.72578247 0.00182281 1.45156494 0.00364563 2.19934082 0.00552368 C23.12884835 0.09402237 42.70096981 2.74500391 58.8984375 17.234375 C74.98942807 33.63362209 76.93768044 58.91385551 76.93530273 80.63891602 C76.93747157 82.84606752 76.95563184 85.05270324 76.97460938 87.25976562 C77.02636651 100.00242555 76.34110733 112.88419402 72.5 125.125 C72.28311523 125.83019775 72.06623047 126.53539551 71.84277344 127.26196289 C67.41677714 141.03575152 59.4152283 152.3355205 46.82421875 159.78125 C32.20849224 167.06125609 16.66283949 168.7001912 0.5 168.625 C-0.76199219 168.62008545 -2.02398438 168.6151709 -3.32421875 168.61010742 C-23.26304638 168.36138228 -42.1522757 165.24333613 -57.3984375 151.35546875 C-74.56162174 133.63333023 -76.68289593 107.04316298 -76.5625 83.625 C-76.56067719 82.88503784 -76.55885437 82.14507568 -76.55697632 81.38269043 C-76.46002322 57.92825136 -73.96107154 34.22454572 -57.26953125 16.1875 C-41.75391816 1.78228862 -20.1700997 -0.1051907 0 0 Z M-34.0625 36.85546875 C-41.9451348 45.78255266 -42.98008304 60.94078126 -43.25 72.3125 C-43.27046387 73.13637207 -43.29092773 73.96024414 -43.31201172 74.80908203 C-44.5818138 104.63565165 -44.5818138 104.63565165 -33.25 131.3125 C-23.17679852 140.84120411 -8.28139923 140.81179952 4.85546875 140.49609375 C15.99278616 139.97106474 27.02722202 138.60838134 35.125 130.1875 C44.36721759 118.02119097 44.09964799 100.54444482 44.01074219 85.90576172 C44.0000035 83.81318215 44.01072869 81.7214605 44.0234375 79.62890625 C44.09480411 55.9640562 44.09480411 55.9640562 33.42578125 35.7421875 C18.43771862 22.95516903 -19.29654729 24.28531504 -34.0625 36.85546875 Z " fill="#231F20" transform="translate(2626.25,1210.6875)"/>
<path d="M0 0 C15.448125 -0.061875 30.89625 -0.12375 46.8125 -0.1875 C51.67202393 -0.21481201 56.53154785 -0.24212402 61.53833008 -0.27026367 C67.5189209 -0.28381348 67.5189209 -0.28381348 70.3276825 -0.28633118 C72.26972013 -0.29090736 74.21174979 -0.30139454 76.1537323 -0.31672668 C91.84314901 -0.434295 105.57639917 -0.08255277 118.00390625 10.74609375 C129.33081936 22.51336201 129.44954556 37.53107076 129.28515625 52.8359375 C128.96835208 63.42897729 125.85326466 71.45341182 118.8125 79.5 C110.52253523 86.86885757 102.63263929 89.61851294 92 92 C92.57105469 92.45246094 93.14210938 92.90492187 93.73046875 93.37109375 C108.17826415 105.52194234 118.04999862 122.1781981 128 138 C128.60537598 138.95745117 129.21075195 139.91490234 129.83447266 140.90136719 C131.66765244 143.80481804 133.49217277 146.71347662 135.3125 149.625 C135.88226562 150.53217773 136.45203125 151.43935547 137.0390625 152.37402344 C137.55855469 153.21223633 138.07804687 154.05044922 138.61328125 154.9140625 C139.07516846 155.6560791 139.53705566 156.3980957 140.01293945 157.16259766 C141 159 141 159 141 161 C108.73302703 165.15652801 108.73302703 165.15652801 100.2612915 159.92663574 C93.76881907 154.23315065 90.61000482 145.23630232 87.46191406 137.40234375 C85.4293198 132.67184381 82.75234804 128.67587428 79.6875 124.5625 C79.20684082 123.89782715 78.72618164 123.2331543 78.23095703 122.54833984 C71.80838734 113.80435942 65.53747369 106.44998497 56 101 C48.08 100.67 40.16 100.34 32 100 C32 120.13 32 140.26 32 161 C21.44 161 10.88 161 0 161 C0 107.87 0 54.74 0 0 Z M32 26 C32 41.84 32 57.68 32 74 C43.385 74.0928125 43.385 74.0928125 55 74.1875 C57.38089844 74.21481201 59.76179688 74.24212402 62.21484375 74.27026367 C64.12239069 74.27903346 66.02994328 74.28667623 67.9375 74.29296875 C68.91138672 74.30831665 69.88527344 74.32366455 70.88867188 74.33947754 C77.19104602 74.34187449 83.5460403 74.05319211 88.52270508 69.65397644 C94.38164157 63.02955176 95.06686795 55.53999198 95 47 C94.06351991 39.8625031 92.59692365 33.74521787 87 29 C80.47698523 25.90792608 74.16611451 25.59186239 67.05859375 25.70703125 C66.16338013 25.71005249 65.2681665 25.71307373 64.3458252 25.71618652 C61.04293067 25.73172989 57.74020216 25.77361229 54.4375 25.8125 C47.033125 25.874375 39.62875 25.93625 32 26 Z " fill="#231F20" transform="translate(2724,1215)"/>
<path d="M0 0 C0.86825912 0.00222061 1.73651825 0.00444122 2.63108826 0.00672913 C3.61202957 0.00680466 4.59297089 0.00688019 5.6036377 0.00695801 C6.6702916 0.01211929 7.7369455 0.01728058 8.83592224 0.02259827 C10.46520912 0.02472069 10.46520912 0.02472069 12.12741089 0.02688599 C15.61230674 0.03250403 19.09713941 0.04505959 22.58201599 0.05775452 C24.93813486 0.06276719 27.29425473 0.0673305 29.65037537 0.07142639 C35.44011063 0.08247933 41.2298088 0.09923501 47.01951599 0.12025452 C47.25960388 0.84940063 47.49969177 1.57854675 47.74705505 2.32978821 C63.34159314 49.66262214 79.5120819 96.63664507 97.78904724 143.01478577 C98.07267624 143.73555298 98.35630524 144.45632019 98.64852905 145.19892883 C99.94564671 148.47719114 101.28222233 151.72073424 102.72142029 154.93934631 C104.01951599 158.12025452 104.01951599 158.12025452 104.01951599 161.12025452 C92.46951599 161.12025452 80.91951599 161.12025452 69.01951599 161.12025452 C64.06951599 148.25025452 59.11951599 135.38025452 54.01951599 122.12025452 C19.86451599 121.62525452 19.86451599 121.62525452 -14.98048401 121.12025452 C-15.97048401 124.75025452 -16.96048401 128.38025452 -17.98048401 132.12025452 C-18.71949942 134.59740203 -19.47178738 137.07066097 -20.24220276 139.53822327 C-20.77913757 141.26335144 -20.77913757 141.26335144 -21.32691956 143.02333069 C-21.76947083 144.43719055 -22.21202209 145.85105042 -22.66798401 147.30775452 C-24.09110901 151.86587952 -25.51423401 156.42400452 -26.98048401 161.12025452 C-37.87048401 161.12025452 -48.76048401 161.12025452 -59.98048401 161.12025452 C-58.19473747 153.97726836 -56.4493066 147.07224983 -54.11720276 140.13197327 C-53.84920868 139.32371597 -53.5812146 138.51545868 -53.30509949 137.68270874 C-52.43163375 135.05582486 -51.55059061 132.43158028 -50.66798401 129.80775452 C-50.36025055 128.88953918 -50.05251709 127.97132385 -49.73545837 127.02528381 C-40.1221666 98.36577912 -29.76498182 70.00724755 -19.04298401 41.74525452 C-18.64197479 40.68725647 -18.24096558 39.62925842 -17.82780457 38.53919983 C-13.97532379 28.38864291 -10.09222141 18.25347152 -5.97657776 8.20619202 C-5.6858992 7.4943576 -5.39522064 6.78252319 -5.09573364 6.04911804 C-2.65655781 0.16130556 -2.65655781 0.16130556 0 0 Z M18.01951599 26.12025452 C12.53336499 39.52828205 7.41463322 53.03401206 2.58006287 66.69032288 C1.49866606 69.74158454 0.40781111 72.78936248 -0.68360901 75.83705139 C-1.37687682 77.78672233 -2.06960665 79.73658468 -2.76173401 81.68666077 C-3.08661804 82.59275589 -3.41150208 83.49885101 -3.74623108 84.43240356 C-4.18799683 85.68663368 -4.18799683 85.68663368 -4.63868713 86.96620178 C-4.89879578 87.69863602 -5.15890442 88.43107025 -5.42689514 89.18569946 C-6.11804187 91.26559279 -6.11804187 91.26559279 -5.98048401 94.12025452 C10.84951599 94.12025452 27.67951599 94.12025452 45.01951599 94.12025452 C42.7221645 85.59233933 42.7221645 85.59233933 40.15013123 77.17738342 C39.81646042 76.15327362 39.48278961 75.12916382 39.13900757 74.07402039 C38.78891129 73.00904327 38.438815 71.94406616 38.07810974 70.84681702 C37.70976517 69.72004547 37.34142059 68.59327393 36.96191406 67.43235779 C36.18919188 65.07057668 35.41516237 62.70922292 34.63987732 60.34828186 C33.45384482 56.73559504 32.27250668 53.12139775 31.09178162 49.50697327 C30.33749975 47.20349764 29.58295183 44.90010912 28.82810974 42.59681702 C28.47598923 41.51969452 28.12386871 40.44257202 27.76107788 39.33280945 C27.43055923 38.32761261 27.10004059 37.32241577 26.75950623 36.28675842 C26.47099289 35.40726532 26.18247955 34.52777222 25.88522339 33.62162781 C25.00752444 31.08560614 24.03609736 28.60349848 23.01951599 26.12025452 C21.36951599 26.12025452 19.71951599 26.12025452 18.01951599 26.12025452 Z " fill="#231F20" transform="translate(2986.980484008789,1214.8797454833984)"/>
<path d="M0 0 C13.53 0 27.06 0 41 0 C41.99 4.62 42.98 9.24 44 14 C50.10124745 27.17314789 57.59090275 33.62785639 71 39 C77.10356741 40.82089176 82.96828382 41.32312465 89.3125 41.25 C90.13339111 41.24613281 90.95428223 41.24226562 91.80004883 41.23828125 C98.32981373 41.14605112 104.61845581 40.42661267 111 39 C109.66562456 53.67812981 103.61941571 65.77453035 93 76 C90.63488235 77.96246725 88.24106127 79.8259002 85.75 81.625 C83.87284003 82.89848134 83.87284003 82.89848134 83 85 C85.64 85 88.28 85 91 85 C102.91976062 106.94079831 108.07892161 131.40144511 111 156 C102.15373147 156.26557775 93.5293 155.58977709 84.76464844 154.51074219 C82.63612046 154.25135516 80.50596679 154.01184677 78.375 153.7734375 C69.22623975 152.6983992 60.81388711 150.73388834 52 148 C50.02217744 147.47408559 48.04318808 146.95251728 46.0625 146.4375 C31.16215209 141.80631078 13.17364793 134.17364793 2 123 C2.27373459 119.02643342 4.78965591 116.25162257 7.0625 113.125 C10.45451621 108.3440888 13.65477395 103.49243549 16.625 98.4375 C16.97957275 97.85436035 17.33414551 97.2712207 17.69946289 96.67041016 C19.56211421 93.56298115 19.56211421 93.56298115 19.72241211 90.05737305 C18.95182696 87.86280697 17.99220931 86.06871031 16.77734375 84.0859375 C16.32456055 83.333125 15.87177734 82.5803125 15.40527344 81.8046875 C14.9209082 81.00289062 14.43654297 80.20109375 13.9375 79.375 C10.010805 72.73339375 6.40967731 66.04123658 3.25 59 C2.90316162 58.24122559 2.55632324 57.48245117 2.19897461 56.70068359 C-0.12533217 51.3759965 -0.12533217 51.3759965 1 48 C1.86882813 48.74765625 2.73765625 49.4953125 3.6328125 50.265625 C4.79672979 51.26058656 5.96080049 52.25536868 7.125 53.25 C7.69476562 53.74113281 8.26453125 54.23226562 8.8515625 54.73828125 C12.42108017 57.78048381 16.0460203 60.47618317 20 63 C18.69191721 59.49407253 17.09454283 56.23822775 15.3347168 52.9387207 C6.90449045 36.95008267 0 18.17647873 0 0 Z " fill="#803139" transform="translate(906,958)"/>
<path d="M0 0 C11.55 0 23.1 0 35 0 C40.76414372 12.68111618 40.76414372 12.68111618 43.09375 18.8671875 C43.36192032 19.57157455 43.63009064 20.27596161 43.90638733 21.00169373 C44.77567054 23.29103358 45.6385479 25.58270272 46.5 27.875 C46.80235565 28.67722992 47.1047113 29.47945984 47.41622925 30.30599976 C59.18765338 61.57340092 69.81901281 93.18284116 80 125 C82.72403805 119.73852197 85.05138114 114.53270047 87.03125 108.953125 C87.43979721 107.81921577 87.43979721 107.81921577 87.8565979 106.66239929 C88.74360496 104.19365658 89.62239955 101.72210099 90.5 99.25 C90.8061322 98.39197784 91.1122644 97.53395569 91.42767334 96.64993286 C101.48501605 68.45076881 110.73455549 40.00065519 119.69921875 11.4375 C119.91840469 10.74133072 120.13759064 10.04516144 120.36341858 9.32789612 C121.33207951 6.2303212 122.21233071 3.15067717 123 0 C134.22 0 145.44 0 157 0 C143.31047374 45.72301772 126.89467188 90.50420031 109.1875 134.8125 C108.79687378 135.79069702 108.40624756 136.76889404 108.00378418 137.7767334 C106.89559075 140.54668909 105.78291998 143.31478962 104.66796875 146.08203125 C104.34054184 146.89877823 104.01311493 147.71552521 103.67576599 148.55702209 C103.36663773 149.32042404 103.05750946 150.08382599 102.73901367 150.87036133 C102.47416672 151.52676102 102.20931976 152.18316071 101.93644714 152.85945129 C100.72837847 155.62087766 99.34795441 158.30409118 98 161 C84.8 161 71.6 161 58 161 C56.80246094 157.30039063 55.60492187 153.60078125 54.37109375 149.7890625 C37.93812929 99.14825986 19.80027349 49.42393849 0 0 Z " fill="#231F20" transform="translate(2049,1215)"/>
<path d="M0 0 C-0.56244893 6.45846531 -1.73728465 12.35063262 -3.5625 18.5625 C-3.91344727 19.78936523 -3.91344727 19.78936523 -4.27148438 21.04101562 C-4.84119954 23.02920527 -5.41966914 25.01488299 -6 27 C-10.45877152 26.46874212 -14.84630039 25.88627917 -19.25 25 C-35.35479041 22.01515641 -59.37099142 19.7881243 -74 29 C-83.73991016 36.98446124 -85.69099775 49.10147504 -87 61 C-87.25215051 65.73846482 -87.33050157 70.45660091 -87.31567383 75.20092773 C-87.31251804 77.30049907 -87.33606962 79.39864848 -87.36132812 81.49804688 C-87.43055546 96.07290077 -86.09866371 111.91704831 -76.62890625 123.70703125 C-65.08022757 134.53596225 -46.15227159 132.56871528 -31.69335938 132.20556641 C-22.98090754 131.72064544 -14.4889984 129.94034249 -6 128 C-4.98780154 131.70511299 -3.992434 135.41454857 -3 139.125 C-2.71382812 140.17171875 -2.42765625 141.2184375 -2.1328125 142.296875 C-1.86210937 143.31523438 -1.59140625 144.33359375 -1.3125 145.3828125 C-1.06113281 146.31496582 -0.80976563 147.24711914 -0.55078125 148.20751953 C0.03985386 151.2020605 0.09428371 153.95542174 0 157 C-3.45707638 157.65268078 -6.91586077 158.29584965 -10.375 158.9375 C-11.82326172 159.21110352 -11.82326172 159.21110352 -13.30078125 159.49023438 C-39.93160634 164.40531954 -73.43000076 166.19978716 -96.8125 150.3125 C-113.17309004 137.51372202 -118.44917969 118.82780492 -121 99 C-121.23983807 96.25242323 -121.40840059 93.50357958 -121.5625 90.75 C-121.60568359 90.06292969 -121.64886719 89.37585937 -121.69335938 88.66796875 C-123.20287066 62.64686944 -122.30606545 32.35589903 -104.6875 11.5 C-100.29668546 6.96034429 -95.64409312 3.79122858 -90 1 C-88.89978516 0.43345703 -88.89978516 0.43345703 -87.77734375 -0.14453125 C-63.33787782 -11.33721976 -24.73135043 -9.05482956 0 0 Z " fill="#231F20" transform="translate(2399,1217)"/>
<path d="M0 0 C9.94958282 0.39334448 19.27945799 2.48319092 28.875 4.9375 C29.65568848 5.13463593 30.43637695 5.33177185 31.24072266 5.53488159 C47.11703801 9.55979198 62.59566051 14.42565785 78 20 C78.91555664 20.32790527 79.83111328 20.65581055 80.77441406 20.99365234 C101.30129528 28.44616215 122.18029452 38.33863031 140 51 C139.13813008 56.79318751 137.5989052 62.31649379 136.03515625 67.953125 C135.68658487 69.30117823 135.34167742 70.65018295 135 72 C134.71769531 73.04486572 134.71769531 73.04486572 134.4296875 74.11083984 C132.45627243 82.36314383 132.77903711 90.70199276 132.875 99.125 C132.88505296 100.66926501 132.89417471 102.21353638 132.90234375 103.7578125 C132.92416664 107.50534249 132.95856794 111.25262946 133 115 C129.24826326 113.20200928 126.02533637 110.89882231 122.6875 108.4375 C103.23732063 94.41757375 81.62882267 83.86212993 59 76 C57.96617187 75.5978125 56.93234375 75.195625 55.8671875 74.78125 C49.96834464 72.52026846 44.69345936 70.90226111 38.4375 69.9765625 C20.78293095 67.05653759 20.78293095 67.05653759 16.02832031 61.83447266 C12.71008879 56.18912728 11.22056559 50.02221603 9.82275391 43.67138672 C8.92996171 39.68746713 7.86482082 35.77706371 6.76171875 31.84765625 C0.8084544 10.31902211 0.8084544 10.31902211 0 0 Z " fill="#EA824F" transform="translate(611,600)"/>
<path d="M0 0 C45.87 0 91.74 0 139 0 C139 8.91 139 17.82 139 27 C121.18 27 103.36 27 85 27 C85 71.22 85 115.44 85 161 C74.77 161 64.54 161 54 161 C54 116.78 54 72.56 54 27 C36.18 27 18.36 27 0 27 C0 18.09 0 9.18 0 0 Z " fill="#231F20" transform="translate(2409,1215)"/>
<path d="M0 0 C11.96575848 2.18605203 23.70368315 5.11984545 35.25 8.9375 C35.94544922 9.16598633 36.64089844 9.39447266 37.35742188 9.62988281 C48.54073823 13.4184527 59.29273962 18.35518063 69.9375 23.4375 C70.56329956 23.73625031 71.18909912 24.03500061 71.8338623 24.34280396 C83.1008499 29.76262337 93.67245857 35.96384666 103.76782227 43.37695312 C105.30228733 44.4926836 106.87088396 45.56247285 108.46459961 46.59179688 C114.99674075 51.05322097 116.6233458 54.99209071 118.0625 62.625 C118.53667654 64.70647377 119.01994753 66.78589407 119.51171875 68.86328125 C119.87595947 70.42103271 119.87595947 70.42103271 120.24755859 72.01025391 C125.81399686 94.12790575 137.72563932 115.17283008 147.71875 135.5625 C161.87577359 164.56398535 171.97758871 195.80336608 175 228 C175.11214844 229.11890625 175.22429687 230.2378125 175.33984375 231.390625 C176.10770448 239.93176077 176.09896771 248.43379475 176 257 C172.37 257 168.74 257 165 257 C164.94054199 256.18772949 164.88108398 255.37545898 164.81982422 254.53857422 C162.83875982 228.50746095 159.54380263 202.76238009 150.72363281 178.02929688 C150.02989363 176.08383126 149.36861914 174.12976597 148.7109375 172.171875 C139.9557644 146.84324409 126.94944161 122.92159363 109 103 C107.81201247 101.58374214 106.62444899 100.16712836 105.4375 98.75 C87.77926823 78.88968285 61.55999396 64.29149318 34.87109375 62.6640625 C29.91567108 62.39298768 24.95934386 62.18457891 20 62 C20 61.67 20 61.34 20 61 C24.95 60.505 24.95 60.505 30 60 C29.27296875 58.82308594 28.5459375 57.64617188 27.796875 56.43359375 C0 11.01990103 0 11.01990103 0 0 Z " fill="#D92A2D" transform="translate(630,664)"/>
<path d="M0 0 C-0.96417094 7.69781635 -5.46642103 14.81190167 -8.87158203 21.66503906 C-9.84598649 23.68130999 -10.73271917 25.70568817 -11.58984375 27.7734375 C-13.85288208 32.63566839 -15.37931327 35.34405125 -20.46484375 37.40234375 C-23.90691813 38.31931954 -27.39902415 38.92431498 -30.90234375 39.55615234 C-48.1971491 43.21559789 -64.31740813 54.12818531 -77 66 C-77.8058252 66.7422583 -77.8058252 66.7422583 -78.62792969 67.49951172 C-121.54543718 107.34784435 -140.64863102 170.60777608 -142.88671875 227.6171875 C-142.92410156 228.73351562 -142.96148438 229.84984375 -143 231 C-146.96 231 -150.92 231 -155 231 C-156.64587487 187.78054496 -144.01643845 143.92090017 -124.37329102 105.67114258 C-116.49248265 90.28625947 -108.73938811 74.52147142 -102.875 58.25 C-102.59825439 57.49017822 -102.32150879 56.73035645 -102.03637695 55.94750977 C-100.989148 53.01480428 -100.02762163 50.1144763 -99.296875 47.0859375 C-96.15674217 35.58428819 -81.98287307 28.59137435 -72.34008789 22.9362793 C-54.35119345 12.79484922 -35.42270181 6.3115151 -15.375 1.6875 C-14.64079834 1.51573242 -13.90659668 1.34396484 -13.15014648 1.16699219 C-8.66544397 0.18057386 -4.59140683 -0.16268764 0 0 Z " fill="#028D52" transform="translate(1049,690)"/>
<path d="M0 0 C13.2 0 26.4 0 40 0 C40 22.95823107 31.47573919 46.32495986 18 65 C16.95585938 66.4540625 16.95585938 66.4540625 15.890625 67.9375 C8.42687273 77.67743204 -0.34673762 84.15181447 -12 88 C-12.99 88.33 -13.98 88.66 -15 89 C-29.55443654 90.40923909 -41.80901974 85.47893492 -52.9921875 76.37890625 C-61.72109888 68.29011504 -67.03647494 57.4034259 -70 46 C-70.12890625 42.58203125 -70.12890625 42.58203125 -70 40 C-69.175 40.0721875 -68.35 40.144375 -67.5 40.21875 C-48.80785449 41.72079741 -30.07988019 42.50284674 -14.375 30.375 C-5.56765066 22.412191 -2.48372103 11.17674461 0 0 Z " fill="#FEFEFD" transform="translate(754,958)"/>
<path d="M0 0 C13.53 0 27.06 0 41 0 C41.99 4.62 42.98 9.24 44 14 C50.10124745 27.17314789 57.59090275 33.62785639 71 39 C77.10356741 40.82089176 82.96828382 41.32312465 89.3125 41.25 C90.13339111 41.24613281 90.95428223 41.24226562 91.80004883 41.23828125 C98.32981373 41.14605112 104.61845581 40.42661267 111 39 C109.46874906 55.84376029 101.58759184 68.99608905 88.6875 79.8125 C78.68922885 87.24530966 67.28114198 90.05352934 55 89 C39.47099555 85.49753432 28.19210624 74.03796517 19.71972656 61.18237305 C11.13037548 47.57484095 6.03891874 32.49350314 2 17 C1.79987305 16.2383252 1.59974609 15.47665039 1.39355469 14.69189453 C1.20954102 13.9389209 1.02552734 13.18594727 0.8359375 12.41015625 C0.67399902 11.75281494 0.51206055 11.09547363 0.34521484 10.41821289 C-0.14583363 6.97844262 0 3.4746436 0 0 Z " fill="#FEFDFD" transform="translate(906,958)"/>
<path d="M0 0 C10.56 0 21.12 0 32 0 C32 53.13 32 106.26 32 161 C21.44 161 10.88 161 0 161 C0 107.87 0 54.74 0 0 Z " fill="#231F20" transform="translate(2219,1215)"/>
<path d="M0 0 C1.11553859 8.09044924 1.24162386 16.09500925 1.25 24.25 C1.25133942 25.01956024 1.25267883 25.78912048 1.25405884 26.58200073 C1.24845034 41.54487988 0.08149955 56.17207387 -2 71 C-2.11746582 71.86882812 -2.23493164 72.73765625 -2.35595703 73.6328125 C-6.98382872 107.15288462 -18.78476937 142.24852393 -40 169 C-40.66 169 -41.32 169 -42 169 C-42.12587293 161.57349724 -42.12587293 161.57349724 -41.5065918 158.75195312 C-38.72652552 143.64982926 -39.97884661 125.80750905 -44 111 C-44.29003906 109.89398437 -44.58007812 108.78796875 -44.87890625 107.6484375 C-48.72852274 94.15061901 -54.82715497 81.9790153 -62 70 C-50.23086848 54.14436448 -37.81317049 38.9572205 -24.375 24.48828125 C-22.99072394 22.98995971 -21.61869273 21.481311 -20.25 19.96875 C-2.1572286 0 -2.1572286 0 0 0 Z " fill="#AC9C42" transform="translate(997,555)"/>
<path d="M0 0 C10.23 0 20.46 0 31 0 C31 53.13 31 106.26 31 161 C20.77 161 10.54 161 0 161 C0 107.87 0 54.74 0 0 Z " fill="#231F20" transform="translate(2882,1215)"/>
<path d="M0 0 C10.8329221 6.63018309 16.95009342 16.36850263 20.3984375 28.4296875 C22.54587439 37.84443906 21.86922901 47.19988891 20.5859375 56.6796875 C23.35684045 56.70712218 26.12746138 56.72673186 28.8984375 56.7421875 C29.66478516 56.75056641 30.43113281 56.75894531 31.22070312 56.76757812 C37.46443639 56.79348573 43.2919085 56.25187195 49.5859375 55.6796875 C54.8659375 66.8996875 60.1459375 78.1196875 65.5859375 89.6796875 C61.57708024 92.88677331 58.10270672 95.1019471 53.5234375 97.1796875 C52.8644043 97.48084473 52.20537109 97.78200195 51.52636719 98.09228516 C41.99200668 102.3714682 33.09871428 105.26579865 22.5859375 105.6796875 C18.33432399 94.10082517 14.39347843 82.43768343 11.18359375 70.5234375 C8.23400333 59.63712674 4.79211899 49.68791768 -0.4140625 39.6796875 C-0.89617187 38.69742188 -1.37828125 37.71515625 -1.875 36.703125 C-10.89068253 19.02043274 -24.64925978 7.65936049 -42.4140625 -0.3203125 C-31.13958906 -9.86025157 -11.87490833 -6.49469096 0 0 Z " fill="#505A3C" transform="translate(1029.4140625,855.3203125)"/>
<path d="M0 0 C4.52314025 0.30154268 7.95627839 1.30364092 12.0703125 3.2265625 C13.52546265 3.90319946 13.52546265 3.90319946 15.01000977 4.59350586 C15.99670654 5.05764893 16.98340332 5.52179199 18 6 C18.90999756 6.42224854 19.81999512 6.84449707 20.75756836 7.27954102 C54.01246881 22.75423842 54.01246881 22.75423842 63 30 C62.13813008 35.79318751 60.5989052 41.31649379 59.03515625 46.953125 C58.68658487 48.30117823 58.34167742 49.65018295 58 51 C57.71769531 52.04486572 57.71769531 52.04486572 57.4296875 53.11083984 C55.45627243 61.36314383 55.77903711 69.70199276 55.875 78.125 C55.88505296 79.66926501 55.89417471 81.21353638 55.90234375 82.7578125 C55.92416664 86.50534249 55.95856794 90.25262946 56 94 C52.24850474 92.202125 49.02425637 89.90014387 45.6875 87.4375 C37.01179337 81.13983566 27.93578126 75.12981306 18.125 70.75 C16.578125 69.88375 16.578125 69.88375 15 69 C14.60688323 67.34641357 14.29028161 65.67470161 14 64 C13.00167696 61.09331795 11.85846697 58.24124146 10.75 55.375 C4.06112362 37.57531944 -0.82983254 19.178352 0 0 Z " fill="#DE6940" transform="translate(688,621)"/>
<path d="M0 0 C2.23758886 1.44007867 2.95414375 2.46260881 4.14477539 4.81494141 C4.70950562 5.89279907 4.70950562 5.89279907 5.28564453 6.99243164 C5.68259521 7.7678833 6.0795459 8.54333496 6.48852539 9.34228516 C13.82145015 23.0830495 22.91357569 35.42933203 32.98852539 47.27978516 C33.96864507 48.46649869 34.94798746 49.65385534 35.92602539 50.84228516 C37.91672565 53.26334907 37.91672565 53.26334907 39.98852539 55.27978516 C29.04504204 60.61922904 18.16914526 65.59013599 6.42602539 68.90478516 C5.55308838 69.15180176 4.68015137 69.39881836 3.78076172 69.65332031 C-4.62802721 71.90657487 -4.62802721 71.90657487 -8.01147461 71.27978516 C-23.25614755 59.25940296 -35.87886737 34.35483807 -42.01147461 16.27978516 C-42.01147461 15.61978516 -42.01147461 14.95978516 -42.01147461 14.27978516 C-41.00729492 14.04904297 -40.00311523 13.81830078 -38.96850586 13.58056641 C-26.60409027 10.66467447 -15.21411926 7.00023257 -4.35131836 0.22119141 C-2.01147461 -0.72021484 -2.01147461 -0.72021484 0 0 Z " fill="#9E3F3F" transform="translate(1095.011474609375,946.72021484375)"/>
<path d="M0 0 C0.33 0.66 0.66 1.32 1 2 C3.64 2 6.28 2 9 2 C20.91976062 23.94079831 26.07892161 48.40144511 29 73 C19.92468901 73.29539891 11.14568083 72.52316685 2.16040039 71.40087891 C-0.08910762 71.12169779 -2.34016772 70.85911692 -4.59179688 70.59765625 C-6.0313694 70.42285551 -7.47082756 70.24710978 -8.91015625 70.0703125 C-10.20058838 69.91320801 -11.49102051 69.75610352 -12.82055664 69.59423828 C-16 69 -16 69 -19 67 C-19.31524991 64.11425083 -19.46020449 61.39171222 -19.5 58.5 C-20.03778782 42.93813446 -22.96924235 28.7015345 -28 14 C-28.60468112 12.16683628 -29.2089491 10.33353614 -29.8125 8.5 C-30.204375 7.345 -30.59625 6.19 -31 5 C-29.49373047 5.06960938 -29.49373047 5.06960938 -27.95703125 5.140625 C-17.99715967 5.45500562 -9.10247032 4.55123516 0 0 Z " fill="#923938" transform="translate(988,1041)"/>
<path d="M0 0 C10.02200635 4.58819978 19.13229354 9.99383132 27.99609375 16.54858398 C29.41908728 17.57924877 30.87989621 18.55857047 32.36328125 19.50024414 C39.17423015 24.11021168 40.81800496 28.52531934 42.375 36.4375 C42.81647562 38.43704892 43.26172254 40.43576931 43.7109375 42.43359375 C43.91710693 43.38218262 44.12327637 44.33077148 44.33569336 45.30810547 C45.25011505 49.01351288 46.61762992 52.44590649 48 56 C48.1875 59 48.1875 59 48 61 C44.44432128 59.42617499 41.68454865 57.27542117 38.6875 54.8125 C37.33205078 53.70841797 37.33205078 53.70841797 35.94921875 52.58203125 C23.67192056 41.83329734 14.34158423 28.85468653 6.25 14.75 C5.73671143 13.85716309 5.22342285 12.96432617 4.69458008 12.04443359 C2.42747802 7.9827845 0.74794333 4.63235747 0 0 Z " fill="#C1292A" transform="translate(706,691)"/>
<path d="M0 0 C1.27032641 2.54065282 0.83456949 3.31197568 0.109375 6.015625 C-0.21111816 7.25723389 -0.21111816 7.25723389 -0.53808594 8.52392578 C-0.77301758 9.42353027 -1.00794922 10.32313477 -1.25 11.25 C-5.57745948 28.6528693 -7.40076411 46.10557653 -8 64 C-11.96 64 -15.92 64 -20 64 C-20.39825813 53.54203664 -19.77961279 43.34030031 -18.625 32.9375 C-18.49891357 31.78467529 -18.37282715 30.63185059 -18.24291992 29.4440918 C-17.874643 26.28766224 -17.45496853 23.14498655 -17 20 C-16.90114502 19.21568604 -16.80229004 18.43137207 -16.70043945 17.62329102 C-15.8226973 12.60702731 -13.79953568 10.36587511 -9.89648438 7.43554688 C-9.25001953 6.98244141 -8.60355469 6.52933594 -7.9375 6.0625 C-6.96200195 5.34223633 -6.96200195 5.34223633 -5.96679688 4.60742188 C-4.32022067 3.39262216 -2.66108261 2.19488749 -1 1 C-0.67 0.67 -0.34 0.34 0 0 Z " fill="#7D2C35" transform="translate(914,857)"/>
</svg>
