<?xml version="1.0" encoding="UTF-8"?>
<svg version="1.1" xmlns="http://www.w3.org/2000/svg" width="253" height="145">
<path d="M0 0 C45.54 0 91.08 0 138 0 C134.71621953 7.88107313 131.38317751 15.43990919 127.5 23 C123.9825336 29.92615124 120.63409721 36.81203597 117.8046875 44.05078125 C117 46 117 46 116 47 C122.27 47.33 128.54 47.66 135 48 C135 50.97 135 53.94 135 57 C132.03 57 129.06 57 126 57 C126 64.92 126 72.84 126 81 C122.7 81 119.4 81 116 81 C116 73.08 116 65.16 116 57 C114.35 57.33 112.7 57.66 111 58 C109.47295132 60.38952105 108.32181167 62.50090874 107.1875 65.0625 C106.87619141 65.72572266 106.56488281 66.38894531 106.24414062 67.07226562 C105.4795902 68.7072273 104.7375695 70.3526906 104 72 C102.57494141 71.96712891 102.57494141 71.96712891 101.12109375 71.93359375 C98.08800406 71.75765686 98.08800406 71.75765686 96.0625 73.0625 C92.79467588 74.5478746 90.40962936 73.85240734 87 73 C83.75124746 70.77716931 83.10368769 69.38018818 82.0625 65.5625 C81.99245846 61.57013213 82.53534746 60.08081567 85 57 C89.06849409 54.28767061 91.16476784 54.69300113 96 55 C96.66 55.66 97.32 56.32 98 57 C100.93453261 56.63318342 101.86437246 56.13562754 104 54 C99.22996361 50.20843261 95.14985758 48.73168161 89 49 C83.75718003 50.57284599 80.53653744 52.83936772 77 57 C75.62860299 61.11419103 75.25904106 64.70659306 76 69 C78.34216741 73.48597537 81.15165299 77.21283559 86 79 C88.68416737 79.278156 88.68416737 79.278156 91.5 79.1875 C92.4384375 79.18105469 93.376875 79.17460938 94.34375 79.16796875 C96.70620585 79.01857816 98.73716665 78.66710889 101 78 C99.74390646 81.97313396 98.29271506 85.68074186 96.4609375 89.421875 C95.7198877 90.94663452 95.7198877 90.94663452 94.96386719 92.50219727 C94.17737793 94.10985962 94.17737793 94.10985962 93.375 95.75 C89.709536 103.30359125 86.10476122 110.86552544 82.75 118.5625 C79.12827044 126.86178537 75.12264202 134.93977221 71 143 C70.67 143.66 70.34 144.32 70 145 C69.01 145 68.02 145 67 145 C66.73372803 144.40687012 66.46745605 143.81374023 66.19311523 143.20263672 C61.52634363 132.82466863 56.81922789 122.50643779 51.65234375 112.3671875 C49.44898827 107.87713448 47.46943233 103.30276037 45.49902344 98.70678711 C43.47329515 94.00304602 41.26575817 89.43538745 38.84765625 84.91796875 C38 83 38 83 38 80 C39.98 80 41.96 80 44 80 C44.16290527 79.47140381 44.32581055 78.94280762 44.49365234 78.39819336 C46.45894437 72.24478241 48.92933823 66.42773827 51.625 60.5625 C52.03234375 59.66595703 52.4396875 58.76941406 52.859375 57.84570312 C55.72433036 51.55133929 55.72433036 51.55133929 57 49 C54.36 49 51.72 49 49 49 C48.89816406 49.69480469 48.79632813 50.38960937 48.69140625 51.10546875 C47.88282994 54.49052552 46.53324287 57.22287019 44.9375 60.3125 C44.11572266 61.91544922 44.11572266 61.91544922 43.27734375 63.55078125 C42.85582031 64.35902344 42.43429688 65.16726562 42 66 C39 65 39 65 37.39453125 62.41796875 C36.61142578 60.81888672 36.61142578 60.81888672 35.8125 59.1875 C35.28269531 58.12917969 34.75289062 57.07085937 34.20703125 55.98046875 C33 53 33 53 33 49 C29.37 49 25.74 49 22 49 C21.47792969 47.89527344 20.95585937 46.79054687 20.41796875 45.65234375 C15.98535474 36.27986057 11.5344879 26.91626547 7.0625 17.5625 C6.59030029 16.57435303 6.11810059 15.58620605 5.6315918 14.56811523 C5.18726807 13.63942627 4.74294434 12.7107373 4.28515625 11.75390625 C3.89207275 10.93220947 3.49898926 10.1105127 3.09399414 9.26391602 C2.38155003 7.78958122 1.63712621 6.33014476 0.85717773 4.89038086 C0 3 0 3 0 0 Z M62 49 C62 59.23 62 69.46 62 80 C64.31 80 66.62 80 69 80 C69 69.77 69 59.54 69 49 C66.69 49 64.38 49 62 49 Z " fill="#000000" transform="translate(0,0)"/>
<path d="M0 0 C4.83910481 2.39543726 7.76662791 5.0238781 9.828125 10.0546875 C11.1950225 14.97551851 10.79144917 18.92707284 9.2890625 23.8515625 C6.58836897 28.62278773 3.46783422 31.24641981 -1.5234375 33.4765625 C-7.84332135 34.89531194 -12.65892944 34.38491579 -18.4296875 31.5390625 C-22.28098607 29.08316196 -24.79407292 26.38822996 -26.5859375 22.1640625 C-27.36282533 16.70485074 -27.80162455 10.89715187 -24.5859375 6.1640625 C-22.4921875 4.49609375 -22.4921875 4.49609375 -20.0859375 2.9765625 C-19.291875 2.46738281 -18.4978125 1.95820312 -17.6796875 1.43359375 C-12.21456393 -1.88014722 -6.08165607 -1.96597341 0 0 Z M-14.0859375 11.2265625 C-16.06245481 15.09724223 -15.88204456 17.04701654 -14.5859375 21.1640625 C-11.7488172 23.75800106 -10.30051048 24.19264542 -6.4609375 24.0390625 C-2.82563091 22.98518115 -2.82563091 22.98518115 -0.5859375 20.1640625 C-0.09020413 16.26901459 -0.00576902 14.06912533 -2.1484375 10.7265625 C-6.48668604 7.94563395 -10.09518117 7.93418853 -14.0859375 11.2265625 Z " fill="#000000" transform="translate(161.5859375,47.8359375)"/>
<path d="M0 0 C3.17625 -0.0825 6.3525 -0.165 9.625 -0.25 C10.6145166 -0.28641602 11.6040332 -0.32283203 12.62353516 -0.36035156 C18.25795762 -0.43096692 21.59081997 0.13327429 26 4 C28.07324138 7.10986207 28.27392186 7.89108387 28.25 11.4375 C28.25515625 12.19933594 28.2603125 12.96117187 28.265625 13.74609375 C27.97008731 16.25381801 27.33311941 17.86419249 26 20 C25.34 20.33 24.68 20.66 24 21 C24.28875 21.86625 24.5775 22.7325 24.875 23.625 C25.91666667 26.75 26.95833333 29.875 28 33 C24.04 33 20.08 33 16 33 C13 27.25 13 27.25 13 25 C12.01 25 11.02 25 10 25 C10 27.64 10 30.28 10 33 C6.7 33 3.4 33 0 33 C0 22.11 0 11.22 0 0 Z M10 9 C10 10.98 10 12.96 10 15 C11.98 15 13.96 15 16 15 C16.38218767 13.34385343 16.71395102 11.67542976 17 10 C15.87465895 8.64381501 15.87465895 8.64381501 12.9375 8.9375 C11.968125 8.958125 10.99875 8.97875 10 9 Z " fill="#000000" transform="translate(175,48)"/>
<path d="M0 0 C1.375 2.0625 1.375 2.0625 2 4 C-1.153368 4.70074844 -3.72724974 5 -7 5 C-7 6.98 -7 8.96 -7 11 C-6.34 11 -5.68 11 -5 11 C-5 9.35 -5 7.7 -5 6 C-4.33613281 5.95101562 -3.67226562 5.90203125 -2.98828125 5.8515625 C2.54622518 5.4263785 2.54622518 5.4263785 7.8125 3.8125 C10 3 10 3 12.8125 3.875 C13.534375 4.24625 14.25625 4.6175 15 5 C15.33 4.67 15.66 4.34 16 4 C18.4375 3.75 18.4375 3.75 21 4 C21.66 4.99 22.32 5.98 23 7 C23.33 6.01 23.66 5.02 24 4 C26.33333333 4 28.66666667 4 31 4 C31.78375 3.79375 32.5675 3.5875 33.375 3.375 C36.36863138 2.94733837 37.48828873 3.41855217 40 5 C40.33 4.67 40.66 4.34 41 4 C43.94565651 3.68091183 46.85815767 3.43764994 49.8125 3.25 C50.63298828 3.18167969 51.45347656 3.11335938 52.29882812 3.04296875 C55.8368399 2.81915292 58.29396597 2.67985938 61.55859375 4.16015625 C63.48649547 6.62097389 63.41054579 8.09699355 63.25 11.1875 C63.21390625 12.08855469 63.1778125 12.98960938 63.140625 13.91796875 C63.09421875 14.60503906 63.0478125 15.29210937 63 16 C61.515 16.495 61.515 16.495 60 17 C59.34 16.67 58.68 16.34 58 16 C58 13.36 58 10.72 58 8 C57.34 8.33 56.68 8.66 56 9 C55.59270772 11.32156597 55.25561323 13.6568787 55 16 C53.515 16.495 53.515 16.495 52 17 C51 16 51 16 50.90234375 14.15234375 C50.93489583 12.1015625 50.96744792 10.05078125 51 8 C48.95163118 8.56362302 48.95163118 8.56362302 47 10 C46.18415432 13.05908413 46.18415432 13.05908413 46 16 C44.453125 15.9690625 44.453125 15.9690625 42.875 15.9375 C39.09631288 15.84288061 39.09631288 15.84288061 35.9375 16.8125 C32.55602329 17.02833894 32.11964651 16.64234581 29.625 14.5625 C28.75875 13.716875 27.8925 12.87125 27 12 C26.731875 12.639375 26.46375 13.27875 26.1875 13.9375 C25 16 25 16 22 17 C19.7522025 14.94766315 18.9977758 13.99332739 18 11 C17.7525 11.61875 17.505 12.2375 17.25 12.875 C15.72610985 15.46561326 14.86546233 16.12444207 12 17 C8.14533632 16.68533358 6.25125017 16.16750011 3 14 C2.319375 14.515625 1.63875 15.03125 0.9375 15.5625 C-2.90525323 17.44299626 -4.91132242 17.11509388 -9 16 C-11.4375 14.4375 -11.4375 14.4375 -13 12 C-13.55379348 9.21961417 -13.57611637 6.77790766 -13 4 C-9.36901134 -0.88305371 -5.757088 -1.59238604 0 0 Z M8 8 C8 9.32 8 10.64 8 12 C9.32 12 10.64 12 12 12 C12 10.68 12 9.36 12 8 C10.68 8 9.36 8 8 8 Z " fill="#000000" transform="translate(128,113)"/>
<path d="M0 0 C3.5625 0.25 3.5625 0.25 6.5625 2.25 C6.5625 2.91 6.5625 3.57 6.5625 4.25 C7.2225 4.25 7.8825 4.25 8.5625 4.25 C8.5625 2.93 8.5625 1.61 8.5625 0.25 C11.0375 0.745 11.0375 0.745 13.5625 1.25 C13.5625 1.91 13.5625 2.57 13.5625 3.25 C15.44566159 4.35836423 15.44566159 4.35836423 17.5625 5.25 C18.2225 4.92 18.8825 4.59 19.5625 4.25 C21.60305005 4.17934383 23.64584257 4.16578024 25.6875 4.1875 C26.78320312 4.19652344 27.87890625 4.20554687 29.0078125 4.21484375 C30.27238281 4.23224609 30.27238281 4.23224609 31.5625 4.25 C31.5625 2.93 31.5625 1.61 31.5625 0.25 C32.8825 0.25 34.2025 0.25 35.5625 0.25 C35.5625 1.57 35.5625 2.89 35.5625 4.25 C39.14577753 5.25217064 39.14577753 5.25217064 42.5625 4.25 C47.85173988 3.79985192 47.85173988 3.79985192 50.4375 5.4375 C51.97293634 7.91125855 51.90503315 9.37272157 51.5625 12.25 C50.92091403 13.92648134 50.25722712 15.59483341 49.5625 17.25 C46.93743198 17.27690844 44.31263827 17.29679404 41.6875 17.3125 C40.94113281 17.32087891 40.19476563 17.32925781 39.42578125 17.33789062 C33.7890625 17.36328125 33.7890625 17.36328125 31.5625 16.25 C31.5625 13.61 31.5625 10.97 31.5625 8.25 C30.9025 8.25 30.2425 8.25 29.5625 8.25 C29.5625 11.22 29.5625 14.19 29.5625 17.25 C25.22916667 17.25 20.89583333 17.25 16.5625 17.25 C15.551875 17.311875 14.54125 17.37375 13.5 17.4375 C12.0459375 17.3446875 12.0459375 17.3446875 10.5625 17.25 C8.27236347 13.8147952 8.38407027 12.264669 8.5625 8.25 C7.9025 8.25 7.2425 8.25 6.5625 8.25 C6.9028125 9.36375 6.9028125 9.36375 7.25 10.5 C7.5625 13.25 7.5625 13.25 6.625 15.5625 C3.87574145 17.81189336 1.95909172 17.6514506 -1.5 17.5859375 C-3.4375 17.25 -3.4375 17.25 -6.4375 15.25 C-6.4375 14.26 -6.4375 13.27 -6.4375 12.25 C-4.7875 11.92 -3.1375 11.59 -1.4375 11.25 C-1.4375 11.91 -1.4375 12.57 -1.4375 13.25 C-0.1175 13.25 1.2025 13.25 2.5625 13.25 C2.5625 12.59 2.5625 11.93 2.5625 11.25 C1.634375 11.146875 0.70625 11.04375 -0.25 10.9375 C-3.4375 10.25 -3.4375 10.25 -5.375 9 C-6.4375 7.25 -6.4375 7.25 -6.25 4.6875 C-4.95826479 0.81229437 -4.10372314 0.29845259 0 0 Z M-1.4375 4.25 C-1.4375 4.91 -1.4375 5.57 -1.4375 6.25 C1.2025 6.91 3.8425 7.57 6.5625 8.25 C6.5625 7.26 6.5625 6.27 6.5625 5.25 C3.9225 4.92 1.2825 4.59 -1.4375 4.25 Z M12.5625 8.25 C12.8925 9.9 13.2225 11.55 13.5625 13.25 C14.5525 12.92 15.5425 12.59 16.5625 12.25 C16.5625 10.93 16.5625 9.61 16.5625 8.25 C15.2425 8.25 13.9225 8.25 12.5625 8.25 Z M21.5625 8.25 C21.2325 9.57 20.9025 10.89 20.5625 12.25 C21.8825 12.58 23.2025 12.91 24.5625 13.25 C24.8925 12.26 25.2225 11.27 25.5625 10.25 C25.2325 9.59 24.9025 8.93 24.5625 8.25 C23.5725 8.25 22.5825 8.25 21.5625 8.25 Z M35.5625 8.25 C35.8925 9.9 36.2225 11.55 36.5625 13.25 C37.5525 12.92 38.5425 12.59 39.5625 12.25 C39.5625 10.93 39.5625 9.61 39.5625 8.25 C38.2425 8.25 36.9225 8.25 35.5625 8.25 Z M43.5625 12.25 C47.5625 13.25 47.5625 13.25 47.5625 13.25 Z " fill="#000000" transform="translate(121.4375,91.75)"/>
<path d="M0 0 C0.763125 0.0825 1.52625 0.165 2.3125 0.25 C4.08571415 3.93635969 5.8556404 7.62428887 7.625 11.3125 C8.12451172 12.35083984 8.62402344 13.38917969 9.13867188 14.45898438 C16.3125 29.42425497 16.3125 29.42425497 16.3125 33.25 C12.6825 33.25 9.0525 33.25 5.3125 33.25 C4.9825 32.26 4.6525 31.27 4.3125 30.25 C1.0125 29.92 -2.2875 29.59 -5.6875 29.25 C-6.0175 30.57 -6.3475 31.89 -6.6875 33.25 C-10.6475 33.25 -14.6075 33.25 -18.6875 33.25 C-16.73251101 27.09379226 -14.04302938 21.43683168 -11.25 15.625 C-10.75951172 14.58859375 -10.26902344 13.5521875 -9.76367188 12.484375 C-9.28607422 11.48664062 -8.80847656 10.48890625 -8.31640625 9.4609375 C-7.88400635 8.55649902 -7.45160645 7.65206055 -7.00610352 6.72021484 C-3.59748138 0.33464943 -3.59748138 0.33464943 0 0 Z M-0.6875 17.25 C-1.0175 18.57 -1.3475 19.89 -1.6875 21.25 C-1.0275 21.25 -0.3675 21.25 0.3125 21.25 C-0.0175 19.93 -0.3475 18.61 -0.6875 17.25 Z " fill="#000000" transform="translate(236.6875,47.75)"/>
<path d="M0 0 C1.65 0 3.3 0 5 0 C5 1.32 5 2.64 5 4 C6.32 4 7.64 4 9 4 C9 5.32 9 6.64 9 8 C7.68 8 6.36 8 5 8 C5 9.32 5 10.64 5 12 C6.32 12 7.64 12 9 12 C9 13.32 9 14.64 9 16 C6.75 16.6875 6.75 16.6875 4 17 C1.6875 15.5625 1.6875 15.5625 0 14 C-0.99 14.99 -1.98 15.98 -3 17 C-3.66 16.67 -4.32 16.34 -5 16 C-5.40729228 13.67843403 -5.74438677 11.3431213 -6 9 C-6.66 9 -7.32 9 -8 9 C-8.33 11.31 -8.66 13.62 -9 16 C-12 17 -12 17 -13.8125 16.5 C-16.13807487 15.81680285 -16.13807487 15.81680285 -19.0625 16.5625 C-22 17 -22 17 -25 15 C-25.61875 15.350625 -26.2375 15.70125 -26.875 16.0625 C-27.57625 16.371875 -28.2775 16.68125 -29 17 C-29.66 16.67 -30.32 16.34 -31 16 C-31 13.36 -31 10.72 -31 8 C-31.99 8 -32.98 8 -34 8 C-34 10.64 -34 13.28 -34 16 C-34.99 16.33 -35.98 16.66 -37 17 C-38.96822886 15.03177114 -38.66248381 11.65191291 -39 9 C-39.66 9 -40.32 9 -41 9 C-41.33 11.31 -41.66 13.62 -42 16 C-43.32 16 -44.64 16 -46 16 C-46 12.04 -46 8.08 -46 4 C-38.375 2.875 -38.375 2.875 -35 4 C-34.38125 3.79375 -33.7625 3.5875 -33.125 3.375 C-30.00582729 2.82455776 -28.51453436 4.25379558 -26 6 C-25.29875 5.46375 -24.5975 4.9275 -23.875 4.375 C-21 3 -21 3 -17.6875 3.8125 C-16.800625 4.204375 -15.91375 4.59625 -15 5 C-14.67 4.67 -14.34 4.34 -14 4 C-9.22895441 3.1128221 -4.7191598 2.62992135 0 4 C0 2.68 0 1.36 0 0 Z M-14 8 C-13 11 -13 11 -13 11 Z " fill="#000000" transform="translate(238,113)"/>
<path d="M0 0 C3.63 0 7.26 0 11 0 C11 10.89 11 21.78 11 33 C7.37 33 3.74 33 0 33 C0 22.11 0 11.22 0 0 Z " fill="#000000" transform="translate(205,48)"/>
</svg>
