<?xml version="1.0" encoding="UTF-8"?>
<svg version="1.1" xmlns="http://www.w3.org/2000/svg" width="264" height="149">
<path d="M0 0 C45.87 0 91.74 0 139 0 C135.62624822 10.12125535 135.62624822 10.12125535 133.765625 13.9453125 C133.35940918 14.78811768 132.95319336 15.63092285 132.53466797 16.49926758 C132.11072754 17.36575928 131.68678711 18.23225098 131.25 19.125 C130.36148626 20.96460576 129.47346915 22.80445147 128.5859375 24.64453125 C128.14991211 25.54510254 127.71388672 26.44567383 127.26464844 27.37353516 C125.43586763 31.17160928 123.65083975 34.98945134 121.875 38.8125 C120.92625 40.854375 119.9775 42.89625 119 45 C125.93 45.33 132.86 45.66 140 46 C140 49.3 140 52.6 140 56 C137.03 56 134.06 56 131 56 C131 64.25 131 72.5 131 81 C127.37 81 123.74 81 120 81 C120 72.75 120 64.5 120 56 C117.69 56 115.38 56 113 56 C112.773125 56.78375 112.54625 57.5675 112.3125 58.375 C110.59339067 63.12301625 108.31915279 67.52102552 106 72 C104.02 71.01 102.04 70.02 100 69 C100 69.66 100 70.32 100 71 C95.94197998 73.02901001 93.36675586 73.30073579 89 72 C86.13696994 69.91076185 85.16517138 68.47486771 84 65.125 C84 60.76010673 85.9451739 58.0548261 89 55 C96.16981132 54.64150943 96.16981132 54.64150943 99.75 56.1875 C100.4925 56.455625 101.235 56.72375 102 57 C104.32511472 55.73647948 104.32511472 55.73647948 106 54 C105.67 53.01 105.34 52.02 105 51 C102.62374655 49.81608777 102.62374655 49.81608777 100 49 C98.515 48.505 98.515 48.505 97 48 C91.02185998 47.39205356 87.63765394 48.12239224 82.6953125 51.58203125 C79.2938796 54.42700854 78.2403537 57.09008957 77.125 61.3125 C76.95071011 66.45405169 77.90795062 70.69133515 81.43359375 74.58203125 C85.30721245 77.93401551 88.40364098 79.1419776 93.4375 79.125 C94.19933594 79.12757812 94.96117188 79.13015625 95.74609375 79.1328125 C97.95315859 79.00276015 99.87969276 78.60856199 102 78 C101.47271156 83.94664184 98.97854841 88.66911528 96.375 93.9375 C95.45531299 95.83313148 94.53604366 97.72896565 93.6171875 99.625 C93.16698242 100.54796875 92.71677734 101.4709375 92.25292969 102.421875 C88.53359148 110.07507286 84.98283753 117.80841298 81.48828125 125.56640625 C81.04613281 126.54617432 80.60398437 127.52594238 80.1484375 128.53540039 C79.27930109 130.46411447 78.4132482 132.39422205 77.55078125 134.32592773 C75.26990424 139.38890812 72.84883465 144.23229512 70 149 C69.34 149 68.68 149 68 149 C65.7226029 144.20396926 63.44820392 139.40653106 61.17626953 134.60791016 C60.40718388 132.98449774 59.6373578 131.36143584 58.86669922 129.73876953 C54.34856622 120.22411299 49.91003803 110.68495087 45.69433594 101.0317688 C43.35233032 95.69186843 40.78511869 90.52434394 38.03125 85.3828125 C37 83 37 83 37 79 C39.31 79 41.62 79 44 79 C44.38800781 77.74316406 44.77601562 76.48632812 45.17578125 75.19140625 C47.0571839 69.54719829 49.58246641 64.27763305 52.1875 58.9375 C52.65091797 57.97650391 53.11433594 57.01550781 53.59179688 56.02539062 C54.7230646 53.6812173 55.85919011 51.33954029 57 49 C54.36 48.67 51.72 48.34 49 48 C48.76216797 48.81791016 48.76216797 48.81791016 48.51953125 49.65234375 C46.69131717 55.56121247 44.17078876 60.69864172 41 66 C37.83139145 63.34521986 36.49698412 60.16000194 34.8125 56.4375 C34.28269531 55.28121094 33.75289062 54.12492187 33.20703125 52.93359375 C32 50 32 50 32 48 C28.37 48 24.74 48 21 48 C20.3709375 46.5975 19.741875 45.195 19.09375 43.75 C14.7656646 34.14156545 10.41278851 24.56743228 5.6015625 15.18945312 C0 4.23875905 0 4.23875905 0 0 Z M62 48 C62 58.23 62 68.46 62 79 C64.97 79 67.94 79 71 79 C71 68.77 71 58.54 71 48 C68.03 48 65.06 48 62 48 Z " fill="#005AA6" transform="translate(0,0)"/>
<path d="M0 0 C3.58155132 2.46437017 6.4216444 4.87032987 8 9 C8.64317467 14.78857199 8.85005993 20.16910168 6.375 25.5 C1.2685051 30.87525779 -2.64950548 34.05277087 -10.25 34.3125 C-15.92767612 34.22845545 -20.32184783 32.41985323 -24.5390625 28.609375 C-28.62964528 24.06428303 -30.06703665 20.11165449 -29.875 14.0625 C-28.97400396 8.58318688 -26.62882922 4.58596529 -22.625 0.6875 C-15.02572532 -4.19774801 -7.92680566 -4.17958844 0 0 Z M-18 13 C-18.75015195 16.04308291 -18.75015195 16.04308291 -18 19 C-16.03600004 21.69140735 -14.64117537 22.77558862 -11.5 23.875 C-8.61215275 24.01939236 -7.36588409 23.6316442 -5 22 C-2.51961093 18.2794164 -2.53662797 16.40203429 -3 12 C-4.47993156 9.43661311 -4.47993156 9.43661311 -7 8 C-12.43266828 6.95970182 -14.78566896 8.65119918 -18 13 Z " fill="#0059A5" transform="translate(170,48)"/>
<path d="M0 0 C3.17625 -0.0825 6.3525 -0.165 9.625 -0.25 C10.6145166 -0.28641602 11.6040332 -0.32283203 12.62353516 -0.36035156 C18.44253917 -0.43328026 21.53916852 0.20369809 26 4 C29.28767101 7.28767101 29.84140001 10.40060034 30 15 C28.81932261 17.86735938 27.43860187 20.31196959 25.77734375 22.91796875 C24.75743515 24.98830954 24.75743515 24.98830954 25.6796875 27.0703125 C26.07414062 27.74835938 26.46859375 28.42640625 26.875 29.125 C29 32.85430464 29 32.85430464 29 35 C25.04 35 21.08 35 17 35 C16.01 32.03 15.02 29.06 14 26 C12.68 26 11.36 26 10 26 C10 28.97 10 31.94 10 35 C6.7 35 3.4 35 0 35 C0 23.45 0 11.9 0 0 Z M10 10 C10 12.31 10 14.62 10 17 C14.25731568 17.40749675 14.25731568 17.40749675 17.875 15.5 C18.24625 15.005 18.6175 14.51 19 14 C18.34 12.68 17.68 11.36 17 10 C14.69 10 12.38 10 10 10 Z " fill="#005AA5" transform="translate(182,46)"/>
<path d="M0 0 C1.65 0 3.3 0 5 0 C8.88981257 7.67022417 12.71231404 15.37342498 16.4375 23.125 C16.79134766 23.84679443 17.14519531 24.56858887 17.50976562 25.31225586 C19.19549409 28.85103385 20 31.01209619 20 35 C16.37 35 12.74 35 9 35 C8.67 33.68 8.34 32.36 8 31 C6.37399059 31.0870005 4.74910322 31.1951781 3.125 31.3125 C2.22007812 31.37050781 1.31515625 31.42851563 0.3828125 31.48828125 C-2.36221601 31.7882039 -2.36221601 31.7882039 -4 35 C-6.8203125 35.29296875 -6.8203125 35.29296875 -10.125 35.1875 C-11.76855469 35.14689453 -11.76855469 35.14689453 -13.4453125 35.10546875 C-14.70988281 35.05326172 -14.70988281 35.05326172 -16 35 C-10.75917724 23.28911404 -5.46900689 11.60625257 0 0 Z M2 18 C1.67 19.32 1.34 20.64 1 22 C1.99 22 2.98 22 4 22 C3.34 20.68 2.68 19.36 2 18 Z " fill="#0059A5" transform="translate(244,46)"/>
<path d="M0 0 C0.680625 -0.00515625 1.36125 -0.0103125 2.0625 -0.015625 C4 0.25 4 0.25 7 2.25 C6.34 3.57 5.68 4.89 5 6.25 C4.05125 6.064375 3.1025 5.87875 2.125 5.6875 C-0.89868793 4.96313368 -0.89868793 4.96313368 -3 6.25 C-3.40729228 8.57156597 -3.74438677 10.9068787 -4 13.25 C-2.02 13.25 -0.04 13.25 2 13.25 C1.34 12.92 0.68 12.59 0 12.25 C0 10.93 0 9.61 0 8.25 C0.60328125 8.28480469 1.2065625 8.31960937 1.828125 8.35546875 C6.75861038 8.52246906 9.11958563 8.46137741 13 5.25 C16.0625 5.0625 16.0625 5.0625 19 5.25 C19.99 5.25 20.98 5.25 22 5.25 C23.66666667 5.25 25.33333333 5.25 27 5.25 C27.66 6.9 28.32 8.55 29 10.25 C29.66 8.6 30.32 6.95 31 5.25 C33.33333333 5.25 35.66666667 5.25 38 5.25 C39.7015625 5.12625 39.7015625 5.12625 41.4375 5 C45 5.25 45 5.25 47 6.75 C48.55009477 10.62523693 47.9186232 13.18181156 47 17.25 C43.73201451 19.428657 42.79094962 19.97208564 39 19.25 C37.024249 17.39806991 35.60887915 15.45646283 34 13.25 C33.01 15.23 32.02 17.21 31 19.25 C29.68 19.25 28.36 19.25 27 19.25 C26.01 16.94 25.02 14.63 24 12.25 C23.46375 13.219375 22.9275 14.18875 22.375 15.1875 C20 18.25 20 18.25 17.125 19.375 C13.08126964 19.21325079 11.13497493 17.71319459 8 15.25 C7.154375 15.930625 6.30875 16.61125 5.4375 17.3125 C1.26038096 19.66687619 -0.444558 19.51540056 -5 18.25 C-7.375 17.1875 -7.375 17.1875 -9 15.25 C-10.07163193 10.82058804 -10.56608196 8.55198852 -8.75 4.375 C-6.10659218 1.16514764 -4.07945647 -0.03090497 0 0 Z M14 10.25 C14 11.57 14 12.89 14 14.25 C15.32 14.25 16.64 14.25 18 14.25 C18 12.93 18 11.61 18 10.25 C16.68 10.25 15.36 10.25 14 10.25 Z M40 13.25 C44 14.25 44 14.25 44 14.25 Z " fill="#0054A2" transform="translate(128,114.75)"/>
<path d="M0 0 C1.65 0 3.3 0 5 0 C5 1.32 5 2.64 5 4 C5.78375 4 6.5675 4 7.375 4 C8.91666667 4 10.45833333 4 12 4 C12.886875 3.814375 13.77375 3.62875 14.6875 3.4375 C18.35046431 2.95371226 21.37878729 3.34818171 25 4 C25 2.68 25 1.36 25 0 C26.65 0 28.3 0 30 0 C30 1.32 30 2.64 30 4 C31.32 4 32.64 4 34 4 C34.495 4.99 34.495 4.99 35 6 C35.53625 5.484375 36.0725 4.96875 36.625 4.4375 C39 3 39 3 42.125 3.125 C45 4 45 4 47 7 C47.24682644 10.20874376 46.91204104 12.92186148 46 16 C39.375 17.25 39.375 17.25 36 15 C35.01 15.66 34.02 16.32 33 17 C30.16920408 17.35384949 28.63169911 17.3920891 26.1875 15.875 C24.50893894 13.22464043 24.79549762 11.06753576 25 8 C24.34 8 23.68 8 23 8 C23 10.64 23 13.28 23 16 C21.39679026 16.19551338 19.79237014 16.38111983 18.1875 16.5625 C17.29417969 16.66691406 16.40085938 16.77132812 15.48046875 16.87890625 C13 17 13 17 10 16 C7.6593935 16.27769908 5.32375692 16.60539977 3 17 C-0.57011026 13.267612 -1.10913442 8.9050011 -2 4 C-1.34 4 -0.68 4 0 4 C0 2.68 0 1.36 0 0 Z M5 8 C5.33 9.65 5.66 11.3 6 13 C6.99 12.67 7.98 12.34 9 12 C9 10.68 9 9.36 9 8 C7.68 8 6.36 8 5 8 Z M15 8 C14.67 9.32 14.34 10.64 14 12 C14.99 12.33 15.98 12.66 17 13 C17.66 12.01 18.32 11.02 19 10 C18.67 9.34 18.34 8.68 18 8 C17.01 8 16.02 8 15 8 Z M30 8 C30.33 9.65 30.66 11.3 31 13 C31.99 12.67 32.98 12.34 34 12 C34 10.68 34 9.36 34 8 C32.68 8 31.36 8 30 8 Z " fill="#0056A2" transform="translate(135,95)"/>
<path d="M0 0 C5.94 0 11.88 0 18 0 C18.66 1.32 19.32 2.64 20 4 C20.515625 3.34 21.03125 2.68 21.5625 2 C24 0 24 0 27.5625 -0.5 C31 0 31 0 33 1.5 C34.55009477 5.37523693 33.9186232 7.93181156 33 12 C29.76746204 14.15502531 28.74849077 14.46856135 25 14 C23.1875 12.5 23.1875 12.5 22 11 C21.01 12.485 21.01 12.485 20 14 C18.68 13.67 17.36 13.34 16 13 C16 10.36 16 7.72 16 5 C15.01 5 14.02 5 13 5 C13 7.64 13 10.28 13 13 C11.0625 13.5625 11.0625 13.5625 9 14 C8 13 8 13 7.90234375 11.15234375 C7.93489583 9.1015625 7.96744792 7.05078125 8 5 C7.01 5 6.02 5 5 5 C5 7.64 5 10.28 5 13 C3.0625 13.5625 3.0625 13.5625 1 14 C0 13 0 13 -0.09765625 10.05859375 C-0.06510417 6.70572917 -0.03255208 3.35286458 0 0 Z M26 8 C30 9 30 9 30 9 Z " fill="#0052A1" transform="translate(200,120)"/>
<path d="M0 0 C3.3 0 6.6 0 10 0 C10 11.55 10 23.1 10 35 C6.7 35 3.4 35 0 35 C0 23.45 0 11.9 0 0 Z " fill="#005BA6" transform="translate(216,46)"/>
<path d="M0 0 C1.32 0 2.64 0 4 0 C4 0.99 4 1.98 4 3 C5.32 3 6.64 3 8 3 C8 4.65 8 6.3 8 8 C6.68 8 5.36 8 4 8 C4 9.32 4 10.64 4 12 C6.475 12.495 6.475 12.495 9 13 C8.34 14.32 7.68 15.64 7 17 C4.625 17.125 4.625 17.125 2 17 C0 15 0 15 -0.125 11.375 C-0.08375 10.26125 -0.0425 9.1475 0 8 C-0.66 8 -1.32 8 -2 8 C-2.33 10.64 -2.66 13.28 -3 16 C-4.32 16.33 -5.64 16.66 -7 17 C-7 14.03 -7 11.06 -7 8 C-8.32 8 -9.64 8 -11 8 C-11 10.64 -11 13.28 -11 16 C-12.32 16 -13.64 16 -15 16 C-15 11.71 -15 7.42 -15 3 C-10 3 -5 3 0 3 C0 2.01 0 1.02 0 0 Z " fill="#0056A1" transform="translate(250,117)"/>
<path d="M0 0 C3.29215238 -0.08066072 6.58234578 -0.14033374 9.875 -0.1875 C10.81214844 -0.21263672 11.74929687 -0.23777344 12.71484375 -0.26367188 C14.05869141 -0.27817383 14.05869141 -0.27817383 15.4296875 -0.29296875 C16.25710449 -0.3086792 17.08452148 -0.32438965 17.93701172 -0.34057617 C18.61779785 -0.22818604 19.29858398 -0.1157959 20 0 C22.20914 3.31371 22.22481553 4.3446021 22.125 8.1875 C22.10695312 9.08855469 22.08890625 9.98960937 22.0703125 10.91796875 C22.04710937 11.60503906 22.02390625 12.29210937 22 13 C20.0625 13.5625 20.0625 13.5625 18 14 C17 13 17 13 16.90234375 11.15234375 C16.93489583 9.1015625 16.96744792 7.05078125 17 5 C16.01 5 15.02 5 14 5 C14 7.64 14 10.28 14 13 C12.0625 13.5625 12.0625 13.5625 10 14 C9 13 9 13 8.90234375 11.15234375 C8.95117188 8.07617188 8.95117188 8.07617188 9 5 C7.68 5.33 6.36 5.66 5 6 C4.67 8.31 4.34 10.62 4 13 C2.68 13 1.36 13 0 13 C0 8.71 0 4.42 0 0 Z " fill="#00549E" transform="translate(177,120)"/>
<path d="M0 0 C0.66 0.33 1.32 0.66 2 1 C1.34 2.32 0.68 3.64 0 5 C-2.31 5 -4.62 5 -7 5 C-5.329375 5.680625 -5.329375 5.680625 -3.625 6.375 C0 8 0 8 2 10 C1.875 13 1.875 13 1 16 C-1.99146863 18.04505267 -4.09358953 18.1776456 -7.625 17.6875 C-8.40101562 17.58824219 -9.17703125 17.48898438 -9.9765625 17.38671875 C-12 17 -12 17 -14 16 C-13.34 14.68 -12.68 13.36 -12 12 C-9.69 12 -7.38 12 -5 12 C-6.134375 11.525625 -7.26875 11.05125 -8.4375 10.5625 C-12 9 -12 9 -13 8 C-13.375 5.125 -13.375 5.125 -13 2 C-8.89314131 -1.97851936 -5.19710708 -1.02238172 0 0 Z " fill="#0055A1" transform="translate(132,94)"/>
</svg>
